<?xml version="1.0" encoding="utf-8"?>
<!-- Generator: Adobe Illustrator 19.0.0, SVG Export Plug-In . SVG Version: 6.00 Build 0)  -->
<svg version="1.1" xmlns="http://www.w3.org/2000/svg" xmlns:xlink="http://www.w3.org/1999/xlink" x="0px" y="0px"
	 viewBox="0 0 779.2 408.7" style="enable-background:new 0 0 779.2 408.7;" xml:space="preserve">
<style type="text/css">
	.st0{fill:none;stroke:#000000;stroke-miterlimit:10;stroke-dasharray:3,3;}
	.st1{fill:#FFFFFF;stroke:#000000;stroke-miterlimit:10;}
	.st2{display:none;}
	.st3{display:inline;}
	.st4{display:inline;fill:#FFFFFF;stroke:#000000;stroke-miterlimit:10;}
	.st5{fill:#E30613;}
	.st6{fill:none;stroke:#000000;stroke-miterlimit:10;}
</style>
<g id="Warstwa_1">
	<g id="XMLID_34_">
		<g id="XMLID_102_">
			<line id="XMLID_105_" class="st0" x1="711.3" y1="201.3" x2="656.1" y2="201.3"/>
			<g id="XMLID_103_">
				<polygon id="XMLID_104_" points="657.6,196.3 648.9,201.3 657.6,206.2 				"/>
			</g>
		</g>
	</g>
	<circle id="XMLID_33_" class="st1" cx="750.4" cy="201.8" r="28.3"/>
	<g id="XMLID_32_">
		<path id="XMLID_15_" d="M751.5,203.4l0.1,0.1l-0.2,0.4c-0.4,0.3-0.7,0.5-1.1,0.6c-0.3,0.1-0.7,0.2-1.2,0.2c-0.8,0-1.5-0.2-2-0.6
			c-0.5-0.4-0.7-0.9-0.7-1.4c0-0.9,0.7-1.5,2-1.7v-0.1c-0.5-0.1-0.9-0.3-1.1-0.5c-0.2-0.2-0.3-0.5-0.3-0.9c0-0.5,0.2-0.8,0.6-1.1
			s1-0.4,1.8-0.4c0.8,0,1.5,0.2,1.9,0.6c-0.2,0.4-0.4,0.7-0.5,0.9l-0.2-0.1c0-0.4-0.2-0.7-0.4-0.9c-0.2-0.2-0.5-0.3-0.9-0.3
			c-0.4,0-0.7,0.1-0.9,0.3c-0.3,0.2-0.4,0.5-0.4,0.9c0,0.2,0,0.5,0.2,0.6c0.1,0.2,0.2,0.3,0.4,0.4c0.2,0.1,0.4,0.2,0.8,0.2
			c0.3,0,0.6,0,1-0.1l0.1,0.1c0,0.2-0.1,0.3-0.1,0.4l-0.1,0.1c-0.3-0.1-0.6-0.1-0.9-0.1c-0.5,0-0.9,0.1-1.2,0.4s-0.4,0.6-0.4,1
			c0,0.5,0.2,0.9,0.5,1.2c0.4,0.3,0.8,0.5,1.4,0.5C750.3,204,750.9,203.8,751.5,203.4z"/>
		<path id="XMLID_17_" d="M755.1,205.2L755.1,205.2c0,0.4,0,0.8,0,1.4v0.9c0,0.1,0,0.2,0,0.6c0,0.3,0,0.5,0,0.6s0,0.1,0.1,0.1
			c0,0,0.1,0,0.1,0c0,0,0.2,0,0.4,0l0,0v0.2l0,0c-0.3,0-0.7,0-1,0c-0.3,0-0.6,0-1,0l0,0v-0.2l0,0c0.3,0,0.4,0,0.4,0c0,0,0.1,0,0.1,0
			c0,0,0-0.1,0.1-0.1c0-0.1,0-0.2,0-0.5c0-0.3,0-0.5,0-0.7v-0.8c0-0.1,0-0.3,0-0.4c0-0.2,0-0.3,0-0.3c0,0,0-0.1-0.1-0.1
			c0,0-0.1,0-0.2,0l-0.3,0l0,0v-0.2l0,0C754.4,205.5,754.8,205.4,755.1,205.2z M754.8,203.5c0.1,0,0.2,0,0.3,0.1
			c0.1,0.1,0.1,0.2,0.1,0.3c0,0.1,0,0.2-0.1,0.3c-0.1,0.1-0.2,0.1-0.3,0.1c-0.1,0-0.2,0-0.3-0.1c-0.1-0.1-0.1-0.2-0.1-0.3
			c0-0.1,0-0.2,0.1-0.3C754.6,203.5,754.7,203.5,754.8,203.5z"/>
	</g>
</g>
<g id="Warstwa_4" class="st2">
	<g id="XMLID_12_" class="st3">
		<g id="XMLID_43_">
			<line id="XMLID_46_" class="st0" x1="221.4" y1="163.7" x2="260.5" y2="202.7"/>
			<g id="XMLID_44_">
				<polygon id="XMLID_45_" points="255.9,205.2 265.5,207.7 263,198.1 				"/>
			</g>
		</g>
	</g>
	<circle id="XMLID_13_" class="st4" cx="193.1" cy="135.3" r="28.3"/>
	<g id="XMLID_14_" class="st3">
		<path id="XMLID_22_" class="st5" d="M186.1,130.5c-0.9,1.2-1.5,2.7-1.5,4.9c0,2.1,0.7,3.7,1.5,4.9h-0.8c-0.8-1-1.6-2.5-1.6-4.9
			c0-2.4,0.8-3.9,1.6-4.9H186.1z"/>
		<path id="XMLID_25_" class="st5" d="M188.2,138.2c0-0.4,0.3-0.8,0.7-0.8s0.7,0.3,0.7,0.8c0,0.4-0.3,0.8-0.7,0.8
			C188.5,139,188.2,138.6,188.2,138.2z"/>
		<path id="XMLID_27_" class="st5" d="M191.9,138.2c0-0.4,0.3-0.8,0.7-0.8s0.7,0.3,0.7,0.8c0,0.4-0.3,0.8-0.7,0.8
			C192.2,139,191.9,138.6,191.9,138.2z"/>
		<path id="XMLID_53_" class="st5" d="M195.6,138.2c0-0.4,0.3-0.8,0.7-0.8s0.7,0.3,0.7,0.8c0,0.4-0.3,0.8-0.7,0.8
			C195.8,139,195.6,138.6,195.6,138.2z"/>
		<path id="XMLID_55_" class="st5" d="M198.9,140.3c0.9-1.2,1.5-2.7,1.5-4.9c0-2.1-0.6-3.7-1.5-4.9h0.8c0.8,1,1.6,2.5,1.6,4.9
			c0,2.4-0.8,3.9-1.6,4.9H198.9z"/>
	</g>
</g>
<g id="Warstwa_2">
	<rect id="XMLID_142_" x="0.5" y="173.4" class="st1" width="170.1" height="56.7"/>
	<rect id="XMLID_141_" x="468.2" y="173.4" class="st1" width="170.1" height="56.7"/>
	<g id="XMLID_135_">
		<g id="XMLID_137_">
			<line id="XMLID_140_" class="st6" x1="186.2" y1="201.8" x2="451.1" y2="201.8"/>
			<g id="XMLID_138_">
				<polygon id="XMLID_139_" points="449.7,206.7 458.3,201.8 449.7,196.8 				"/>
			</g>
		</g>
	</g>
</g>
<g id="Warstwa_3">
	<circle id="XMLID_4_" class="st1" cx="404.5" cy="57.2" r="56.7"/>
	<g id="XMLID_7_">
		<g id="XMLID_90_">
			<line id="XMLID_147_" class="st0" x1="404.5" y1="185.6" x2="404.5" y2="130.4"/>
			<g id="XMLID_91_">
				<polygon id="XMLID_146_" points="409.5,184.1 404.5,192.8 399.5,184.1 				"/>
			</g>
		</g>
	</g>
	<g id="XMLID_11_">
		<path id="XMLID_210_" d="M368.3,52.5h1.2v7.1h3.7v1.1h-4.9V52.5z"/>
		<path id="XMLID_212_" d="M375.8,53.1c0.2,0,0.3,0.1,0.5,0.2s0.2,0.3,0.2,0.4c0,0.2-0.1,0.3-0.2,0.4s-0.3,0.2-0.5,0.2
			c-0.2,0-0.3-0.1-0.4-0.2s-0.2-0.3-0.2-0.4c0-0.2,0.1-0.3,0.2-0.4S375.7,53.1,375.8,53.1z M375.3,55.3h1.1v5.4h-1.1V55.3z"/>
		<path id="XMLID_215_" d="M383.1,59.4v1.1c-0.5,0.2-1.1,0.3-1.6,0.3c-0.8,0-1.5-0.3-2-0.8s-0.8-1.2-0.8-2c0-0.8,0.2-1.5,0.7-2.1
			s1.1-0.8,1.9-0.8c0.3,0,0.5,0,0.7,0.1s0.5,0.2,0.8,0.3v1.1c-0.5-0.3-1-0.5-1.5-0.5c-0.5,0-0.9,0.2-1.2,0.5s-0.5,0.8-0.5,1.3
			c0,0.6,0.2,1,0.5,1.3s0.8,0.5,1.4,0.5C382.1,59.8,382.6,59.7,383.1,59.4z"/>
		<path id="XMLID_217_" d="M385.1,55.3h4.6l-2.9,4.4h2.9v1h-4.7l2.8-4.4h-2.7V55.3z"/>
		<path id="XMLID_219_" d="M391.7,52.5h1.1v3.2c0.5-0.3,1-0.5,1.5-0.5c0.7,0,1.2,0.3,1.7,0.8s0.7,1.2,0.7,2c0,0.9-0.3,1.6-0.8,2.1
			s-1.2,0.8-2.1,0.8c-0.3,0-0.7,0-1.1-0.1s-0.7-0.2-0.9-0.3V52.5z M392.8,56.7v2.9c0.4,0.1,0.7,0.2,1.1,0.2c0.5,0,0.9-0.2,1.2-0.5
			s0.4-0.8,0.4-1.3c0-0.5-0.1-1-0.4-1.3s-0.6-0.5-1.1-0.5C393.6,56.2,393.2,56.4,392.8,56.7z"/>
		<path id="XMLID_222_" d="M402.3,57.5v2.3c0,0.2,0.1,0.3,0.2,0.3c0.1,0,0.3-0.1,0.6-0.3v0.7c-0.2,0.2-0.4,0.3-0.6,0.3
			s-0.3,0.1-0.5,0.1c-0.5,0-0.7-0.2-0.8-0.5c-0.5,0.4-0.9,0.5-1.4,0.5c-0.4,0-0.7-0.1-0.9-0.4s-0.4-0.6-0.4-0.9
			c0-0.3,0.1-0.6,0.4-0.9s0.6-0.5,1-0.6l1.4-0.5v-0.3c0-0.6-0.3-1-1-1c-0.6,0-1.1,0.3-1.7,0.9v-1.2c0.4-0.5,1-0.7,1.8-0.7
			c0.6,0,1,0.2,1.4,0.5c0.1,0.1,0.2,0.2,0.3,0.4s0.2,0.3,0.2,0.5S402.3,57,402.3,57.5z M401.3,59.6V58l-0.7,0.3
			c-0.4,0.1-0.6,0.3-0.8,0.4s-0.2,0.3-0.2,0.5c0,0.2,0.1,0.4,0.2,0.5s0.3,0.2,0.6,0.2C400.7,60.1,401,59.9,401.3,59.6z"/>
		<path id="XMLID_225_" d="M409.7,63.5v-8.1h1.9c1,0,1.7,0.2,2.2,0.7c0.5,0.5,0.8,1.1,0.8,2c0,0.8-0.3,1.5-0.8,2
			c-0.5,0.5-1.1,0.8-1.9,0.8c-0.3,0-0.7-0.1-1.1-0.2v2.9H409.7z M411.6,56.3h-0.8v3.3c0.3,0.2,0.7,0.3,1,0.3c0.5,0,0.9-0.2,1.2-0.5
			c0.3-0.3,0.5-0.8,0.5-1.3c0-0.4-0.1-0.7-0.2-0.9c-0.2-0.3-0.4-0.5-0.6-0.6C412.5,56.4,412.1,56.3,411.6,56.3z"/>
		<path id="XMLID_228_" d="M420.4,57.5v2.3c0,0.2,0.1,0.3,0.2,0.3c0.1,0,0.3-0.1,0.6-0.3v0.7c-0.2,0.2-0.4,0.3-0.6,0.3
			s-0.3,0.1-0.5,0.1c-0.5,0-0.7-0.2-0.8-0.5c-0.5,0.4-0.9,0.5-1.4,0.5c-0.4,0-0.7-0.1-0.9-0.4s-0.4-0.6-0.4-0.9
			c0-0.3,0.1-0.6,0.4-0.9s0.6-0.5,1-0.6l1.4-0.5v-0.3c0-0.6-0.3-1-1-1c-0.6,0-1.1,0.3-1.7,0.9v-1.2c0.4-0.5,1-0.7,1.8-0.7
			c0.6,0,1,0.2,1.4,0.5c0.1,0.1,0.2,0.2,0.3,0.4s0.2,0.3,0.2,0.5S420.4,57,420.4,57.5z M419.4,59.6V58l-0.7,0.3
			c-0.4,0.1-0.6,0.3-0.8,0.4s-0.2,0.3-0.2,0.5c0,0.2,0.1,0.4,0.2,0.5s0.3,0.2,0.6,0.2C418.7,60.1,419.1,59.9,419.4,59.6z"/>
		<path id="XMLID_231_" d="M424.5,55.3v1.2l0.1-0.1c0.5-0.8,1-1.2,1.5-1.2c0.4,0,0.8,0.2,1.3,0.6l-0.6,0.9c-0.4-0.4-0.7-0.5-1-0.5
			c-0.3,0-0.6,0.2-0.9,0.5s-0.4,0.7-0.4,1.2v2.8h-1.1v-5.4H424.5z"/>
		<path id="XMLID_233_" d="M428.8,56.2l2-2v1.1h1.7v1h-1.7v2.6c0,0.6,0.3,0.9,0.8,0.9c0.4,0,0.8-0.1,1.2-0.4v1
			c-0.4,0.2-0.9,0.3-1.3,0.3c-0.5,0-0.9-0.1-1.2-0.4c-0.1-0.1-0.2-0.2-0.3-0.3s-0.1-0.2-0.2-0.4s-0.1-0.5-0.1-1v-2.4h-0.9V56.2z"/>
		<path id="XMLID_235_" d="M435.3,53.1c0.2,0,0.3,0.1,0.5,0.2s0.2,0.3,0.2,0.4c0,0.2-0.1,0.3-0.2,0.4s-0.3,0.2-0.5,0.2
			c-0.2,0-0.3-0.1-0.4-0.2s-0.2-0.3-0.2-0.4c0-0.2,0.1-0.3,0.2-0.4S435.1,53.1,435.3,53.1z M434.7,55.3h1.1v5.4h-1.1V55.3z"/>
		<path id="XMLID_238_" d="M439.1,53.1c0.2,0,0.3,0.1,0.5,0.2s0.2,0.3,0.2,0.4c0,0.2-0.1,0.3-0.2,0.4s-0.3,0.2-0.5,0.2
			c-0.2,0-0.3-0.1-0.4-0.2s-0.2-0.3-0.2-0.4c0-0.2,0.1-0.3,0.2-0.4S438.9,53.1,439.1,53.1z M438.6,55.3h1.1v5.4h-1.1V55.3z"/>
	</g>
	<circle id="XMLID_3_" class="st1" cx="239.9" cy="58.6" r="56.7"/>
	<g id="XMLID_6_">
		<g id="XMLID_150_">
			<line id="XMLID_153_" class="st0" x1="239.9" y1="130.4" x2="239.9" y2="185.6"/>
			<g id="XMLID_151_">
				<polygon id="XMLID_152_" points="234.9,184.1 239.9,192.8 244.9,184.1 				"/>
			</g>
		</g>
	</g>
	<g id="XMLID_21_">
		<path id="XMLID_175_" d="M216.8,46.7h4.4v1H218v2.3h3.2v1H218v3.8h-1.2V46.7z"/>
		<path id="XMLID_177_" d="M225.9,49.5c0.8,0,1.5,0.3,2,0.8s0.8,1.2,0.8,2c0,0.8-0.3,1.4-0.8,1.9s-1.2,0.8-2.1,0.8
			c-0.8,0-1.5-0.3-2-0.8s-0.8-1.2-0.8-2c0-0.8,0.3-1.4,0.8-2S225,49.5,225.9,49.5z M225.8,50.5c-0.5,0-0.9,0.2-1.3,0.5
			s-0.5,0.8-0.5,1.3c0,0.5,0.2,0.9,0.5,1.3s0.8,0.5,1.3,0.5c0.5,0,1-0.2,1.3-0.5s0.5-0.8,0.5-1.3c0-0.5-0.2-0.9-0.5-1.3
			S226.3,50.5,225.8,50.5z"/>
		<path id="XMLID_180_" d="M232.2,49.5v1.2l0.1-0.1c0.5-0.8,1-1.2,1.5-1.2c0.4,0,0.8,0.2,1.3,0.6l-0.6,0.9c-0.4-0.4-0.7-0.5-1-0.5
			c-0.3,0-0.6,0.2-0.9,0.5s-0.4,0.7-0.4,1.2v2.8h-1.1v-5.4H232.2z"/>
		<path id="XMLID_182_" d="M241.5,51v3.9h-1.1v-3c0-0.6-0.1-1-0.2-1.3s-0.4-0.4-0.8-0.4c-0.2,0-0.4,0.1-0.6,0.2s-0.4,0.3-0.6,0.5
			v3.9H237v-5.4h1.1v0.7c0.5-0.5,1.1-0.8,1.6-0.8c0.7,0,1.2,0.3,1.6,1c0.6-0.7,1.2-1,1.8-1c0.5,0,1,0.2,1.3,0.6s0.5,1,0.5,1.8v3.2
			h-1.1v-3.2c0-0.4-0.1-0.8-0.3-1s-0.4-0.4-0.8-0.4C242.3,50.3,241.9,50.6,241.5,51z"/>
		<path id="XMLID_184_" d="M250.8,54.9v-0.7c-0.2,0.2-0.5,0.4-0.8,0.6s-0.6,0.2-0.9,0.2c-0.3,0-0.7-0.1-0.9-0.3s-0.5-0.4-0.7-0.7
			s-0.2-0.8-0.2-1.5v-3.1h1.1v3.1c0,0.6,0.1,1,0.2,1.2s0.4,0.3,0.9,0.3c0.5,0,0.9-0.2,1.3-0.7v-3.8h1.1v5.4H250.8z"/>
		<path id="XMLID_186_" d="M254.6,46.7h1.1v3.2l1-0.8v0.9l-1,0.8v4.1h-1.1v-3.2l-0.9,0.7v-0.9l0.9-0.8V46.7z"/>
		<path id="XMLID_188_" d="M261.8,51.7V54c0,0.2,0.1,0.3,0.2,0.3c0.1,0,0.3-0.1,0.6-0.3v0.7c-0.2,0.2-0.4,0.3-0.6,0.3
			s-0.3,0.1-0.5,0.1c-0.5,0-0.7-0.2-0.8-0.5c-0.5,0.4-0.9,0.5-1.4,0.5c-0.4,0-0.7-0.1-0.9-0.4s-0.4-0.6-0.4-0.9
			c0-0.3,0.1-0.6,0.4-0.9s0.6-0.5,1-0.6l1.4-0.5v-0.3c0-0.6-0.3-1-1-1c-0.6,0-1.1,0.3-1.7,0.9v-1.2c0.4-0.5,1-0.7,1.8-0.7
			c0.6,0,1,0.2,1.4,0.5c0.1,0.1,0.2,0.2,0.3,0.4s0.2,0.3,0.2,0.5S261.8,51.2,261.8,51.7z M260.8,53.9v-1.6l-0.7,0.3
			c-0.4,0.1-0.6,0.3-0.8,0.4s-0.2,0.3-0.2,0.5c0,0.2,0.1,0.4,0.2,0.5s0.3,0.2,0.6,0.2C260.2,54.3,260.5,54.1,260.8,53.9z"/>
		<path id="XMLID_191_" d="M219.5,63.9h1.1l-2.4,5.5h-0.3l-1.6-3.8l-1.6,3.8h-0.3l-2.4-5.5h1.1l1.4,3.3l1.4-3.3h0.8l1.4,3.3
			L219.5,63.9z"/>
		<path id="XMLID_193_" d="M225.9,63.9h1.2l-3.8,8.1H222l1.8-3.9l-2.1-4.2h1.2l1.5,3L225.9,63.9z"/>
		<path id="XMLID_195_" d="M229,61.1h1.1v3.2c0.5-0.3,1-0.5,1.5-0.5c0.7,0,1.2,0.3,1.7,0.8s0.7,1.2,0.7,2c0,0.9-0.3,1.6-0.8,2.1
			s-1.2,0.8-2.1,0.8c-0.3,0-0.7,0-1.1-0.1s-0.7-0.2-0.9-0.3V61.1z M230,65.3v2.9c0.4,0.1,0.7,0.2,1.1,0.2c0.5,0,0.9-0.2,1.2-0.5
			s0.4-0.8,0.4-1.3c0-0.5-0.1-1-0.4-1.3s-0.6-0.5-1.1-0.5C230.8,64.8,230.4,65,230,65.3z"/>
		<path id="XMLID_198_" d="M238.8,63.9c0.8,0,1.5,0.3,2,0.8s0.8,1.2,0.8,2c0,0.8-0.3,1.4-0.8,1.9s-1.2,0.8-2.1,0.8
			c-0.8,0-1.5-0.3-2-0.8s-0.8-1.2-0.8-2c0-0.8,0.3-1.4,0.8-2S238,63.9,238.8,63.9z M238.7,64.9c-0.5,0-0.9,0.2-1.3,0.5
			s-0.5,0.8-0.5,1.3c0,0.5,0.2,0.9,0.5,1.3s0.8,0.5,1.3,0.5c0.5,0,1-0.2,1.3-0.5s0.5-0.8,0.5-1.3c0-0.5-0.2-0.9-0.5-1.3
			S239.2,64.9,238.7,64.9z"/>
		<path id="XMLID_201_" d="M245.2,63.9v1.2l0.1-0.1c0.5-0.8,1-1.2,1.5-1.2c0.4,0,0.8,0.2,1.3,0.6l-0.6,0.9c-0.4-0.4-0.7-0.5-1-0.5
			c-0.3,0-0.6,0.2-0.9,0.5s-0.4,0.7-0.4,1.2v2.8h-1.1v-5.4H245.2z"/>
		<path id="XMLID_203_" d="M253.7,68.1v1.1c-0.5,0.2-1.1,0.3-1.6,0.3c-0.8,0-1.5-0.3-2-0.8s-0.8-1.2-0.8-2c0-0.8,0.2-1.5,0.7-2.1
			s1.1-0.8,1.9-0.8c0.3,0,0.5,0,0.7,0.1s0.5,0.2,0.8,0.3v1.1c-0.5-0.3-1-0.5-1.5-0.5c-0.5,0-0.9,0.2-1.2,0.5s-0.5,0.8-0.5,1.3
			c0,0.6,0.2,1,0.5,1.3s0.8,0.5,1.4,0.5C252.7,68.4,253.2,68.3,253.7,68.1z"/>
		<path id="XMLID_205_" d="M255.6,63.9h4.6l-2.9,4.4h2.9v1h-4.7l2.8-4.4h-2.7V63.9z"/>
		<path id="XMLID_207_" d="M265.7,66.1v2.3c0,0.2,0.1,0.3,0.2,0.3c0.1,0,0.3-0.1,0.6-0.3V69c-0.2,0.2-0.4,0.3-0.6,0.3
			s-0.3,0.1-0.5,0.1c-0.5,0-0.7-0.2-0.8-0.5c-0.5,0.4-0.9,0.5-1.4,0.5c-0.4,0-0.7-0.1-0.9-0.4s-0.4-0.6-0.4-0.9
			c0-0.3,0.1-0.6,0.4-0.9s0.6-0.5,1-0.6l1.4-0.5v-0.3c0-0.6-0.3-1-1-1c-0.6,0-1.1,0.3-1.7,0.9v-1.2c0.4-0.5,1-0.7,1.8-0.7
			c0.6,0,1,0.2,1.4,0.5c0.1,0.1,0.2,0.2,0.3,0.4s0.2,0.3,0.2,0.5S265.7,65.6,265.7,66.1z M264.7,68.3v-1.6l-0.7,0.3
			c-0.4,0.1-0.6,0.3-0.8,0.4s-0.2,0.3-0.2,0.5c0,0.2,0.1,0.4,0.2,0.5s0.3,0.2,0.6,0.2C264.1,68.7,264.4,68.5,264.7,68.3z"/>
	</g>
	<g id="XMLID_8_">
		<path id="XMLID_110_" d="M490.7,206.1V198h2.8c1.1,0,2,0.2,2.6,0.5s1.2,0.8,1.5,1.5s0.6,1.4,0.6,2.1c0,0.5-0.1,1.1-0.3,1.6
			s-0.5,0.9-0.9,1.3c-0.4,0.4-0.9,0.7-1.4,0.9c-0.3,0.1-0.6,0.2-0.8,0.2s-0.8,0.1-1.5,0.1H490.7z M493.4,199h-1.5v6.1h1.5
			c0.6,0,1,0,1.4-0.1s0.6-0.2,0.8-0.3s0.4-0.3,0.6-0.5c0.6-0.6,0.9-1.3,0.9-2.2c0-0.9-0.3-1.6-0.9-2.2c-0.2-0.2-0.5-0.4-0.8-0.5
			s-0.6-0.2-0.8-0.3S493.9,199,493.4,199z"/>
		<path id="XMLID_113_" d="M504.1,200.8h1.2l-3.8,8.1h-1.2l1.8-3.9l-2.1-4.2h1.2l1.5,3L504.1,200.8z"/>
		<path id="XMLID_116_" d="M507,205.8v-1.1c0.3,0.2,0.6,0.4,0.9,0.5s0.6,0.2,0.8,0.2c0.2,0,0.4-0.1,0.6-0.2s0.2-0.2,0.2-0.4
			c0-0.2-0.1-0.3-0.2-0.4s-0.3-0.3-0.7-0.4c-0.7-0.4-1.1-0.7-1.4-1s-0.3-0.6-0.3-0.9c0-0.4,0.2-0.8,0.5-1s0.7-0.4,1.2-0.4
			c0.5,0,1.1,0.1,1.6,0.4v1.1c-0.6-0.4-1.2-0.6-1.6-0.6c-0.2,0-0.4,0-0.5,0.1c-0.1,0.1-0.2,0.2-0.2,0.3c0,0.1,0.1,0.2,0.2,0.4
			c0.1,0.1,0.3,0.3,0.6,0.4l0.4,0.2c0.9,0.5,1.3,1.1,1.3,1.7c0,0.4-0.2,0.8-0.5,1.1c-0.3,0.3-0.8,0.4-1.3,0.4c-0.3,0-0.6,0-0.9-0.1
			S507.3,206,507,205.8z"/>
		<path id="XMLID_118_" d="M513,208.9v-8.1h1.9c1,0,1.7,0.2,2.2,0.7s0.8,1.1,0.8,2c0,0.8-0.3,1.5-0.8,2s-1.1,0.8-1.9,0.8
			c-0.3,0-0.7-0.1-1.1-0.2v2.9H513z M514.8,201.8h-0.8v3.3c0.3,0.2,0.7,0.3,1,0.3c0.5,0,0.9-0.2,1.2-0.5s0.5-0.8,0.5-1.3
			c0-0.4-0.1-0.7-0.2-0.9c-0.1-0.3-0.4-0.5-0.6-0.6C515.7,201.8,515.3,201.8,514.8,201.8z"/>
		<path id="XMLID_121_" d="M521.4,200.8v1.2l0.1-0.1c0.5-0.8,1-1.2,1.5-1.2c0.4,0,0.8,0.2,1.3,0.6l-0.6,0.9c-0.4-0.4-0.7-0.5-1-0.5
			c-0.3,0-0.6,0.2-0.9,0.5s-0.4,0.7-0.4,1.2v2.8h-1.1v-5.4H521.4z"/>
		<path id="XMLID_123_" d="M528.5,200.8c0.8,0,1.5,0.3,2,0.8s0.8,1.2,0.8,2c0,0.8-0.3,1.4-0.8,1.9s-1.2,0.8-2.1,0.8
			c-0.8,0-1.5-0.3-2-0.8s-0.8-1.2-0.8-2c0-0.8,0.3-1.4,0.8-2S527.7,200.8,528.5,200.8z M528.4,201.7c-0.5,0-0.9,0.2-1.3,0.5
			s-0.5,0.8-0.5,1.3c0,0.5,0.2,0.9,0.5,1.3s0.8,0.5,1.3,0.5c0.5,0,1-0.2,1.3-0.5s0.5-0.8,0.5-1.3c0-0.5-0.2-0.9-0.5-1.3
			S528.9,201.7,528.4,201.7z"/>
		<path id="XMLID_126_" d="M533.7,208.9v-8.1h1.9c1,0,1.7,0.2,2.2,0.7s0.8,1.1,0.8,2c0,0.8-0.3,1.5-0.8,2s-1.1,0.8-1.9,0.8
			c-0.3,0-0.7-0.1-1.1-0.2v2.9H533.7z M535.5,201.8h-0.8v3.3c0.3,0.2,0.7,0.3,1,0.3c0.5,0,0.9-0.2,1.2-0.5s0.5-0.8,0.5-1.3
			c0-0.4-0.1-0.7-0.2-0.9c-0.1-0.3-0.4-0.5-0.6-0.6C536.4,201.8,536,201.8,535.5,201.8z"/>
		<path id="XMLID_129_" d="M543.5,200.8c0.8,0,1.5,0.3,2,0.8s0.8,1.2,0.8,2c0,0.8-0.3,1.4-0.8,1.9s-1.2,0.8-2.1,0.8
			c-0.8,0-1.5-0.3-2-0.8s-0.8-1.2-0.8-2c0-0.8,0.3-1.4,0.8-2S542.7,200.8,543.5,200.8z M543.4,201.7c-0.5,0-0.9,0.2-1.3,0.5
			s-0.5,0.8-0.5,1.3c0,0.5,0.2,0.9,0.5,1.3s0.8,0.5,1.3,0.5c0.5,0,1-0.2,1.3-0.5s0.5-0.8,0.5-1.3c0-0.5-0.2-0.9-0.5-1.3
			S544,201.7,543.4,201.7z"/>
		<path id="XMLID_132_" d="M549.9,200.8v1.2l0.1-0.1c0.5-0.8,1-1.2,1.5-1.2c0.4,0,0.8,0.2,1.3,0.6l-0.6,0.9c-0.4-0.4-0.7-0.5-1-0.5
			c-0.3,0-0.6,0.2-0.9,0.5s-0.4,0.7-0.4,1.2v2.8h-1.1v-5.4H549.9z"/>
		<path id="XMLID_134_" d="M558.4,204.9v1.1c-0.5,0.2-1.1,0.3-1.6,0.3c-0.8,0-1.5-0.3-2-0.8s-0.8-1.2-0.8-2c0-0.8,0.2-1.5,0.7-2.1
			s1.1-0.8,1.9-0.8c0.3,0,0.5,0,0.7,0.1s0.5,0.2,0.8,0.3v1.1c-0.5-0.3-1-0.5-1.5-0.5c-0.5,0-0.9,0.2-1.2,0.5s-0.5,0.8-0.5,1.3
			c0,0.6,0.2,1,0.5,1.3s0.8,0.5,1.4,0.5C557.4,205.3,557.9,205.1,558.4,204.9z"/>
		<path id="XMLID_144_" d="M560.8,200.8h1.1v6.2c0,0.9-0.4,1.6-1.1,2l-0.8-0.8c0.2-0.1,0.4-0.2,0.6-0.5s0.2-0.5,0.2-0.8V200.8z
			 M561.3,198.5c0.2,0,0.3,0.1,0.5,0.2s0.2,0.3,0.2,0.4c0,0.2-0.1,0.3-0.2,0.5s-0.3,0.2-0.4,0.2c-0.2,0-0.3-0.1-0.4-0.2
			s-0.2-0.3-0.2-0.4c0-0.2,0.1-0.3,0.2-0.4S561.2,198.5,561.3,198.5z"/>
		<path id="XMLID_154_" d="M567.3,200.8c0.8,0,1.5,0.3,2,0.8s0.8,1.2,0.8,2c0,0.8-0.3,1.4-0.8,1.9s-1.2,0.8-2.1,0.8
			c-0.8,0-1.5-0.3-2-0.8s-0.8-1.2-0.8-2c0-0.8,0.3-1.4,0.8-2S566.4,200.8,567.3,200.8z M567.2,201.7c-0.5,0-0.9,0.2-1.3,0.5
			s-0.5,0.8-0.5,1.3c0,0.5,0.2,0.9,0.5,1.3s0.8,0.5,1.3,0.5c0.5,0,1-0.2,1.3-0.5s0.5-0.8,0.5-1.3c0-0.5-0.2-0.9-0.5-1.3
			S567.7,201.7,567.2,201.7z"/>
		<path id="XMLID_157_" d="M573.6,200.8v0.7c0.5-0.5,1-0.8,1.6-0.8c0.3,0,0.6,0.1,0.9,0.3s0.5,0.4,0.7,0.7s0.2,0.8,0.2,1.4v3.1h-1.1
			v-3.1c0-0.6-0.1-0.9-0.3-1.2s-0.4-0.4-0.8-0.4c-0.5,0-0.9,0.3-1.3,0.8v3.8h-1.1v-5.4H573.6z"/>
		<path id="XMLID_159_" d="M583.1,202.9v2.3c0,0.2,0.1,0.3,0.2,0.3c0.1,0,0.3-0.1,0.6-0.3v0.7c-0.2,0.2-0.4,0.3-0.6,0.3
			s-0.3,0.1-0.5,0.1c-0.5,0-0.7-0.2-0.8-0.5c-0.5,0.4-0.9,0.5-1.4,0.5c-0.4,0-0.7-0.1-0.9-0.4s-0.4-0.6-0.4-0.9
			c0-0.3,0.1-0.6,0.4-0.9s0.6-0.5,1-0.6l1.4-0.5v-0.3c0-0.6-0.3-1-1-1c-0.6,0-1.1,0.3-1.7,0.9v-1.2c0.4-0.5,1-0.7,1.8-0.7
			c0.6,0,1,0.2,1.4,0.5c0.1,0.1,0.2,0.2,0.3,0.4s0.2,0.3,0.2,0.5S583.1,202.5,583.1,202.9z M582,205.1v-1.6l-0.7,0.3
			c-0.4,0.1-0.6,0.3-0.8,0.4s-0.2,0.3-0.2,0.5c0,0.2,0.1,0.4,0.2,0.5s0.3,0.2,0.6,0.2C581.4,205.5,581.8,205.4,582,205.1z"/>
		<path id="XMLID_162_" d="M586,198h1.1v8.2H586V198z"/>
		<path id="XMLID_164_" d="M590.9,200.8v0.7c0.5-0.5,1-0.8,1.6-0.8c0.3,0,0.6,0.1,0.9,0.3s0.5,0.4,0.7,0.7s0.2,0.8,0.2,1.4v3.1h-1.1
			v-3.1c0-0.6-0.1-0.9-0.3-1.2s-0.4-0.4-0.8-0.4c-0.5,0-0.9,0.3-1.3,0.8v3.8h-1.1v-5.4H590.9z"/>
		<path id="XMLID_166_" d="M599.6,200.8c0.8,0,1.5,0.3,2,0.8s0.8,1.2,0.8,2c0,0.8-0.3,1.4-0.8,1.9s-1.2,0.8-2.1,0.8
			c-0.8,0-1.5-0.3-2-0.8s-0.8-1.2-0.8-2c0-0.8,0.3-1.4,0.8-2S598.8,200.8,599.6,200.8z M599.6,201.7c-0.5,0-0.9,0.2-1.3,0.5
			s-0.5,0.8-0.5,1.3c0,0.5,0.2,0.9,0.5,1.3s0.8,0.5,1.3,0.5c0.5,0,1-0.2,1.3-0.5s0.5-0.8,0.5-1.3c0-0.5-0.2-0.9-0.5-1.3
			S600.1,201.7,599.6,201.7z"/>
		<path id="XMLID_169_" d="M604.6,205.8v-1.1c0.3,0.2,0.6,0.4,0.9,0.5s0.6,0.2,0.8,0.2c0.2,0,0.4-0.1,0.6-0.2s0.2-0.2,0.2-0.4
			c0-0.2-0.1-0.3-0.2-0.4s-0.3-0.3-0.7-0.4c-0.7-0.4-1.1-0.7-1.4-1s-0.3-0.6-0.3-0.9c0-0.4,0.2-0.8,0.5-1s0.7-0.4,1.2-0.4
			c0.5,0,1.1,0.1,1.6,0.4v1.1c-0.6-0.4-1.2-0.6-1.6-0.6c-0.2,0-0.4,0-0.5,0.1c-0.1,0.1-0.2,0.2-0.2,0.3c0,0.1,0.1,0.2,0.2,0.4
			c0.1,0.1,0.3,0.3,0.6,0.4l0.4,0.2c0.9,0.5,1.3,1.1,1.3,1.7c0,0.4-0.2,0.8-0.5,1.1c-0.3,0.3-0.8,0.4-1.3,0.4c-0.3,0-0.6,0-0.9-0.1
			S605,206,604.6,205.8z M607.8,197.8l-1.3,1.8h-0.7l0.8-1.8H607.8z"/>
		<path id="XMLID_172_" d="M614.7,204.9v1.1c-0.5,0.2-1.1,0.3-1.6,0.3c-0.8,0-1.5-0.3-2-0.8s-0.8-1.2-0.8-2c0-0.8,0.2-1.5,0.7-2.1
			s1.1-0.8,1.9-0.8c0.3,0,0.5,0,0.7,0.1s0.5,0.2,0.8,0.3v1.1c-0.5-0.3-1-0.5-1.5-0.5c-0.5,0-0.9,0.2-1.2,0.5s-0.5,0.8-0.5,1.3
			c0,0.6,0.2,1,0.5,1.3s0.8,0.5,1.4,0.5C613.7,205.3,614.2,205.1,614.7,204.9z M614.2,197.8l-1.3,1.8h-0.7l0.8-1.8H614.2z"/>
	</g>
	<g id="XMLID_10_">
		<path id="XMLID_57_" d="M46.4,198h1.2l-3.3,8.2H44l-2.7-6.7l-2.7,6.7h-0.3L35,198h1.2l2.3,5.6l2.3-5.6h1.1l2.3,5.6L46.4,198z"/>
		<path id="XMLID_59_" d="M50,198.5c0.2,0,0.3,0.1,0.5,0.2s0.2,0.3,0.2,0.4c0,0.2-0.1,0.3-0.2,0.4s-0.3,0.2-0.5,0.2
			c-0.2,0-0.3-0.1-0.4-0.2s-0.2-0.3-0.2-0.4c0-0.2,0.1-0.3,0.2-0.4S49.9,198.5,50,198.5z M49.5,200.8h1.1v5.4h-1.1V200.8z"/>
		<path id="XMLID_62_" d="M57.9,203.6h-3.8c0,0.5,0.2,0.9,0.5,1.2s0.7,0.5,1.2,0.5c0.7,0,1.4-0.2,1.9-0.7v1c-0.3,0.2-0.7,0.4-1,0.5
			s-0.7,0.1-1.1,0.1c-0.6,0-1.1-0.1-1.4-0.4s-0.7-0.6-0.9-1s-0.3-0.9-0.3-1.4c0-0.8,0.2-1.5,0.7-2s1.1-0.8,1.8-0.8
			c0.7,0,1.3,0.3,1.7,0.8s0.6,1.2,0.6,2V203.6z M54.1,202.9h2.7c0-0.4-0.2-0.8-0.4-1s-0.5-0.3-0.9-0.3s-0.7,0.1-0.9,0.3
			S54.2,202.5,54.1,202.9z"/>
		<path id="XMLID_65_" d="M60.3,198h1.1v8.2h-1.1V198z"/>
		<path id="XMLID_67_" d="M64.1,198h1.1v8.2h-1.1V198z M67.6,200.8h1.3l-2.3,2.6l2.8,2.8h-1.4l-2.7-2.8L67.6,200.8z"/>
		<path id="XMLID_70_" d="M73.3,200.8c0.8,0,1.5,0.3,2,0.8s0.8,1.2,0.8,2c0,0.8-0.3,1.4-0.8,1.9s-1.2,0.8-2.1,0.8
			c-0.8,0-1.5-0.3-2-0.8s-0.8-1.2-0.8-2c0-0.8,0.3-1.4,0.8-2S72.4,200.8,73.3,200.8z M73.2,201.7c-0.5,0-0.9,0.2-1.3,0.5
			s-0.5,0.8-0.5,1.3c0,0.5,0.2,0.9,0.5,1.3s0.8,0.5,1.3,0.5c0.5,0,1-0.2,1.3-0.5s0.5-0.8,0.5-1.3c0-0.5-0.2-0.9-0.5-1.3
			S73.7,201.7,73.2,201.7z"/>
		<path id="XMLID_73_" d="M78.2,205.8v-1.1c0.3,0.2,0.6,0.4,0.9,0.5s0.6,0.2,0.8,0.2c0.2,0,0.4-0.1,0.6-0.2s0.2-0.2,0.2-0.4
			c0-0.2-0.1-0.3-0.2-0.4s-0.3-0.3-0.7-0.4c-0.7-0.4-1.1-0.7-1.4-1s-0.3-0.6-0.3-0.9c0-0.4,0.2-0.8,0.5-1s0.7-0.4,1.2-0.4
			c0.5,0,1.1,0.1,1.6,0.4v1.1c-0.6-0.4-1.2-0.6-1.6-0.6c-0.2,0-0.4,0-0.5,0.1c-0.1,0.1-0.2,0.2-0.2,0.3c0,0.1,0.1,0.2,0.2,0.4
			c0.1,0.1,0.3,0.3,0.6,0.4l0.4,0.2c0.9,0.5,1.3,1.1,1.3,1.7c0,0.4-0.2,0.8-0.5,1.1c-0.3,0.3-0.8,0.4-1.3,0.4c-0.3,0-0.6,0-0.9-0.1
			S78.6,206,78.2,205.8z M81.4,197.8l-1.3,1.8h-0.7l0.8-1.8H81.4z"/>
		<path id="XMLID_76_" d="M88.4,204.9v1.1c-0.5,0.2-1.1,0.3-1.6,0.3c-0.8,0-1.5-0.3-2-0.8s-0.8-1.2-0.8-2c0-0.8,0.2-1.5,0.7-2.1
			s1.1-0.8,1.9-0.8c0.3,0,0.5,0,0.7,0.1s0.5,0.2,0.8,0.3v1.1c-0.5-0.3-1-0.5-1.5-0.5c-0.5,0-0.9,0.2-1.2,0.5s-0.5,0.8-0.5,1.3
			c0,0.6,0.2,1,0.5,1.3s0.8,0.5,1.4,0.5C87.4,205.3,87.8,205.1,88.4,204.9z M87.8,197.8l-1.3,1.8h-0.7l0.8-1.8H87.8z"/>
		<path id="XMLID_79_" d="M97.9,200.8c0.8,0,1.5,0.3,2,0.8s0.8,1.2,0.8,2c0,0.8-0.3,1.4-0.8,1.9s-1.2,0.8-2.1,0.8
			c-0.8,0-1.5-0.3-2-0.8s-0.8-1.2-0.8-2c0-0.8,0.3-1.4,0.8-2S97.1,200.8,97.9,200.8z M97.8,201.7c-0.5,0-0.9,0.2-1.3,0.5
			s-0.5,0.8-0.5,1.3c0,0.5,0.2,0.9,0.5,1.3s0.8,0.5,1.3,0.5c0.5,0,1-0.2,1.3-0.5s0.5-0.8,0.5-1.3c0-0.5-0.2-0.9-0.5-1.3
			S98.4,201.7,97.8,201.7z"/>
		<path id="XMLID_82_" d="M103.1,198h1.1v8.2h-1.1V198z M106.6,200.8h1.3l-2.3,2.6l2.8,2.8H107l-2.7-2.8L106.6,200.8z"/>
		<path id="XMLID_85_" d="M111.2,200.8v1.2l0.1-0.1c0.5-0.8,1-1.2,1.5-1.2c0.4,0,0.8,0.2,1.3,0.6l-0.6,0.9c-0.4-0.4-0.7-0.5-1-0.5
			c-0.3,0-0.6,0.2-0.9,0.5s-0.4,0.7-0.4,1.2v2.8h-1.1v-5.4H111.2z"/>
		<path id="XMLID_87_" d="M120.5,207.3v0.8c-0.3,0.1-0.5,0.2-0.8,0.2c-0.4,0-0.7-0.1-0.9-0.3s-0.4-0.5-0.4-0.8
			c0-0.3,0.1-0.6,0.4-0.9c0,0-0.1,0-0.2,0h-0.2c-0.8,0-1.4-0.3-1.9-0.8s-0.7-1.2-0.7-2c0-0.8,0.2-1.5,0.7-2s1.1-0.8,1.8-0.8
			c0.7,0,1.3,0.3,1.7,0.8s0.6,1.2,0.6,2v0.1h-3.8c0,0.5,0.2,0.9,0.5,1.2s0.7,0.5,1.2,0.5c0.7,0,1.4-0.2,1.9-0.7v1
			c-0.1,0.1-0.4,0.2-0.8,0.4c-0.3,0.3-0.4,0.6-0.4,0.8c0,0.2,0.1,0.3,0.2,0.4s0.3,0.2,0.4,0.2C120.1,207.4,120.3,207.4,120.5,207.3z
			 M116.9,202.9h2.7c-0.1-0.9-0.5-1.3-1.3-1.3C117.5,201.6,117,202,116.9,202.9z"/>
		<path id="XMLID_93_" d="M122.7,202.6c0-0.6,0.2-1,0.6-1.4s1-0.5,1.7-0.5h2.2v0.8h-1.1c0.2,0.2,0.4,0.4,0.4,0.6s0.1,0.4,0.1,0.6
			c0,0.3-0.1,0.6-0.2,0.8s-0.4,0.5-0.6,0.6s-0.7,0.3-1.2,0.3c-0.4,0.1-0.6,0.2-0.6,0.4c0,0.1,0.1,0.2,0.2,0.3s0.4,0.2,0.8,0.2
			c0.7,0.1,1.1,0.3,1.3,0.3s0.4,0.2,0.5,0.4c0.3,0.3,0.4,0.6,0.4,1c0,0.5-0.2,0.9-0.7,1.2s-1.1,0.5-1.8,0.5c-0.8,0-1.4-0.2-1.8-0.5
			s-0.7-0.7-0.7-1.2c0-0.7,0.5-1.2,1.4-1.4c-0.4-0.2-0.5-0.5-0.5-0.7c0-0.2,0.1-0.3,0.2-0.5s0.4-0.2,0.6-0.3
			C123.1,204,122.7,203.4,122.7,202.6z M124.5,206.4c-0.4,0-0.7,0.1-0.9,0.2s-0.3,0.3-0.3,0.6c0,0.6,0.5,0.8,1.5,0.8
			c0.5,0,0.8-0.1,1.1-0.2s0.4-0.3,0.4-0.6c0-0.3-0.2-0.5-0.5-0.6S125,206.4,124.5,206.4z M124.7,201.7c-0.3,0-0.5,0.1-0.7,0.3
			s-0.3,0.4-0.3,0.7c0,0.3,0.1,0.5,0.3,0.7s0.5,0.3,0.8,0.3c0.3,0,0.6-0.1,0.8-0.3s0.3-0.4,0.3-0.7c0-0.3-0.1-0.5-0.3-0.7
			S125,201.7,124.7,201.7z"/>
		<path id="XMLID_97_" d="M132.7,206.2v-0.7c-0.2,0.2-0.5,0.4-0.8,0.6s-0.6,0.2-0.9,0.2c-0.3,0-0.7-0.1-0.9-0.3s-0.5-0.4-0.7-0.7
			s-0.2-0.8-0.2-1.5v-3.1h1.1v3.1c0,0.6,0.1,1,0.2,1.2s0.4,0.3,0.9,0.3c0.5,0,0.9-0.2,1.3-0.7v-3.8h1.1v5.4H132.7z"/>
	</g>
</g>
<g id="Warstwa_5">
	<g id="XMLID_98_">
		<g id="XMLID_106_">
			<line id="XMLID_109_" class="st0" x1="239.3" y1="222.6" x2="239.3" y2="277.8"/>
			<g id="XMLID_107_">
				<polygon id="XMLID_108_" points="234.3,224.1 239.3,215.4 244.3,224.1 				"/>
			</g>
		</g>
	</g>
	<g id="XMLID_1_">
		<circle id="XMLID_115_" class="st1" cx="239.9" cy="351.5" r="56.7"/>
		<g id="XMLID_2_">
			<path id="XMLID_241_" d="M221.1,340.3h1.5l-3.6,3.9l4.4,4.3h-1.6l-4.2-4v4h-1.2v-8.2h1.2v3.7L221.1,340.3z"/>
			<path id="XMLID_243_" d="M225.4,340.3h1.1v8.2h-1.1V340.3z"/>
			<path id="XMLID_245_" d="M232.6,345.3v2.3c0,0.2,0.1,0.3,0.2,0.3c0.1,0,0.3-0.1,0.6-0.3v0.7c-0.2,0.2-0.4,0.3-0.6,0.3
				s-0.3,0.1-0.5,0.1c-0.5,0-0.7-0.2-0.8-0.5c-0.5,0.4-0.9,0.5-1.4,0.5c-0.4,0-0.7-0.1-0.9-0.4s-0.4-0.6-0.4-0.9
				c0-0.3,0.1-0.6,0.4-0.9s0.6-0.5,1-0.6l1.4-0.5V345c0-0.6-0.3-1-1-1c-0.6,0-1.1,0.3-1.7,0.9v-1.2c0.4-0.5,1-0.7,1.8-0.7
				c0.6,0,1,0.2,1.4,0.5c0.1,0.1,0.2,0.2,0.3,0.4s0.2,0.3,0.2,0.5S232.6,344.8,232.6,345.3z M231.5,347.5v-1.6l-0.7,0.3
				c-0.4,0.1-0.6,0.3-0.8,0.4s-0.2,0.3-0.2,0.5c0,0.2,0.1,0.4,0.2,0.5s0.3,0.2,0.6,0.2C230.9,347.9,231.2,347.7,231.5,347.5z"/>
			<path id="XMLID_248_" d="M239,348.5v-0.7c-0.2,0.2-0.5,0.4-0.8,0.6s-0.6,0.2-0.9,0.2c-0.3,0-0.7-0.1-0.9-0.3s-0.5-0.4-0.7-0.7
				s-0.2-0.8-0.2-1.5v-3.1h1.1v3.1c0,0.6,0.1,1,0.2,1.2c0.2,0.2,0.4,0.3,0.9,0.3c0.5,0,0.9-0.2,1.3-0.7v-3.8h1.1v5.4H239z"/>
			<path id="XMLID_250_" d="M242.2,343.1h4.6l-2.9,4.4h2.9v1h-4.7l2.8-4.4h-2.7V343.1z"/>
			<path id="XMLID_252_" d="M252.4,348.5v-0.7c-0.2,0.2-0.5,0.4-0.8,0.6s-0.6,0.2-0.9,0.2c-0.3,0-0.7-0.1-0.9-0.3s-0.5-0.4-0.7-0.7
				s-0.2-0.8-0.2-1.5v-3.1h1.1v3.1c0,0.6,0.1,1,0.2,1.2c0.2,0.2,0.4,0.3,0.9,0.3c0.5,0,0.9-0.2,1.3-0.7v-3.8h1.1v5.4H252.4z"/>
			<path id="XMLID_254_" d="M256.1,340.3h1.1v8.2h-1.1V340.3z"/>
			<path id="XMLID_256_" d="M263.3,345.3v2.3c0,0.2,0.1,0.3,0.2,0.3c0.1,0,0.3-0.1,0.6-0.3v0.7c-0.2,0.2-0.4,0.3-0.6,0.3
				s-0.3,0.1-0.5,0.1c-0.5,0-0.7-0.2-0.8-0.5c-0.5,0.4-0.9,0.5-1.4,0.5c-0.4,0-0.7-0.1-0.9-0.4s-0.4-0.6-0.4-0.9
				c0-0.3,0.1-0.6,0.4-0.9s0.6-0.5,1-0.6l1.4-0.5V345c0-0.6-0.3-1-1-1c-0.6,0-1.1,0.3-1.7,0.9v-1.2c0.4-0.5,1-0.7,1.8-0.7
				c0.6,0,1,0.2,1.4,0.5c0.1,0.1,0.2,0.2,0.3,0.4s0.2,0.3,0.2,0.5S263.3,344.8,263.3,345.3z M262.3,347.5v-1.6l-0.7,0.3
				c-0.4,0.1-0.6,0.3-0.8,0.4s-0.2,0.3-0.2,0.5c0,0.2,0.1,0.4,0.2,0.5s0.3,0.2,0.6,0.2C261.7,347.9,262,347.7,262.3,347.5z"/>
			<path id="XMLID_259_" d="M212.3,357.5h4.6l-2.9,4.4h2.9v1h-4.7l2.8-4.4h-2.7V357.5z"/>
			<path id="XMLID_261_" d="M222.4,359.7v2.3c0,0.2,0.1,0.3,0.2,0.3c0.1,0,0.3-0.1,0.6-0.3v0.7c-0.2,0.2-0.4,0.3-0.6,0.3
				s-0.3,0.1-0.5,0.1c-0.5,0-0.7-0.2-0.8-0.5c-0.5,0.4-0.9,0.5-1.4,0.5c-0.4,0-0.7-0.1-0.9-0.4s-0.4-0.6-0.4-0.9
				c0-0.3,0.1-0.6,0.4-0.9s0.6-0.5,1-0.6l1.4-0.5v-0.3c0-0.6-0.3-1-1-1c-0.6,0-1.1,0.3-1.7,0.9v-1.2c0.4-0.5,1-0.7,1.8-0.7
				c0.6,0,1,0.2,1.4,0.5c0.1,0.1,0.2,0.2,0.3,0.4s0.2,0.3,0.2,0.5S222.4,359.2,222.4,359.7z M221.4,361.9v-1.6l-0.7,0.3
				c-0.4,0.1-0.6,0.3-0.8,0.4s-0.2,0.3-0.2,0.5c0,0.2,0.1,0.4,0.2,0.5s0.3,0.2,0.6,0.2C220.8,362.3,221.1,362.1,221.4,361.9z"/>
			<path id="XMLID_264_" d="M225.2,365.7v-8.1h1.9c1,0,1.7,0.2,2.2,0.7s0.8,1.1,0.8,2c0,0.8-0.3,1.5-0.8,2c-0.5,0.5-1.1,0.8-1.9,0.8
				c-0.3,0-0.7-0.1-1.1-0.2v2.9H225.2z M227,358.5h-0.8v3.3c0.3,0.2,0.7,0.3,1,0.3c0.5,0,0.9-0.2,1.2-0.5s0.5-0.8,0.5-1.3
				c0-0.4-0.1-0.7-0.2-0.9s-0.4-0.5-0.6-0.6S227.5,358.5,227,358.5z"/>
			<path id="XMLID_267_" d="M235,357.5c0.8,0,1.5,0.3,2,0.8s0.8,1.2,0.8,2c0,0.8-0.3,1.4-0.8,1.9s-1.2,0.8-2.1,0.8
				c-0.8,0-1.5-0.3-2-0.8s-0.8-1.2-0.8-2c0-0.8,0.3-1.4,0.8-2S234.2,357.5,235,357.5z M234.9,358.5c-0.5,0-0.9,0.2-1.3,0.5
				s-0.5,0.8-0.5,1.3c0,0.5,0.2,0.9,0.5,1.3s0.8,0.5,1.3,0.5c0.5,0,1-0.2,1.3-0.5s0.5-0.8,0.5-1.3c0-0.5-0.2-0.9-0.5-1.3
				S235.5,358.5,234.9,358.5z"/>
			<path id="XMLID_270_" d="M241.4,357.5v1.2l0.1-0.1c0.5-0.8,1-1.2,1.5-1.2c0.4,0,0.8,0.2,1.3,0.6l-0.6,0.9c-0.4-0.4-0.7-0.5-1-0.5
				c-0.3,0-0.6,0.2-0.9,0.5s-0.4,0.7-0.4,1.2v2.8h-1.1v-5.4H241.4z"/>
			<path id="XMLID_272_" d="M248.5,357.5c0.8,0,1.5,0.3,2,0.8s0.8,1.2,0.8,2c0,0.8-0.3,1.4-0.8,1.9s-1.2,0.8-2.1,0.8
				c-0.8,0-1.5-0.3-2-0.8s-0.8-1.2-0.8-2c0-0.8,0.3-1.4,0.8-2S247.6,357.5,248.5,357.5z M248.4,358.5c-0.5,0-0.9,0.2-1.3,0.5
				s-0.5,0.8-0.5,1.3c0,0.5,0.2,0.9,0.5,1.3s0.8,0.5,1.3,0.5c0.5,0,1-0.2,1.3-0.5s0.5-0.8,0.5-1.3c0-0.5-0.2-0.9-0.5-1.3
				S248.9,358.5,248.4,358.5z"/>
			<path id="XMLID_275_" d="M260.3,357.5h1.1l-2.4,5.5h-0.3l-1.6-3.8l-1.6,3.8h-0.3l-2.4-5.5h1.1l1.4,3.3l1.4-3.3h0.8l1.4,3.3
				L260.3,357.5z"/>
			<path id="XMLID_277_" d="M266.8,359.7v2.3c0,0.2,0.1,0.3,0.2,0.3c0.1,0,0.3-0.1,0.6-0.3v0.7c-0.2,0.2-0.4,0.3-0.6,0.3
				s-0.3,0.1-0.5,0.1c-0.5,0-0.7-0.2-0.8-0.5c-0.5,0.4-0.9,0.5-1.4,0.5c-0.4,0-0.7-0.1-0.9-0.4s-0.4-0.6-0.4-0.9
				c0-0.3,0.1-0.6,0.4-0.9s0.6-0.5,1-0.6l1.4-0.5v-0.3c0-0.6-0.3-1-1-1c-0.6,0-1.1,0.3-1.7,0.9v-1.2c0.4-0.5,1-0.7,1.8-0.7
				c0.6,0,1,0.2,1.4,0.5c0.1,0.1,0.2,0.2,0.3,0.4s0.2,0.3,0.2,0.5S266.8,359.2,266.8,359.7z M265.8,361.9v-1.6l-0.7,0.3
				c-0.4,0.1-0.6,0.3-0.8,0.4s-0.2,0.3-0.2,0.5c0,0.2,0.1,0.4,0.2,0.5s0.3,0.2,0.6,0.2C265.2,362.3,265.5,362.1,265.8,361.9z"/>
		</g>
	</g>
</g>
<g id="Warstwa_6">
	<g id="XMLID_29_">
		<g id="XMLID_36_">
			<line id="XMLID_49_" class="st0" x1="481.8" y1="57.8" x2="529.8" y2="57.8"/>
			<g id="XMLID_47_">
				<polygon id="XMLID_48_" points="483.2,62.8 474.6,57.8 483.2,52.8 				"/>
			</g>
			<g id="XMLID_37_">
				<polygon id="XMLID_41_" points="528.3,62.8 537,57.8 528.3,52.8 				"/>
			</g>
		</g>
	</g>
	<circle id="XMLID_28_" class="st1" cx="610.6" cy="57.2" r="56.7"/>
	<g id="XMLID_24_">
		<path id="XMLID_280_" d="M588.3,54.3v-8.2h2.1c0.8,0,1.5,0.2,2,0.6s0.7,1,0.7,1.7c0,0.5-0.1,0.9-0.4,1.2s-0.6,0.6-1,0.8
			c0.3,0.2,0.5,0.4,0.8,0.7s0.6,0.8,1.1,1.6c0.3,0.5,0.5,0.8,0.7,1l0.4,0.6h-1.4l-0.4-0.5c0,0,0-0.1-0.1-0.1l-0.2-0.3l-0.4-0.6
			l-0.4-0.6c-0.2-0.3-0.5-0.6-0.7-0.8s-0.4-0.3-0.5-0.4c-0.2-0.1-0.4-0.1-0.8-0.1h-0.3v3.6H588.3z M589.8,47.1h-0.4v2.6h0.4
			c0.6,0,1-0.1,1.2-0.2s0.4-0.3,0.5-0.5s0.2-0.4,0.2-0.7c0-0.3-0.1-0.5-0.2-0.7s-0.3-0.4-0.6-0.4S590.4,47.1,589.8,47.1z"/>
		<path id="XMLID_283_" d="M599.1,48.9c0.8,0,1.5,0.3,2,0.8s0.8,1.2,0.8,2c0,0.8-0.3,1.4-0.8,1.9s-1.2,0.8-2.1,0.8
			c-0.8,0-1.5-0.3-2-0.8s-0.8-1.2-0.8-2c0-0.8,0.3-1.4,0.8-2S598.3,48.9,599.1,48.9z M599.1,49.9c-0.5,0-0.9,0.2-1.3,0.5
			s-0.5,0.8-0.5,1.3c0,0.5,0.2,0.9,0.5,1.3s0.8,0.5,1.3,0.5c0.5,0,1-0.2,1.3-0.5s0.5-0.8,0.5-1.3c0-0.5-0.2-0.9-0.5-1.3
			S599.6,49.9,599.1,49.9z"/>
		<path id="XMLID_286_" d="M603.9,48.9h4.6l-2.9,4.4h2.9v1h-4.7l2.8-4.4h-2.7V48.9z"/>
		<path id="XMLID_288_" d="M610.6,46.1h1.1v8.2h-1.1V46.1z M614.1,48.9h1.3l-2.3,2.6l2.8,2.8h-1.4l-2.7-2.8L614.1,48.9z"/>
		<path id="XMLID_291_" d="M617.6,46.1h1.1v3.2l1-0.8v0.9l-1,0.8v4.1h-1.1v-3.2l-0.9,0.7v-0.9l0.9-0.8V46.1z"/>
		<path id="XMLID_293_" d="M624.7,51.1v2.3c0,0.2,0.1,0.3,0.2,0.3c0.1,0,0.3-0.1,0.6-0.3V54c-0.2,0.2-0.4,0.3-0.6,0.3
			s-0.3,0.1-0.5,0.1c-0.5,0-0.7-0.2-0.8-0.5c-0.5,0.4-0.9,0.5-1.4,0.5c-0.4,0-0.7-0.1-0.9-0.4s-0.4-0.6-0.4-0.9
			c0-0.3,0.1-0.6,0.4-0.9s0.6-0.5,1-0.6l1.4-0.5v-0.3c0-0.6-0.3-1-1-1c-0.6,0-1.1,0.3-1.7,0.9v-1.2c0.4-0.5,1-0.7,1.8-0.7
			c0.6,0,1,0.2,1.4,0.5c0.1,0.1,0.2,0.2,0.3,0.4s0.2,0.3,0.2,0.5S624.7,50.6,624.7,51.1z M623.7,53.2v-1.6l-0.7,0.3
			c-0.4,0.1-0.6,0.3-0.8,0.4s-0.2,0.3-0.2,0.5c0,0.2,0.1,0.4,0.2,0.5s0.3,0.2,0.6,0.2C623.1,53.7,623.4,53.5,623.7,53.2z"/>
		<path id="XMLID_296_" d="M631.3,46.1h1.1v8.2h-2.3c-0.8,0-1.4-0.3-1.9-0.8s-0.7-1.2-0.7-2c0-0.8,0.2-1.4,0.7-2s1.1-0.8,1.9-0.8
			c0.4,0,0.8,0.1,1.2,0.2V46.1z M631.3,53.4V50c-0.3-0.2-0.7-0.3-1-0.3c-0.5,0-1,0.2-1.3,0.5s-0.5,0.8-0.5,1.4c0,0.6,0.1,1,0.4,1.3
			c0.2,0.2,0.3,0.3,0.5,0.4s0.5,0.1,1,0.1H631.3z"/>
		<path id="XMLID_299_" d="M590.6,65.2c0-0.6,0.2-1,0.6-1.4s1-0.5,1.7-0.5h2.2v0.8H594c0.2,0.2,0.4,0.4,0.4,0.6s0.1,0.4,0.1,0.6
			c0,0.3-0.1,0.6-0.2,0.8s-0.4,0.5-0.6,0.6s-0.7,0.3-1.2,0.3c-0.4,0.1-0.6,0.2-0.6,0.4c0,0.1,0.1,0.2,0.2,0.3s0.4,0.2,0.8,0.2
			c0.7,0.1,1.1,0.3,1.3,0.3s0.4,0.2,0.5,0.4c0.3,0.3,0.4,0.6,0.4,1c0,0.5-0.2,0.9-0.7,1.2s-1.1,0.5-1.8,0.5c-0.8,0-1.4-0.2-1.8-0.5
			s-0.7-0.7-0.7-1.2c0-0.7,0.5-1.2,1.4-1.4c-0.4-0.2-0.5-0.5-0.5-0.7c0-0.2,0.1-0.3,0.2-0.5s0.4-0.2,0.6-0.3
			C590.9,66.5,590.6,66,590.6,65.2z M592.3,69c-0.4,0-0.7,0.1-0.9,0.2s-0.3,0.3-0.3,0.6c0,0.6,0.5,0.8,1.5,0.8
			c0.5,0,0.8-0.1,1.1-0.2s0.4-0.3,0.4-0.6c0-0.3-0.2-0.5-0.5-0.6S592.8,69,592.3,69z M592.6,64.2c-0.3,0-0.5,0.1-0.7,0.3
			s-0.3,0.4-0.3,0.7c0,0.3,0.1,0.5,0.3,0.7s0.5,0.3,0.8,0.3c0.3,0,0.6-0.1,0.8-0.3s0.3-0.4,0.3-0.7c0-0.3-0.1-0.5-0.3-0.7
			S592.9,64.2,592.6,64.2z"/>
		<path id="XMLID_303_" d="M597.2,60.5h1.1v3.2l1-0.8v0.9l-1,0.8v4.1h-1.1v-3.2l-0.9,0.7v-0.9l0.9-0.8V60.5z"/>
		<path id="XMLID_305_" d="M603.6,63.3c0.8,0,1.5,0.3,2,0.8s0.8,1.2,0.8,2c0,0.8-0.3,1.4-0.8,1.9s-1.2,0.8-2.1,0.8
			c-0.8,0-1.5-0.3-2-0.8s-0.8-1.2-0.8-2c0-0.8,0.3-1.4,0.8-2S602.7,63.3,603.6,63.3z M603.5,64.3c-0.5,0-0.9,0.2-1.3,0.5
			s-0.5,0.8-0.5,1.3c0,0.5,0.2,0.9,0.5,1.3s0.8,0.5,1.3,0.5c0.5,0,1-0.2,1.3-0.5s0.5-0.8,0.5-1.3c0-0.5-0.2-0.9-0.5-1.3
			S604,64.3,603.5,64.3z"/>
		<path id="XMLID_308_" d="M608.5,68.3v-1.1c0.3,0.2,0.6,0.4,0.9,0.5s0.6,0.2,0.8,0.2c0.2,0,0.4-0.1,0.6-0.2s0.2-0.2,0.2-0.4
			c0-0.2-0.1-0.3-0.2-0.4s-0.3-0.3-0.7-0.4c-0.7-0.4-1.1-0.7-1.4-1s-0.3-0.6-0.3-0.9c0-0.4,0.2-0.8,0.5-1s0.7-0.4,1.2-0.4
			c0.5,0,1.1,0.1,1.6,0.4v1.1c-0.6-0.4-1.2-0.6-1.6-0.6c-0.2,0-0.4,0-0.5,0.1s-0.2,0.2-0.2,0.3c0,0.1,0.1,0.2,0.2,0.4
			s0.3,0.3,0.6,0.4l0.4,0.2c0.9,0.5,1.3,1.1,1.3,1.7c0,0.4-0.2,0.8-0.5,1.1s-0.8,0.4-1.3,0.4c-0.3,0-0.6,0-0.9-0.1
			S608.9,68.5,608.5,68.3z"/>
		<path id="XMLID_310_" d="M617.2,63.3c0.8,0,1.5,0.3,2,0.8s0.8,1.2,0.8,2c0,0.8-0.3,1.4-0.8,1.9s-1.2,0.8-2.1,0.8
			c-0.8,0-1.5-0.3-2-0.8s-0.8-1.2-0.8-2c0-0.8,0.3-1.4,0.8-2S616.4,63.3,617.2,63.3z M617.1,64.3c-0.5,0-0.9,0.2-1.3,0.5
			s-0.5,0.8-0.5,1.3c0,0.5,0.2,0.9,0.5,1.3s0.8,0.5,1.3,0.5c0.5,0,1-0.2,1.3-0.5s0.5-0.8,0.5-1.3c0-0.5-0.2-0.9-0.5-1.3
			S617.7,64.3,617.1,64.3z M618.4,60.4l-1.3,1.8h-0.7l0.8-1.8H618.4z"/>
		<path id="XMLID_314_" d="M629.2,63.3h1.1l-2.4,5.5h-0.3L626,65l-1.6,3.8h-0.3l-2.4-5.5h1.1l1.4,3.3l1.4-3.3h0.8l1.4,3.3
			L629.2,63.3z"/>
	</g>
	<g id="XMLID_5_">
		<g id="XMLID_31_">
			<line id="XMLID_51_" class="st0" x1="610.6" y1="154.4" x2="610.6" y2="129.1"/>
			<g id="XMLID_40_">
				<polygon id="XMLID_50_" points="615.6,152.9 610.6,161.6 605.7,152.9 				"/>
			</g>
			<g id="XMLID_38_">
				<polygon id="XMLID_39_" points="615.6,130.5 610.6,121.9 605.7,130.5 				"/>
			</g>
		</g>
	</g>
	<g id="XMLID_9_">
	</g>
	<g id="XMLID_316_">
	</g>
	<g id="XMLID_317_">
	</g>
	<g id="XMLID_318_">
	</g>
	<g id="XMLID_319_">
	</g>
	<g id="XMLID_320_">
	</g>
	<g id="XMLID_321_">
	</g>
</g>
</svg>
