<?xml version="1.0" encoding="utf-8"?>
<!-- Generator: Adobe Illustrator 19.0.0, SVG Export Plug-In . SVG Version: 6.00 Build 0)  -->
<svg version="1.1" xmlns="http://www.w3.org/2000/svg" xmlns:xlink="http://www.w3.org/1999/xlink" x="0px" y="0px"
	 viewBox="0 0 445.9 356.2" style="enable-background:new 0 0 445.9 356.2;" xml:space="preserve">
<style type="text/css">
	.st0{fill:#FFFFFF;stroke:#000000;stroke-miterlimit:10;}
	.st1{fill:none;stroke:#000000;stroke-miterlimit:10;}
	.st2{fill:#F6F6F6;stroke:#575756;stroke-miterlimit:10;}
	.st3{fill:#575756;}
	.st4{fill:none;stroke:#000000;stroke-miterlimit:10;stroke-dasharray:3.6302,3.6302;}
	.st5{display:none;}
	.st6{display:inline;fill:#EDEDED;stroke:#000000;stroke-miterlimit:10;}
	.st7{display:inline;}
	.st8{display:none;fill:none;stroke:#000000;stroke-miterlimit:10;}
	.st9{fill:none;stroke:#575756;stroke-miterlimit:10;}
	.st10{fill:none;}
</style>
<g id="Warstwa_1">
</g>
<g id="Warstwa_2">
	<rect id="XMLID_1_" x="98.2" y="0.5" class="st0" width="130.4" height="34"/>
	<g id="XMLID_2_">
		<path id="XMLID_515_" d="M117.6,18.8c0.2,0.6,0.7,1.2,1.6,1.2c0.8,0,1.3-0.4,1.3-1.1c0-1.8-3.8-1.4-3.8-4.1c0-1.3,1-2.3,2.5-2.3
			c1.6,0,2.3,1.1,2.5,1.7l-1.1,0.5c-0.2-0.4-0.6-1-1.4-1c-0.7,0-1.2,0.5-1.2,1c0,1.7,3.8,1.4,3.8,4c0,1.4-1,2.5-2.7,2.5
			c-1.7,0-2.5-1.2-2.7-1.9L117.6,18.8z"/>
		<path id="XMLID_517_" d="M124,23.2l0.9-2.3l-2.5-6.2h1.4l1.7,4.6l1.7-4.6h1.4l-3.3,8.4H124z"/>
		<path id="XMLID_519_" d="M129.7,19.3c0.3,0.4,0.7,0.8,1.5,0.8c0.6,0,1-0.3,1-0.8c0-1.2-3-0.8-3-2.9c0-1.1,0.9-1.8,2.1-1.8
			c1.2,0,1.8,0.7,2,1.2l-0.9,0.6c-0.2-0.3-0.5-0.7-1.2-0.7c-0.5,0-0.8,0.3-0.8,0.7c0,1.2,3.1,0.7,3.1,2.9c0,1.2-1,1.9-2.3,1.9
			c-1.3,0-1.9-0.7-2.3-1.2L129.7,19.3z"/>
		<path id="XMLID_521_" d="M134.6,13.5h1.3v1.3h1.3v1.1h-1.3v2.9c0,1,0.4,1.2,1.1,1.2c0.1,0,0.3,0,0.3,0v1.1c0,0-0.2,0-0.6,0
			c-1.5,0-2-1-2-2.6v-2.7h-0.7v-1.1h0.7V13.5z"/>
		<path id="XMLID_523_" d="M140.9,14.6c1.9,0,3,1.3,3,3.3c0,0.1,0,0.2,0,0.3h-4.7c0,1.1,0.8,1.8,1.9,1.8c0.9,0,1.5-0.5,1.7-0.9
			l0.9,0.6c-0.3,0.5-1.1,1.4-2.6,1.4c-2,0-3.3-1.4-3.3-3.3C137.9,16,139.2,14.6,140.9,14.6z M142.6,17.3c0-1-0.8-1.6-1.7-1.6
			s-1.6,0.6-1.7,1.6H142.6z"/>
		<path id="XMLID_526_" d="M153.8,21h-1.3v-3.8c0-1-0.4-1.5-1.2-1.5c-0.7,0-1.3,0.5-1.3,1.5V21h-1.3v-3.9c0-0.9-0.5-1.4-1.2-1.4
			c-0.7,0-1.3,0.6-1.3,1.5V21H145v-6.3h1.3c0,0.5,0,0.8,0,0.8c0.2-0.5,0.8-1,1.7-1c0.9,0,1.5,0.4,1.8,1c0.4-0.7,1.1-1,1.9-1
			c1.4,0,2.1,1,2.1,2.3V21z"/>
		<path id="XMLID_528_" d="M162.4,16.5L161,21h-1.4l-2-6.3h1.4l1.4,4.8c0,0,0,0,1.4-4.8h1.2c1.4,4.8,1.4,4.8,1.4,4.8l1.4-4.8h1.4
			l-2,6.3h-1.5L162.4,16.5z"/>
		<path id="XMLID_530_" d="M169.4,23.2l0.9-2.3l-2.5-6.2h1.4l1.7,4.6l1.7-4.6h1.4l-3.3,8.4H169.4z"/>
		<path id="XMLID_532_" d="M174.8,12.4h1.3v3.3c0.2-0.3,0.8-1,2-1c1.8,0,3,1.4,3,3.3c0,1.9-1.3,3.3-3.1,3.3c-1.2,0-1.8-0.8-2-1V21
			h-1.2V12.4z M177.9,20c1.1,0,1.9-0.8,1.9-2.1c0-1.3-0.8-2.1-1.9-2.1c-1,0-1.9,0.8-1.9,2.1C176,19.1,176.7,20,177.9,20z"/>
		<path id="XMLID_535_" d="M185.1,14.6c1.9,0,3.3,1.4,3.3,3.3c0,1.9-1.4,3.3-3.3,3.3c-1.9,0-3.3-1.4-3.3-3.3S183.2,14.6,185.1,14.6z
			 M185.1,20c1.2,0,2-0.9,2-2.1c0-1.2-0.9-2.1-2-2.1c-1.2,0-2,0.9-2,2.1C183.1,19.1,183.9,20,185.1,20z"/>
		<path id="XMLID_538_" d="M192.5,15.9c-1.4,0-1.8,1-1.8,2.4V21h-1.3v-6.3h1.3v1c0.2-0.6,0.9-1.1,1.8-1.1V15.9z"/>
		<path id="XMLID_540_" d="M198.1,16.5c-0.3-0.3-0.9-0.7-1.7-0.7c-1.2,0-2,0.9-2,2.1c0,1.2,0.9,2.1,2,2.1c0.8,0,1.4-0.5,1.6-0.7
			l0.4,1.1c-0.3,0.3-1,0.8-2.1,0.8c-1.9,0-3.3-1.4-3.3-3.3c0-1.9,1.4-3.3,3.3-3.3c1,0,1.7,0.5,2.1,0.8L198.1,16.5z"/>
		<path id="XMLID_542_" d="M199.2,20.2l3.2-4.3h-3.1v-1.1h4.7v0.9l-3.2,4.3h3.2V21h-4.8V20.2z"/>
		<path id="XMLID_544_" d="M206,23.2l0.9-2.3l-2.5-6.2h1.4l1.7,4.6l1.7-4.6h1.4l-3.3,8.4H206z"/>
	</g>
	<g id="XMLID_6_">
		<g id="XMLID_4_">
			<g id="XMLID_17_">
				<line id="XMLID_20_" class="st1" x1="163.4" y1="45.3" x2="191.8" y2="85.9"/>
				<g id="XMLID_18_">
					<polygon id="XMLID_19_" points="186.9,87.5 195.9,91.8 195.1,81.8 					"/>
				</g>
			</g>
		</g>
		<g id="XMLID_5_">
			<g id="XMLID_22_">
				<line id="XMLID_25_" class="st1" x1="163.4" y1="45.3" x2="135" y2="85.9"/>
				<g id="XMLID_23_">
					<polygon id="XMLID_24_" points="131.8,81.8 130.9,91.8 139.9,87.5 					"/>
				</g>
			</g>
		</g>
	</g>
	<rect id="XMLID_3_" x="0.5" y="99" class="st2" width="130.4" height="34"/>
	<g id="XMLID_8_">
		<path id="XMLID_471_" class="st3" d="M10.7,111.1h4v0.9h-3v2.8h2.6v0.9h-2.6v3h3.1v0.9h-4.1V111.1z"/>
		<path id="XMLID_473_" class="st3" d="M16.5,114.1h-0.7v-0.8h0.7V113c0-1.6,0.9-2.1,2-2.1c0.2,0,0.4,0,0.4,0v0.8c0,0-0.2,0-0.3,0
			c-0.7,0-1.1,0.4-1.1,1.2v0.3h1.3v0.8h-1.3v5.4h-1V114.1z"/>
		<path id="XMLID_475_" class="st3" d="M22.3,113.1c1.8,0,3,1.3,3,3.2c0,0,0,0.2,0,0.3h-5c0,1.4,0.9,2.2,2.2,2.2
			c1.1,0,1.6-0.6,1.9-1l0.6,0.5c-0.3,0.6-1.2,1.4-2.6,1.4c-1.9,0-3.2-1.3-3.2-3.3C19.3,114.4,20.6,113.1,22.3,113.1z M24.3,115.9
			c-0.1-1.3-1-2-2-2c-1,0-1.9,0.8-2,2H24.3z"/>
		<path id="XMLID_478_" class="st3" d="M26.5,110.9h0.9v5.1l2.5-2.7h1.2l-2.7,2.8l2.8,3.4h-1.2l-2.7-3.3v3.3h-0.9V110.9z"/>
		<path id="XMLID_480_" class="st3" d="M32.5,112h0.9v1.3h1.4v0.8h-1.4v3.2c0,1.2,0.3,1.4,1.2,1.4c0.1,0,0.3,0,0.3,0v0.8
			c0,0-0.3,0-0.6,0c-1.2,0-1.8-0.8-1.8-2.2v-3.3h-0.7v-0.8h0.7V112z"/>
		<path id="XMLID_482_" class="st3" d="M40.1,113.3H41l-0.2,1c0.2-0.2,1-1.1,2.4-1.1c1.6,0,2.6,1.1,2.6,2.7c0,2.2-1.6,3.8-3.6,3.8
			c-1.3,0-1.9-0.8-2-1.2l-0.5,3.3h-0.9L40.1,113.3z M42.2,118.8c1.4,0,2.6-1.2,2.6-2.9c0-1.2-0.7-2-1.8-2c-1.5,0-2.6,1.3-2.6,2.8
			C40.4,118.1,41.1,118.8,42.2,118.8z"/>
		<path id="XMLID_485_" class="st3" d="M46.8,117.9c0.2,0.5,0.6,0.9,1.4,0.9c0.7,0,1.3-0.4,1.3-1.1c0-1.2-2.7-1.1-2.7-2.8
			c0-1.1,1-1.8,2.3-1.8c1.2,0,1.7,0.7,1.8,1.2l-0.8,0.4c-0.1-0.3-0.4-0.8-1.2-0.8c-0.6,0-1.2,0.3-1.2,1c0,1.2,2.7,1.2,2.7,2.9
			c0,1.2-0.9,1.9-2.4,1.9c-1.3,0-1.8-0.8-2-1.3L46.8,117.9z"/>
		<path id="XMLID_487_" class="st3" d="M51.9,121.7l1.3-2.2l-1.5-6.2h1l1.1,5l2.8-5h1l-4.7,8.4H51.9z"/>
		<path id="XMLID_489_" class="st3" d="M62.9,114.8c-0.2-0.3-0.8-0.8-1.7-0.8c-1.5,0-2.7,1.2-2.7,2.8c0,1.2,0.8,2,1.9,2
			c1,0,1.7-0.6,2-0.8l0.2,0.9c-0.3,0.3-1.1,0.8-2.3,0.8c-1.7,0-2.7-1.2-2.7-2.8c0-2.1,1.7-3.7,3.7-3.7c1.1,0,1.8,0.5,2.1,0.9
			L62.9,114.8z"/>
		<path id="XMLID_491_" class="st3" d="M69.3,115.6l-0.6,3.9h-0.9l0.7-3.9c0.2-1-0.4-1.6-1.2-1.6c-1,0-1.8,0.7-1.9,1.7l-0.6,3.8
			h-0.9l1.5-8.7H66l-0.6,3.3c0.4-0.6,1.2-1.1,2-1.1C68.9,113.1,69.5,114.2,69.3,115.6z"/>
		<path id="XMLID_493_" class="st3" d="M74.1,113.1c1.7,0,2.8,1.2,2.8,2.8c0,2.1-1.8,3.8-3.9,3.8c-1.7,0-2.8-1.2-2.8-2.8
			C70.2,114.8,72,113.1,74.1,113.1z M73.1,118.8c1.5,0,2.7-1.2,2.7-2.8c0-1.2-0.8-2-1.9-2c-1.5,0-2.7,1.2-2.7,2.8
			C71.2,118,72,118.8,73.1,118.8z"/>
		<path id="XMLID_496_" class="st3" d="M78.9,110.9h0.9l-1.5,8.7h-0.9L78.9,110.9z"/>
		<path id="XMLID_498_" class="st3" d="M84,113.1c1.7,0,2.8,1.2,2.8,2.8c0,2.1-1.8,3.8-3.9,3.8c-1.7,0-2.8-1.2-2.8-2.8
			C80.1,114.8,81.9,113.1,84,113.1z M83,118.8c1.5,0,2.7-1.2,2.7-2.8c0-1.2-0.8-2-1.9-2c-1.5,0-2.7,1.2-2.7,2.8
			C81.1,118,81.9,118.8,83,118.8z"/>
		<path id="XMLID_501_" class="st3" d="M87.9,120.5c0.2,0.1,0.9,0.5,1.8,0.5c1.2,0,2.3-0.5,2.5-1.9l0.1-0.6c-0.2,0.2-1,1.1-2.4,1.1
			c-1.6,0-2.5-1.1-2.5-2.7c0-2.2,1.6-3.9,3.6-3.9c1.3,0,1.9,0.8,2.1,1.2l0.2-1h0.9l-0.9,5.6c-0.4,2.2-1.8,3-3.6,3
			c-0.8,0-1.7-0.3-2.2-0.6L87.9,120.5z M91,114c-1.4,0-2.6,1.2-2.6,2.8c0,1.2,0.7,2,1.8,2c1.5,0,2.6-1.3,2.6-2.8
			C92.7,114.7,92,114,91,114z"/>
		<path id="XMLID_504_" class="st3" d="M95.7,113.3h0.9l-1,6.2h-0.9L95.7,113.3z M96.6,111c0.3,0,0.6,0.2,0.6,0.6
			c0,0.4-0.4,0.7-0.8,0.7c-0.3,0-0.5-0.2-0.5-0.6C95.8,111.4,96.2,111,96.6,111z"/>
		<path id="XMLID_507_" class="st3" d="M102.7,114.8c-0.2-0.3-0.8-0.8-1.7-0.8c-1.5,0-2.7,1.2-2.7,2.8c0,1.2,0.8,2,1.9,2
			c1,0,1.7-0.6,2-0.8l0.2,0.9c-0.3,0.3-1.1,0.8-2.3,0.8c-1.7,0-2.7-1.2-2.7-2.8c0-2.1,1.7-3.7,3.7-3.7c1.1,0,1.8,0.5,2.1,0.9
			L102.7,114.8z"/>
		<path id="XMLID_509_" class="st3" d="M103.1,118.9l4.3-4.7H104l0.1-0.8h4.6l-0.1,0.7l-4.3,4.7h3.6l-0.1,0.8H103L103.1,118.9z"/>
		<path id="XMLID_511_" class="st3" d="M114.6,115.6l-0.6,3.9H113l0.7-3.9c0.2-1-0.4-1.6-1.2-1.6c-1,0-1.7,0.7-1.9,1.7l-0.6,3.8
			h-0.9l1-6.2h0.9l-0.2,0.9c0.4-0.6,1.2-1.1,2-1.1C114.3,113.1,114.8,114.2,114.6,115.6z"/>
		<path id="XMLID_513_" class="st3" d="M115.9,121.7l1.3-2.2l-1.5-6.2h1l1.1,5l2.8-5h1l-4.7,8.4H115.9z"/>
	</g>
	<rect id="XMLID_9_" x="195.9" y="99" class="st0" width="130.4" height="34"/>
	<g id="XMLID_10_">
		<path id="XMLID_435_" d="M212.7,111.1h4v0.9h-3v2.8h2.6v0.9h-2.6v3h3.1v0.9h-4.1V111.1z"/>
		<path id="XMLID_437_" d="M218.5,114.1h-0.7v-0.8h0.7V113c0-1.6,0.9-2.1,2-2.1c0.2,0,0.4,0,0.4,0v0.8c0,0-0.2,0-0.3,0
			c-0.7,0-1.1,0.4-1.1,1.2v0.3h1.3v0.8h-1.3v5.4h-1V114.1z"/>
		<path id="XMLID_439_" d="M224.3,113.1c1.8,0,3,1.3,3,3.2c0,0,0,0.2,0,0.3h-5c0,1.4,0.9,2.2,2.2,2.2c1.1,0,1.6-0.6,1.9-1l0.6,0.5
			c-0.3,0.6-1.2,1.4-2.6,1.4c-1.9,0-3.2-1.3-3.2-3.3C221.3,114.4,222.6,113.1,224.3,113.1z M226.3,115.9c-0.1-1.3-1-2-2-2
			c-1,0-1.9,0.8-2,2H226.3z"/>
		<path id="XMLID_442_" d="M228.5,110.9h0.9v5.1l2.5-2.7h1.2l-2.7,2.8l2.8,3.4h-1.2l-2.7-3.3v3.3h-0.9V110.9z"/>
		<path id="XMLID_444_" d="M234.5,112h0.9v1.3h1.4v0.8h-1.4v3.2c0,1.2,0.3,1.4,1.2,1.4c0.1,0,0.3,0,0.3,0v0.8c0,0-0.3,0-0.6,0
			c-1.2,0-1.8-0.8-1.8-2.2v-3.3h-0.7v-0.8h0.7V112z"/>
		<path id="XMLID_446_" d="M249.7,119.5h-0.9l0.6-3.8c0.2-1.2-0.2-1.8-1.1-1.8c-0.9,0-1.6,0.6-1.8,1.8l-0.6,3.7h-0.9l0.7-3.9
			c0.2-1-0.3-1.6-1.2-1.6c-0.8,0-1.6,0.7-1.8,1.8l-0.6,3.8H241l1-6.2h0.9c-0.1,0.6-0.2,0.9-0.2,0.9c0.3-0.5,1.1-1.1,1.9-1.1
			c0.9,0,1.5,0.5,1.7,1.1c0.5-0.7,1.3-1.1,2.2-1.1c1.4,0,2,1,1.7,2.4L249.7,119.5z"/>
		<path id="XMLID_448_" d="M254.9,113.1c1.7,0,2.6,1,2.6,2.6c0,0.4-0.1,0.8-0.1,0.9h-5c-0.2,1.4,0.6,2.2,1.9,2.2
			c1.1,0,1.7-0.6,2.1-1l0.6,0.5c-0.4,0.6-1.4,1.3-2.8,1.3c-1.7,0-2.7-1.1-2.7-2.7C251.4,114.8,253,113.1,254.9,113.1z M256.5,115.9
			c0.2-1.3-0.6-2-1.7-2c-1.1,0-2.1,0.8-2.4,2H256.5z"/>
		<path id="XMLID_451_" d="M263.5,114.8c-0.2-0.3-0.8-0.8-1.7-0.8c-1.5,0-2.7,1.2-2.7,2.8c0,1.2,0.8,2,1.9,2c1,0,1.7-0.6,2-0.8
			l0.2,0.9c-0.3,0.3-1.1,0.8-2.3,0.8c-1.7,0-2.7-1.2-2.7-2.8c0-2.1,1.7-3.7,3.7-3.7c1.1,0,1.8,0.5,2.1,0.9L263.5,114.8z"/>
		<path id="XMLID_453_" d="M269.9,115.6l-0.6,3.9h-0.9l0.7-3.9c0.2-1-0.4-1.6-1.2-1.6c-1,0-1.8,0.7-1.9,1.7l-0.6,3.8h-0.9l1.5-8.7
			h0.9l-0.6,3.3c0.4-0.6,1.2-1.1,2-1.1C269.6,113.1,270.1,114.2,269.9,115.6z"/>
		<path id="XMLID_455_" d="M273.5,115.6c0.8,0,1.3,0.3,1.5,0.6l0.1-0.8c0.1-0.9-0.4-1.4-1.3-1.4c-0.7,0-1.4,0.3-1.9,0.6l-0.3-0.7
			c0.5-0.3,1.3-0.7,2.4-0.7c1.6,0,2.3,0.9,2,2.3l-0.7,4.1h-0.8l0-0.5c-0.4,0.4-1,0.7-1.8,0.7c-1.2,0-2.1-0.7-2.1-1.8
			C270.7,116.6,271.9,115.6,273.5,115.6z M273.1,118.9c1,0,1.8-0.6,1.8-1.5c0-0.7-0.5-1.1-1.4-1.1c-1,0-1.8,0.6-1.8,1.5
			C271.7,118.4,272.2,118.9,273.1,118.9z"/>
		<path id="XMLID_458_" d="M282.6,115.6l-0.6,3.9H281l0.7-3.9c0.2-1-0.4-1.6-1.2-1.6c-1,0-1.7,0.7-1.9,1.7l-0.6,3.8h-0.9l1-6.2h0.9
			l-0.2,0.9c0.4-0.6,1.2-1.1,2-1.1C282.3,113.1,282.8,114.2,282.6,115.6z"/>
		<path id="XMLID_460_" d="M284.6,113.3h0.9l-1,6.2h-0.9L284.6,113.3z M285.4,111c0.3,0,0.6,0.2,0.6,0.6c0,0.4-0.4,0.7-0.8,0.7
			c-0.3,0-0.5-0.2-0.5-0.6C284.7,111.4,285,111,285.4,111z"/>
		<path id="XMLID_463_" d="M291.5,114.8c-0.2-0.3-0.8-0.8-1.7-0.8c-1.5,0-2.7,1.2-2.7,2.8c0,1.2,0.8,2,1.9,2c1,0,1.7-0.6,2-0.8
			l0.2,0.9c-0.3,0.3-1.1,0.8-2.3,0.8c-1.7,0-2.7-1.2-2.7-2.8c0-2.1,1.7-3.7,3.7-3.7c1.1,0,1.8,0.5,2.1,0.9L291.5,114.8z"/>
		<path id="XMLID_465_" d="M291.9,118.9l4.3-4.7h-3.4l0.1-0.8h4.6l-0.1,0.7l-4.3,4.7h3.6l-0.1,0.8h-4.8L291.9,118.9z"/>
		<path id="XMLID_467_" d="M303.4,115.6l-0.6,3.9h-0.9l0.7-3.9c0.2-1-0.4-1.6-1.2-1.6c-1,0-1.7,0.7-1.9,1.7l-0.6,3.8h-0.9l1-6.2h0.9
			l-0.2,0.9c0.4-0.6,1.2-1.1,2-1.1C303.1,113.1,303.7,114.2,303.4,115.6z"/>
		<path id="XMLID_469_" d="M304.8,121.7l1.3-2.2l-1.5-6.2h1l1.1,5l2.8-5h1l-4.7,8.4H304.8z"/>
	</g>
	<g id="XMLID_11_">
		<g id="XMLID_37_">
			<line id="XMLID_40_" class="st1" x1="261.1" y1="142.2" x2="261.1" y2="186.1"/>
			<g id="XMLID_38_">
				<polygon id="XMLID_39_" points="256.1,184.6 261.1,193.3 266.1,184.6 				"/>
			</g>
		</g>
	</g>
	<g id="XMLID_12_">
		<path id="XMLID_311_" d="M175.8,209.5h2c2.8,0,4.5,1.6,4.5,4.2c0,2.7-1.7,4.2-4.5,4.2h-2V209.5z M177.9,216.8c1.8,0,3-1,3-3
			c0-1.9-1.2-3-3-3h-0.8v6.1H177.9z"/>
		<path id="XMLID_314_" d="M184.6,220.1l0.9-2.3l-2.5-6.2h1.4l1.7,4.6l1.7-4.6h1.4l-3.3,8.4H184.6z"/>
		<path id="XMLID_316_" d="M190.3,216.2c0.3,0.4,0.7,0.8,1.5,0.8c0.6,0,1-0.3,1-0.8c0-1.2-3-0.8-3-2.9c0-1.1,0.9-1.8,2.1-1.8
			c1.2,0,1.8,0.7,2,1.2l-0.9,0.6c-0.2-0.3-0.5-0.7-1.2-0.7c-0.5,0-0.8,0.3-0.8,0.7c0,1.2,3.1,0.7,3.1,2.9c0,1.2-1,1.9-2.3,1.9
			c-1.3,0-1.9-0.7-2.3-1.2L190.3,216.2z"/>
		<path id="XMLID_318_" d="M195.1,211.7h1.2v0.8c0.2-0.2,0.8-1,2-1c1.8,0,3.1,1.4,3.1,3.3c0,1.9-1.2,3.3-3,3.3c-1.2,0-1.9-0.7-2-1
			v3.1h-1.3V211.7z M198.2,216.9c1.1,0,1.9-0.9,1.9-2.1c0-1.3-0.8-2.1-1.9-2.1c-1.2,0-1.9,1-1.9,2.1
			C196.3,216.1,197.2,216.9,198.2,216.9z"/>
		<path id="XMLID_321_" d="M205.6,212.8c-1.4,0-1.8,1-1.8,2.4v2.7h-1.3v-6.3h1.3v1c0.2-0.6,0.9-1.1,1.8-1.1V212.8z"/>
		<path id="XMLID_323_" d="M209.3,211.5c1.9,0,3.3,1.4,3.3,3.3c0,1.9-1.4,3.3-3.3,3.3c-1.9,0-3.3-1.4-3.3-3.3
			S207.5,211.5,209.3,211.5z M209.3,216.9c1.2,0,2-0.9,2-2.1c0-1.2-0.9-2.1-2-2.1c-1.2,0-2,0.9-2,2.1
			C207.3,216,208.2,216.9,209.3,216.9z"/>
		<path id="XMLID_326_" d="M213.7,211.7h1.2v0.8c0.2-0.2,0.8-1,2-1c1.8,0,3.1,1.4,3.1,3.3c0,1.9-1.2,3.3-3,3.3c-1.2,0-1.9-0.7-2-1
			v3.1h-1.3V211.7z M216.9,216.9c1.1,0,1.9-0.9,1.9-2.1c0-1.3-0.8-2.1-1.9-2.1c-1.2,0-1.9,1-1.9,2.1
			C215,216.1,215.8,216.9,216.9,216.9z"/>
		<path id="XMLID_329_" d="M224.1,211.5c1.9,0,3.3,1.4,3.3,3.3c0,1.9-1.4,3.3-3.3,3.3c-1.9,0-3.3-1.4-3.3-3.3
			S222.2,211.5,224.1,211.5z M224.1,216.9c1.2,0,2-0.9,2-2.1c0-1.2-0.9-2.1-2-2.1c-1.2,0-2,0.9-2,2.1
			C222.1,216,222.9,216.9,224.1,216.9z"/>
		<path id="XMLID_332_" d="M231.6,212.8c-1.4,0-1.8,1-1.8,2.4v2.7h-1.3v-6.3h1.3v1c0.2-0.6,0.9-1.1,1.8-1.1V212.8z"/>
		<path id="XMLID_334_" d="M237.1,213.4c-0.3-0.3-0.9-0.7-1.7-0.7c-1.2,0-2,0.9-2,2.1c0,1.2,0.9,2.1,2,2.1c0.8,0,1.4-0.5,1.6-0.7
			l0.4,1.1c-0.3,0.3-1,0.8-2.1,0.8c-1.9,0-3.3-1.4-3.3-3.3c0-1.9,1.4-3.3,3.3-3.3c1,0,1.7,0.5,2.1,0.8L237.1,213.4z"/>
		<path id="XMLID_336_" d="M238.5,211.7h1.3v6.4c0,1.6-1,2.1-2.2,2.1c-0.2,0-0.4,0-0.4,0v-1.1c0,0,0.2,0,0.3,0c0.6,0,1-0.3,1-1.1
			V211.7z M239.2,209.3c0.5,0,0.8,0.4,0.8,0.8c0,0.5-0.4,0.8-0.8,0.8c-0.5,0-0.8-0.4-0.8-0.8C238.4,209.7,238.7,209.3,239.2,209.3z"
			/>
		<path id="XMLID_339_" d="M244.2,211.5c1.9,0,3.3,1.4,3.3,3.3c0,1.9-1.4,3.3-3.3,3.3c-1.9,0-3.3-1.4-3.3-3.3
			S242.4,211.5,244.2,211.5z M244.2,216.9c1.2,0,2-0.9,2-2.1c0-1.2-0.9-2.1-2-2.1c-1.2,0-2,0.9-2,2.1
			C242.2,216,243.1,216.9,244.2,216.9z"/>
		<path id="XMLID_342_" d="M253.9,214.2v3.8h-1.3v-3.9c0-0.9-0.5-1.4-1.3-1.4c-0.8,0-1.4,0.6-1.4,1.5v3.8h-1.3v-6.3h1.3v0.8
			c0.3-0.5,0.9-1,1.8-1C253.3,211.5,253.9,212.8,253.9,214.2z"/>
		<path id="XMLID_344_" d="M257.3,213.9c0.7,0,1.3,0.2,1.5,0.5v-0.6c0-0.7-0.5-1.2-1.3-1.2c-0.7,0-1.3,0.2-1.8,0.5l-0.5-0.9
			c0.5-0.3,1.3-0.7,2.4-0.7c1.9,0,2.5,1,2.5,2.4v4H259l-0.1-0.5c-0.3,0.4-0.8,0.6-1.6,0.6c-1.3,0-2.4-0.8-2.4-2.1
			C254.9,214.8,255.9,213.9,257.3,213.9z M257.5,217c0.8,0,1.3-0.4,1.3-1.1c0-0.7-0.5-1.1-1.3-1.1c-0.8,0-1.3,0.5-1.3,1.1
			C256.2,216.6,256.8,217,257.5,217z"/>
		<path id="XMLID_347_" d="M261.5,209.3h1.3v8.7h-1.3V209.3z"/>
		<path id="XMLID_349_" d="M269.5,214.2v3.8h-1.3v-3.9c0-0.9-0.5-1.4-1.3-1.4c-0.8,0-1.4,0.6-1.4,1.5v3.8h-1.3v-6.3h1.3v0.8
			c0.3-0.5,0.9-1,1.8-1C268.9,211.5,269.5,212.8,269.5,214.2z"/>
		<path id="XMLID_351_" d="M273.8,211.5c1.9,0,3.3,1.4,3.3,3.3c0,1.9-1.4,3.3-3.3,3.3c-1.9,0-3.3-1.4-3.3-3.3S272,211.5,273.8,211.5
			z M273.8,216.9c1.2,0,2-0.9,2-2.1c0-1.2-0.9-2.1-2-2.1c-1.2,0-2,0.9-2,2.1C271.9,216,272.7,216.9,273.8,216.9z"/>
		<path id="XMLID_354_" d="M278.6,216.2c0.3,0.4,0.7,0.8,1.5,0.8c0.6,0,1-0.3,1-0.8c0-1.2-3-0.8-3-2.9c0-1.1,0.9-1.8,2.1-1.8
			c1.2,0,1.8,0.7,2,1.2l-0.9,0.6c-0.2-0.3-0.5-0.7-1.2-0.7c-0.5,0-0.8,0.3-0.8,0.7c0,1.2,3.1,0.7,3.1,2.9c0,1.2-1,1.9-2.3,1.9
			c-1.3,0-1.9-0.7-2.3-1.2L278.6,216.2z M280.2,209.2h1.4l-1.1,1.7h-1.1L280.2,209.2z"/>
		<path id="XMLID_357_" d="M287.9,213.4c-0.3-0.3-0.9-0.7-1.7-0.7c-1.2,0-2,0.9-2,2.1c0,1.2,0.9,2.1,2,2.1c0.8,0,1.4-0.5,1.6-0.7
			l0.4,1.1c-0.3,0.3-1,0.8-2.1,0.8c-1.9,0-3.3-1.4-3.3-3.3c0-1.9,1.4-3.3,3.3-3.3c1,0,1.7,0.5,2.1,0.8L287.9,213.4z M286.2,209.2
			h1.4l-1.1,1.7h-1.1L286.2,209.2z"/>
		<path id="XMLID_360_" d="M296.6,213.4l-1.4,4.5h-1.4l-2-6.3h1.4l1.4,4.8c0,0,0,0,1.4-4.8h1.2c1.4,4.8,1.4,4.8,1.4,4.8l1.4-4.8h1.4
			l-2,6.3H298L296.6,213.4z"/>
		<path id="XMLID_362_" d="M303.5,220.1l0.9-2.3l-2.5-6.2h1.4l1.7,4.6l1.7-4.6h1.4l-3.3,8.4H303.5z"/>
		<path id="XMLID_364_" d="M308.9,209.3h1.3v3.3c0.2-0.3,0.8-1,2-1c1.8,0,3,1.4,3,3.3c0,1.9-1.3,3.3-3.1,3.3c-1.2,0-1.8-0.8-2-1v0.8
			h-1.2V209.3z M312,216.9c1.1,0,1.9-0.8,1.9-2.1c0-1.3-0.8-2.1-1.9-2.1c-1,0-1.9,0.8-1.9,2.1C310.2,216,310.9,216.9,312,216.9z"/>
		<path id="XMLID_367_" d="M319.2,211.5c1.9,0,3.3,1.4,3.3,3.3c0,1.9-1.4,3.3-3.3,3.3c-1.9,0-3.3-1.4-3.3-3.3
			S317.3,211.5,319.2,211.5z M319.2,216.9c1.2,0,2-0.9,2-2.1c0-1.2-0.9-2.1-2-2.1c-1.2,0-2,0.9-2,2.1
			C317.2,216,318.1,216.9,319.2,216.9z"/>
		<path id="XMLID_370_" d="M326.7,212.8c-1.4,0-1.8,1-1.8,2.4v2.7h-1.3v-6.3h1.3v1c0.2-0.6,0.9-1.1,1.8-1.1V212.8z"/>
		<path id="XMLID_372_" d="M332.2,213.4c-0.3-0.3-0.9-0.7-1.7-0.7c-1.2,0-2,0.9-2,2.1c0,1.2,0.9,2.1,2,2.1c0.8,0,1.4-0.5,1.6-0.7
			l0.4,1.1c-0.3,0.3-1,0.8-2.1,0.8c-1.9,0-3.3-1.4-3.3-3.3c0-1.9,1.4-3.3,3.3-3.3c1,0,1.7,0.5,2.1,0.8L332.2,213.4z"/>
		<path id="XMLID_374_" d="M333.3,217.1l3.2-4.3h-3.1v-1.1h4.7v0.9l-3.2,4.3h3.2v1.1h-4.8V217.1z"/>
		<path id="XMLID_376_" d="M341.3,213.9c0.7,0,1.3,0.2,1.5,0.5v-0.6c0-0.7-0.5-1.2-1.3-1.2c-0.7,0-1.3,0.2-1.8,0.5l-0.5-0.9
			c0.5-0.3,1.3-0.7,2.4-0.7c1.9,0,2.5,1,2.5,2.4v4H343l-0.1-0.5c-0.3,0.4-0.8,0.6-1.6,0.6c-1.3,0-2.4-0.8-2.4-2.1
			C338.9,214.8,339.9,213.9,341.3,213.9z M341.5,217c0.8,0,1.3-0.4,1.3-1.1c0-0.7-0.5-1.1-1.3-1.1c-0.8,0-1.3,0.5-1.3,1.1
			C340.2,216.6,340.7,217,341.5,217z"/>
		<path id="XMLID_379_" d="M346,216.7c0.4,0,0.7,0.3,0.7,0.7c0,0.9-0.4,1.5-0.9,1.9l-0.4-0.4c0.2-0.2,0.5-0.5,0.6-0.9
			c-0.4,0-0.6-0.3-0.6-0.7C345.3,217,345.6,216.7,346,216.7z"/>
		<path id="XMLID_381_" d="M194.3,223.9h4.1v1.2h-2.8v2.4h2.5v1.2h-2.5v3.6h-1.3V223.9z"/>
		<path id="XMLID_383_" d="M202.7,227.2c-1.4,0-1.8,1-1.8,2.4v2.7h-1.3v-6.3h1.3v1c0.2-0.6,0.9-1.1,1.8-1.1V227.2z"/>
		<path id="XMLID_385_" d="M205.7,228.3c0.7,0,1.3,0.2,1.5,0.5v-0.6c0-0.7-0.5-1.2-1.3-1.2c-0.7,0-1.3,0.2-1.8,0.5l-0.5-0.9
			c0.5-0.3,1.3-0.7,2.4-0.7c1.9,0,2.5,1,2.5,2.4v4h-1.1l-0.1-0.5c-0.3,0.4-0.8,0.6-1.6,0.6c-1.3,0-2.4-0.8-2.4-2.1
			C203.3,229.2,204.3,228.3,205.7,228.3z M206,231.4c0.8,0,1.3-0.4,1.3-1.1c0-0.7-0.5-1.1-1.3-1.1c-0.8,0-1.3,0.5-1.3,1.1
			C204.6,231,205.2,231.4,206,231.4z"/>
		<path id="XMLID_388_" d="M210.7,233c0.2,0.1,1,0.5,1.8,0.5c1,0,2-0.4,2-1.6v-0.4c-0.1,0.2-0.8,1-2,1c-1.8,0-3-1.4-3-3.3
			c0-1.9,1.2-3.3,3-3.3c1.2,0,1.8,0.7,2,1v-0.8h1.2v5.4c0,2.4-1.4,3.1-3.3,3.1c-0.8,0-1.7-0.3-2.3-0.6L210.7,233z M212.7,227.1
			c-1.1,0-1.9,0.9-1.9,2.1c0,1.3,0.8,2.1,1.9,2.1c1.1,0,1.9-0.9,1.9-2.1C214.6,227.9,213.8,227.1,212.7,227.1z"/>
		<path id="XMLID_391_" d="M226.1,232.3h-1.3v-3.8c0-1-0.4-1.5-1.2-1.5c-0.7,0-1.3,0.5-1.3,1.5v3.7H221v-3.9c0-0.9-0.5-1.4-1.2-1.4
			c-0.7,0-1.3,0.6-1.3,1.5v3.8h-1.3v-6.3h1.3c0,0.5,0,0.8,0,0.8c0.2-0.5,0.8-1,1.7-1c0.9,0,1.5,0.4,1.8,1c0.4-0.7,1.1-1,1.9-1
			c1.4,0,2.1,1,2.1,2.3V232.3z"/>
		<path id="XMLID_393_" d="M230.2,225.9c1.9,0,3,1.3,3,3.3c0,0.1,0,0.2,0,0.3h-4.7c0,1.1,0.8,1.8,1.9,1.8c0.9,0,1.5-0.5,1.7-0.9
			l0.9,0.6c-0.3,0.5-1.1,1.4-2.6,1.4c-2,0-3.3-1.4-3.3-3.3C227.1,227.3,228.5,225.9,230.2,225.9z M231.9,228.6c0-1-0.8-1.6-1.7-1.6
			s-1.6,0.6-1.7,1.6H231.9z"/>
		<path id="XMLID_396_" d="M239.5,228.6v3.8h-1.3v-3.9c0-0.9-0.5-1.4-1.3-1.4c-0.8,0-1.4,0.6-1.4,1.5v3.8h-1.3v-6.3h1.3v0.8
			c0.3-0.5,0.9-1,1.8-1C238.9,225.9,239.5,227.2,239.5,228.6z"/>
		<path id="XMLID_398_" d="M241,224.8h1.3v1.3h1.3v1.1h-1.3v2.9c0,1,0.4,1.2,1.1,1.2c0.1,0,0.3,0,0.3,0v1.1c0,0-0.2,0-0.6,0
			c-1.5,0-2-1-2-2.6v-2.7h-0.7v-1.1h0.7V224.8z"/>
		<path id="XMLID_400_" d="M246.7,228.3c0.7,0,1.3,0.2,1.5,0.5v-0.6c0-0.7-0.5-1.2-1.3-1.2c-0.7,0-1.3,0.2-1.8,0.5l-0.5-0.9
			c0.5-0.3,1.3-0.7,2.4-0.7c1.9,0,2.5,1,2.5,2.4v4h-1.1l-0.1-0.5c-0.3,0.4-0.8,0.6-1.6,0.6c-1.3,0-2.4-0.8-2.4-2.1
			C244.3,229.2,245.3,228.3,246.7,228.3z M246.9,231.4c0.8,0,1.3-0.4,1.3-1.1c0-0.7-0.5-1.1-1.3-1.1c-0.8,0-1.3,0.5-1.3,1.1
			C245.6,231,246.1,231.4,246.9,231.4z"/>
		<path id="XMLID_403_" d="M255.5,227.8c-0.3-0.3-0.9-0.7-1.7-0.7c-1.2,0-2,0.9-2,2.1c0,1.2,0.9,2.1,2,2.1c0.8,0,1.4-0.5,1.6-0.7
			l0.4,1.1c-0.3,0.3-1,0.8-2.1,0.8c-1.9,0-3.3-1.4-3.3-3.3c0-1.9,1.4-3.3,3.3-3.3c1,0,1.7,0.5,2.1,0.8L255.5,227.8z"/>
		<path id="XMLID_405_" d="M256.9,226.1h1.3v6.4c0,1.6-1,2.1-2.2,2.1c-0.2,0-0.4,0-0.4,0v-1.1c0,0,0.2,0,0.3,0c0.6,0,1-0.3,1-1.1
			V226.1z M257.5,223.7c0.5,0,0.8,0.4,0.8,0.8c0,0.5-0.4,0.8-0.8,0.8c-0.5,0-0.8-0.4-0.8-0.8C256.7,224.1,257.1,223.7,257.5,223.7z"
			/>
		<path id="XMLID_408_" d="M261.7,228.3c0.7,0,1.3,0.2,1.5,0.5v-0.6c0-0.7-0.5-1.2-1.3-1.2c-0.7,0-1.3,0.2-1.8,0.5l-0.5-0.9
			c0.5-0.3,1.3-0.7,2.4-0.7c1.9,0,2.5,1,2.5,2.4v4h-1.1l-0.1-0.5c-0.3,0.4-0.8,0.6-1.6,0.6c-1.3,0-2.4-0.8-2.4-2.1
			C259.3,229.2,260.3,228.3,261.7,228.3z M261.9,231.4c0.8,0,1.3-0.4,1.3-1.1c0-0.7-0.5-1.1-1.3-1.1c-0.8,0-1.3,0.5-1.3,1.1
			C260.6,231,261.1,231.4,261.9,231.4z"/>
		<path id="XMLID_411_" d="M268.9,226.1h1.2v0.8c0.2-0.2,0.8-1,2-1c1.8,0,3.1,1.4,3.1,3.3c0,1.9-1.2,3.3-3,3.3c-1.2,0-1.9-0.7-2-1
			v3.1h-1.3V226.1z M272,231.3c1.1,0,1.9-0.9,1.9-2.1c0-1.3-0.8-2.1-1.9-2.1c-1.2,0-1.9,1-1.9,2.1C270.2,230.5,271,231.3,272,231.3z
			"/>
		<path id="XMLID_414_" d="M278.3,228.3c0.7,0,1.3,0.2,1.5,0.5v-0.6c0-0.7-0.5-1.2-1.3-1.2c-0.7,0-1.3,0.2-1.8,0.5l-0.5-0.9
			c0.5-0.3,1.3-0.7,2.4-0.7c1.9,0,2.5,1,2.5,2.4v4H280l-0.1-0.5c-0.3,0.4-0.8,0.6-1.6,0.6c-1.3,0-2.4-0.8-2.4-2.1
			C275.9,229.2,276.9,228.3,278.3,228.3z M278.6,231.4c0.8,0,1.3-0.4,1.3-1.1c0-0.7-0.5-1.1-1.3-1.1c-0.8,0-1.3,0.5-1.3,1.1
			C277.2,231,277.8,231.4,278.6,231.4z"/>
		<path id="XMLID_417_" d="M285.6,227.2c-1.4,0-1.8,1-1.8,2.4v2.7h-1.3v-6.3h1.3v1c0.2-0.6,0.9-1.1,1.8-1.1V227.2z"/>
		<path id="XMLID_419_" d="M286.6,223.7h1.3v8.7h-1.3V223.7z"/>
		<path id="XMLID_421_" d="M291.4,228.3c0.7,0,1.3,0.2,1.5,0.5v-0.6c0-0.7-0.5-1.2-1.3-1.2c-0.7,0-1.3,0.2-1.8,0.5l-0.5-0.9
			c0.5-0.3,1.3-0.7,2.4-0.7c1.9,0,2.5,1,2.5,2.4v4H293l-0.1-0.5c-0.3,0.4-0.8,0.6-1.6,0.6c-1.3,0-2.4-0.8-2.4-2.1
			C288.9,229.2,289.9,228.3,291.4,228.3z M291.6,231.4c0.8,0,1.3-0.4,1.3-1.1c0-0.7-0.5-1.1-1.3-1.1c-0.8,0-1.3,0.5-1.3,1.1
			C290.3,231,290.8,231.4,291.6,231.4z"/>
		<path id="XMLID_424_" d="M304.4,232.3h-1.3v-3.8c0-1-0.4-1.5-1.2-1.5c-0.7,0-1.3,0.5-1.3,1.5v3.7h-1.3v-3.9c0-0.9-0.5-1.4-1.2-1.4
			c-0.7,0-1.3,0.6-1.3,1.5v3.8h-1.3v-6.3h1.3c0,0.5,0,0.8,0,0.8c0.2-0.5,0.8-1,1.7-1c0.9,0,1.5,0.4,1.8,1c0.4-0.7,1.1-1,1.9-1
			c1.4,0,2.1,1,2.1,2.3V232.3z"/>
		<path id="XMLID_426_" d="M308.5,225.9c1.9,0,3,1.3,3,3.3c0,0.1,0,0.2,0,0.3h-4.7c0,1.1,0.8,1.8,1.9,1.8c0.9,0,1.5-0.5,1.7-0.9
			l0.9,0.6c-0.3,0.5-1.1,1.4-2.6,1.4c-2,0-3.3-1.4-3.3-3.3C305.4,227.3,306.8,225.9,308.5,225.9z M310.2,228.6c0-1-0.8-1.6-1.7-1.6
			s-1.6,0.6-1.7,1.6H310.2z"/>
		<path id="XMLID_429_" d="M317.8,228.6v3.8h-1.3v-3.9c0-0.9-0.5-1.4-1.3-1.4c-0.8,0-1.4,0.6-1.4,1.5v3.8h-1.3v-6.3h1.3v0.8
			c0.3-0.5,0.9-1,1.8-1C317.2,225.9,317.8,227.2,317.8,228.6z"/>
		<path id="XMLID_431_" d="M319.3,224.8h1.3v1.3h1.3v1.1h-1.3v2.9c0,1,0.4,1.2,1.1,1.2c0.1,0,0.3,0,0.3,0v1.1c0,0-0.2,0-0.6,0
			c-1.5,0-2-1-2-2.6v-2.7h-0.7v-1.1h0.7V224.8z"/>
		<path id="XMLID_433_" d="M322.9,229.8v-3.8h1.3v3.9c0,0.9,0.5,1.4,1.3,1.4c0.8,0,1.4-0.6,1.4-1.5v-3.8h1.3v6.3h-1.3v-0.8
			c-0.3,0.5-0.9,1-1.8,1C323.5,232.5,322.9,231.2,322.9,229.8z"/>
	</g>
	<rect id="XMLID_13_" x="133.6" y="201.8" class="st1" width="255.1" height="39.7"/>
	<g id="XMLID_26_">
		<g id="XMLID_56_">
			<line id="XMLID_73_" class="st1" x1="261.1" y1="258.1" x2="261.1" y2="260.1"/>
			<line id="XMLID_72_" class="st4" x1="261.1" y1="263.8" x2="261.1" y2="291"/>
			<line id="XMLID_71_" class="st1" x1="261.1" y1="292.8" x2="261.1" y2="294.8"/>
			<g id="XMLID_64_">
				<polygon id="XMLID_65_" points="256.1,259.6 261.1,251 266.1,259.6 				"/>
			</g>
			<g id="XMLID_57_">
				<polygon id="XMLID_58_" points="256.1,293.3 261.1,302 266.1,293.3 				"/>
			</g>
		</g>
	</g>
	<g id="XMLID_15_">
		<path id="XMLID_81_" d="M107.5,324.8l-0.6,0.6c-0.4-0.4-1.1-1-2.4-1c-1.9,0-3.3,1.5-3.3,3.5c0,2,1.4,3.4,3.2,3.4
			c1.4,0,2.2-0.6,2.5-0.9v-1.8H105v-0.9h2.8v3c-0.9,0.9-2,1.4-3.4,1.4c-2.4,0-4.2-1.8-4.2-4.3c0-2.5,1.8-4.4,4.2-4.4
			C106,323.6,107,324.4,107.5,324.8z"/>
		<path id="XMLID_83_" d="M109.4,323.8h1v3.7h4.5v-3.7h1v8.4h-1v-3.8h-4.5v3.8h-1V323.8z"/>
		<path id="XMLID_85_" d="M117.8,323.8h1v8.4h-1V323.8z"/>
		<path id="XMLID_87_" d="M120.9,331c0.4,0,0.7,0.3,0.7,0.7c0,0.9-0.4,1.5-0.9,1.9l-0.4-0.4c0.2-0.2,0.5-0.5,0.6-0.9
			c-0.4,0-0.6-0.3-0.6-0.7C120.3,331.3,120.5,331,120.9,331z"/>
		<path id="XMLID_89_" d="M126.5,330.6c0.2,0.5,0.6,0.9,1.4,0.9c0.7,0,1.3-0.4,1.3-1.1c0-1.2-2.7-1.1-2.7-2.8c0-1.1,1-1.8,2.3-1.8
			c1.2,0,1.7,0.7,1.8,1.2l-0.8,0.4c-0.1-0.3-0.4-0.8-1.2-0.8c-0.6,0-1.2,0.3-1.2,1c0,1.2,2.7,1.2,2.7,2.9c0,1.2-0.9,1.9-2.4,1.9
			c-1.3,0-1.8-0.8-2-1.3L126.5,330.6z"/>
		<path id="XMLID_91_" d="M134.7,325.8c1.7,0,2.6,1,2.6,2.6c0,0.4-0.1,0.8-0.1,0.9h-5c-0.2,1.4,0.6,2.2,1.9,2.2c1.1,0,1.7-0.6,2.1-1
			l0.6,0.5c-0.4,0.6-1.4,1.3-2.8,1.3c-1.7,0-2.7-1.1-2.7-2.7C131.1,327.5,132.7,325.8,134.7,325.8z M136.3,328.5
			c0.2-1.3-0.6-2-1.7-2c-1.1,0-2.1,0.8-2.4,2H136.3z"/>
		<path id="XMLID_94_" d="M140.5,328.2c0.8,0,1.3,0.3,1.5,0.6l0.1-0.8c0.1-0.9-0.4-1.4-1.3-1.4c-0.7,0-1.4,0.3-1.9,0.6l-0.3-0.7
			c0.5-0.3,1.3-0.7,2.4-0.7c1.6,0,2.3,0.9,2,2.3l-0.7,4.1h-0.8l0-0.5c-0.4,0.4-1,0.7-1.8,0.7c-1.2,0-2.1-0.7-2.1-1.8
			C137.7,329.2,139,328.2,140.5,328.2z M140.1,331.5c1,0,1.8-0.6,1.8-1.5c0-0.7-0.5-1.1-1.4-1.1c-1,0-1.8,0.6-1.8,1.5
			C138.7,331,139.2,331.5,140.1,331.5z"/>
		<path id="XMLID_97_" d="M145.4,324.6h0.9l-0.2,1.3h1.4l-0.1,0.8h-1.4l-0.5,3.2c-0.2,1.2,0.1,1.4,0.9,1.4c0.1,0,0.3,0,0.3,0
			l-0.1,0.9c0,0-0.3,0-0.6,0c-1.1,0-1.6-0.7-1.4-2.1l0.6-3.4h-0.7l0.1-0.8h0.8L145.4,324.6z"/>
		<path id="XMLID_99_" d="M154.2,325.8c1.7,0,2.6,1,2.6,2.6c0,0.4-0.1,0.8-0.1,0.9h-5c-0.2,1.4,0.6,2.2,1.9,2.2c1.1,0,1.7-0.6,2.1-1
			l0.6,0.5c-0.4,0.6-1.4,1.3-2.8,1.3c-1.7,0-2.7-1.1-2.7-2.7C150.6,327.5,152.2,325.8,154.2,325.8z M155.8,328.5
			c0.2-1.3-0.6-2-1.7-2c-1.1,0-2.1,0.8-2.4,2H155.8z"/>
		<path id="XMLID_102_" d="M159.7,329.7l-2.1,2.5h-1.2l2.9-3.3l-1.7-2.9h1.1l1.3,2.3l1.9-2.3h1.1l-2.6,3.1l1.8,3.1h-1.1L159.7,329.7
			z"/>
		<path id="XMLID_104_" d="M168.6,327.4c-0.2-0.3-0.8-0.8-1.7-0.8c-1.5,0-2.7,1.2-2.7,2.8c0,1.2,0.8,2,1.9,2c1,0,1.7-0.6,2-0.8
			l0.2,0.9c-0.3,0.3-1.1,0.8-2.3,0.8c-1.7,0-2.7-1.2-2.7-2.8c0-2.1,1.7-3.7,3.7-3.7c1.1,0,1.8,0.5,2.1,0.9L168.6,327.4z"/>
		<path id="XMLID_106_" d="M172.9,325.8c1.7,0,2.6,1,2.6,2.6c0,0.4-0.1,0.8-0.1,0.9h-5c-0.2,1.4,0.6,2.2,1.9,2.2
			c1.1,0,1.7-0.6,2.1-1l0.6,0.5c-0.4,0.6-1.4,1.3-2.8,1.3c-1.7,0-2.7-1.1-2.7-2.7C169.4,327.5,170.9,325.8,172.9,325.8z
			 M174.5,328.5c0.2-1.3-0.6-2-1.7-2c-1.1,0-2.1,0.8-2.4,2H174.5z"/>
		<path id="XMLID_109_" d="M176.5,330.6c0.2,0.5,0.6,0.9,1.4,0.9c0.7,0,1.3-0.4,1.3-1.1c0-1.2-2.7-1.1-2.7-2.8c0-1.1,1-1.8,2.3-1.8
			c1.2,0,1.7,0.7,1.8,1.2l-0.8,0.4c-0.1-0.3-0.4-0.8-1.2-0.8c-0.6,0-1.2,0.3-1.2,1c0,1.2,2.7,1.2,2.7,2.9c0,1.2-0.9,1.9-2.4,1.9
			c-1.3,0-1.8-0.8-2-1.3L176.5,330.6z"/>
		<path id="XMLID_111_" d="M181.5,330.6c0.2,0.5,0.6,0.9,1.4,0.9c0.7,0,1.3-0.4,1.3-1.1c0-1.2-2.7-1.1-2.7-2.8c0-1.1,1-1.8,2.3-1.8
			c1.2,0,1.7,0.7,1.8,1.2l-0.8,0.4c-0.1-0.3-0.4-0.8-1.2-0.8c-0.6,0-1.2,0.3-1.2,1c0,1.2,2.7,1.2,2.7,2.9c0,1.2-0.9,1.9-2.4,1.9
			c-1.3,0-1.8-0.8-2-1.3L181.5,330.6z"/>
		<path id="XMLID_113_" d="M188.8,328.1h3.1v0.9h-3.1V328.1z"/>
		<path id="XMLID_115_" d="M200.3,327.2l-1.7,5h-1l-2.1-6.2h1l1.6,5.1c0,0,0,0,1.7-5.1h0.9c1.7,5.1,1.7,5.1,1.7,5.1l1.6-5.1h1
			l-2.1,6.2h-1L200.3,327.2z"/>
		<path id="XMLID_117_" d="M206.2,330.5c0.3,0.5,0.7,1,1.6,1c0.6,0,1.2-0.4,1.2-1c0-1.4-3.1-0.9-3.1-3.1c0-1.1,0.9-1.7,2-1.7
			c1.2,0,1.8,0.7,1.9,1.2l-0.7,0.4c-0.2-0.3-0.5-0.8-1.3-0.8c-0.6,0-1,0.3-1,0.9c0,1.4,3.1,0.9,3.1,3c0,1.1-0.9,1.8-2.1,1.8
			c-1.3,0-1.9-0.7-2.2-1.3L206.2,330.5z"/>
		<path id="XMLID_119_" d="M211,323.5h0.9v5.1l2.5-2.7h1.2l-2.7,2.8l2.8,3.4h-1.2l-2.7-3.3v3.3H211V323.5z"/>
		<path id="XMLID_121_" d="M218.8,328.2c0.8,0,1.4,0.3,1.6,0.6V328c0-0.9-0.6-1.4-1.5-1.4c-0.8,0-1.4,0.3-1.8,0.5l-0.4-0.7
			c0.4-0.3,1.2-0.7,2.3-0.7c1.7,0,2.4,0.9,2.4,2.3v4.1h-0.8l-0.1-0.5c-0.3,0.4-0.9,0.7-1.7,0.7c-1.4,0-2.4-0.9-2.4-2.1
			C216.4,329,217.4,328.2,218.8,328.2z M218.9,331.5c0.9,0,1.5-0.5,1.5-1.3c0-0.8-0.6-1.3-1.6-1.3c-0.9,0-1.6,0.6-1.6,1.3
			C217.3,330.9,217.9,331.5,218.9,331.5z"/>
		<path id="XMLID_124_" d="M222.5,331.5l3.6-4.7h-3.5v-0.8h4.6v0.7l-3.6,4.7h3.6v0.8h-4.7V331.5z M225,323.5h1l-1.1,1.7h-0.8
			L225,323.5z"/>
		<path id="XMLID_127_" d="M233.4,328.3v3.9h-0.9v-3.9c0-1-0.6-1.6-1.5-1.6c-1,0-1.6,0.7-1.6,1.7v3.8h-0.9v-6.2h0.9v0.9
			c0.3-0.6,1-1.1,1.9-1.1C232.7,325.8,233.4,326.8,233.4,328.3z"/>
		<path id="XMLID_129_" d="M235.5,323.7c0.4,0,0.7,0.3,0.7,0.6c0,0.4-0.3,0.7-0.7,0.7c-0.4,0-0.6-0.3-0.6-0.7
			C234.8,324,235.1,323.7,235.5,323.7z M235,325.9h0.9v6.2H235V325.9z"/>
		<path id="XMLID_132_" d="M237.6,323.5h0.9v5.1l2.5-2.7h1.2l-2.7,2.8l2.8,3.4h-1.2l-2.7-3.3v3.3h-0.9V323.5z"/>
		<path id="XMLID_134_" d="M243.8,323.7c0.4,0,0.7,0.3,0.7,0.6c0,0.4-0.3,0.7-0.7,0.7c-0.4,0-0.6-0.3-0.6-0.7
			C243.2,324,243.4,323.7,243.8,323.7z M243.3,325.9h0.9v6.2h-0.9V325.9z"/>
		<path id="XMLID_137_" d="M251.8,325.8c1.9,0,3.3,1.4,3.3,3.3s-1.4,3.3-3.3,3.3c-1.9,0-3.3-1.4-3.3-3.3
			C248.5,327.2,249.9,325.8,251.8,325.8z M251.8,331.4c1.3,0,2.3-1,2.3-2.4c0-1.4-1-2.4-2.3-2.4c-1.3,0-2.3,1-2.3,2.4
			C249.5,330.4,250.5,331.4,251.8,331.4z"/>
		<path id="XMLID_140_" d="M262,332.2h-0.9v-1c-0.2,0.2-0.8,1.1-2.2,1.1c-1.8,0-3-1.4-3-3.3c0-1.9,1.2-3.3,3-3.3
			c1.3,0,2,0.8,2.2,1.2v-3.4h1V332.2z M258.9,326.6c-1.2,0-2.1,1-2.1,2.4c0,1.5,0.9,2.4,2.1,2.4c1.3,0,2.1-1.1,2.1-2.4
			C261.1,327.5,260.1,326.6,258.9,326.6z"/>
		<path id="XMLID_143_" d="M268.3,327.4c-0.3-0.3-0.9-0.8-1.8-0.8c-1.3,0-2.2,1-2.2,2.4c0,1.3,1,2.4,2.3,2.4c1,0,1.6-0.6,1.9-0.8
			l0.3,0.8c-0.3,0.3-1,0.9-2.2,0.9c-1.9,0-3.2-1.4-3.2-3.3s1.4-3.3,3.2-3.3c1.1,0,1.9,0.5,2.2,0.9L268.3,327.4z"/>
		<path id="XMLID_145_" d="M274.8,328.3v3.9h-0.9v-3.9c0-1-0.6-1.6-1.5-1.6c-1,0-1.6,0.7-1.6,1.7v3.8h-0.9v-8.7h0.9v3.3
			c0.3-0.6,1-1.1,1.8-1.1C274,325.8,274.8,326.8,274.8,328.3z"/>
		<path id="XMLID_147_" d="M277,334.3l0.9-2.2l-2.5-6.2h1l2,5l1.9-5h1l-3.3,8.4H277z"/>
		<path id="XMLID_149_" d="M282.2,323.5h0.9v8.7h-0.9V323.5z"/>
		<path id="XMLID_151_" d="M287.4,325.8c1.8,0,3,1.3,3,3.2c0,0,0,0.2,0,0.3h-5c0,1.4,0.9,2.2,2.2,2.2c1.1,0,1.6-0.6,1.9-1l0.6,0.5
			c-0.3,0.6-1.2,1.4-2.6,1.4c-1.9,0-3.2-1.3-3.2-3.3C284.4,327.1,285.7,325.8,287.4,325.8z M289.4,328.5c-0.1-1.3-1-2-2-2
			c-1,0-1.9,0.8-2,2H289.4z"/>
		<path id="XMLID_154_" d="M296.5,328.3v3.9h-0.9v-3.9c0-1-0.6-1.6-1.5-1.6c-1,0-1.6,0.7-1.6,1.7v3.8h-0.9v-6.2h0.9v0.9
			c0.3-0.6,1-1.1,1.9-1.1C295.8,325.8,296.5,326.8,296.5,328.3z"/>
		<path id="XMLID_156_" d="M298.6,323.7c0.4,0,0.7,0.3,0.7,0.6c0,0.4-0.3,0.7-0.7,0.7c-0.4,0-0.6-0.3-0.6-0.7
			C297.9,324,298.2,323.7,298.6,323.7z M298.1,325.9h0.9v6.2h-0.9V325.9z"/>
		<path id="XMLID_159_" d="M302.7,328.2c0.8,0,1.4,0.3,1.6,0.6V328c0-0.9-0.6-1.4-1.5-1.4c-0.8,0-1.4,0.3-1.8,0.5l-0.4-0.7
			c0.4-0.3,1.2-0.7,2.3-0.7c1.7,0,2.4,0.9,2.4,2.3v4.1h-0.8l-0.1-0.5c-0.3,0.4-0.9,0.7-1.7,0.7c-1.4,0-2.4-0.9-2.4-2.1
			C300.3,329,301.3,328.2,302.7,328.2z M302.8,331.5c0.9,0,1.5-0.5,1.5-1.3c0-0.8-0.6-1.3-1.6-1.3c-0.9,0-1.6,0.6-1.6,1.3
			C301.3,330.9,301.9,331.5,302.8,331.5z"/>
		<path id="XMLID_162_" d="M312.7,325.8c1.9,0,3.3,1.4,3.3,3.3s-1.4,3.3-3.3,3.3c-1.9,0-3.3-1.4-3.3-3.3
			C309.5,327.2,310.9,325.8,312.7,325.8z M312.7,331.4c1.3,0,2.3-1,2.3-2.4c0-1.4-1-2.4-2.3-2.4c-1.3,0-2.3,1-2.3,2.4
			C310.4,330.4,311.4,331.4,312.7,331.4z"/>
		<path id="XMLID_165_" d="M322.9,332.2H322v-1c-0.2,0.2-0.8,1.1-2.2,1.1c-1.8,0-3-1.4-3-3.3c0-1.9,1.2-3.3,3-3.3
			c1.3,0,2,0.8,2.2,1.2v-3.4h1V332.2z M319.8,326.6c-1.2,0-2.1,1-2.1,2.4c0,1.5,0.9,2.4,2.1,2.4c1.3,0,2.1-1.1,2.1-2.4
			C322,327.5,321,326.6,319.8,326.6z"/>
		<path id="XMLID_168_" d="M327.6,325.9h0.9v1c0.2-0.2,0.8-1.1,2.2-1.1c1.8,0,3,1.4,3,3.3c0,1.9-1.2,3.3-3,3.3c-1.3,0-2-0.8-2.2-1.2
			v3.3h-0.9V325.9z M330.6,331.4c1.2,0,2.1-1,2.1-2.4c0-1.5-0.9-2.4-2.1-2.4c-1.3,0-2.1,1.1-2.1,2.4
			C328.5,330.6,329.4,331.4,330.6,331.4z"/>
		<path id="XMLID_171_" d="M337.7,326.7c-1.4,0-1.8,1.1-1.8,2.5v3h-0.9v-6.2h0.9v1c0.2-0.6,0.9-1.2,1.9-1.2V326.7z"/>
		<path id="XMLID_173_" d="M341.5,325.8c1.9,0,3.3,1.4,3.3,3.3s-1.4,3.3-3.3,3.3c-1.9,0-3.3-1.4-3.3-3.3
			C338.2,327.2,339.6,325.8,341.5,325.8z M341.5,331.4c1.3,0,2.3-1,2.3-2.4c0-1.4-1-2.4-2.3-2.4c-1.3,0-2.3,1-2.3,2.4
			C339.2,330.4,340.2,331.4,341.5,331.4z"/>
		<path id="XMLID_176_" d="M346,325.9h0.9v1c0.2-0.2,0.8-1.1,2.2-1.1c1.8,0,3,1.4,3,3.3c0,1.9-1.2,3.3-3,3.3c-1.3,0-2-0.8-2.2-1.2
			v3.3H346V325.9z M349,331.4c1.2,0,2.1-1,2.1-2.4c0-1.5-0.9-2.4-2.1-2.4c-1.3,0-2.1,1.1-2.1,2.4C346.9,330.6,347.8,331.4,349,331.4
			z"/>
		<path id="XMLID_179_" d="M356.2,325.8c1.9,0,3.3,1.4,3.3,3.3s-1.4,3.3-3.3,3.3c-1.9,0-3.3-1.4-3.3-3.3
			C352.9,327.2,354.3,325.8,356.2,325.8z M356.2,331.4c1.3,0,2.3-1,2.3-2.4c0-1.4-1-2.4-2.3-2.4c-1.3,0-2.3,1-2.3,2.4
			C353.9,330.4,354.8,331.4,356.2,331.4z"/>
		<path id="XMLID_182_" d="M363.4,326.7c-1.4,0-1.8,1.1-1.8,2.5v3h-0.9v-6.2h0.9v1c0.2-0.6,0.9-1.2,1.9-1.2V326.7z"/>
		<path id="XMLID_184_" d="M369.1,327.4c-0.3-0.3-0.9-0.8-1.8-0.8c-1.3,0-2.2,1-2.2,2.4c0,1.3,1,2.4,2.3,2.4c1,0,1.6-0.6,1.9-0.8
			l0.3,0.8c-0.3,0.3-1,0.9-2.2,0.9c-1.9,0-3.2-1.4-3.2-3.3s1.4-3.3,3.2-3.3c1.1,0,1.9,0.5,2.2,0.9L369.1,327.4z"/>
		<path id="XMLID_186_" d="M370.6,325.9h0.9v6.4c0,1.6-0.9,2.1-1.9,2.1c-0.2,0-0.3,0-0.3,0v-0.8c0,0,0.2,0,0.3,0
			c0.7,0,1.1-0.4,1.1-1.3V325.9z M371.1,323.7c0.4,0,0.7,0.3,0.7,0.6c0,0.4-0.3,0.7-0.7,0.7c-0.4,0-0.6-0.3-0.6-0.7
			C370.4,324,370.7,323.7,371.1,323.7z"/>
		<path id="XMLID_189_" d="M376,325.8c1.9,0,3.3,1.4,3.3,3.3s-1.4,3.3-3.3,3.3c-1.9,0-3.3-1.4-3.3-3.3
			C372.8,327.2,374.2,325.8,376,325.8z M376,331.4c1.3,0,2.3-1,2.3-2.4c0-1.4-1-2.4-2.3-2.4c-1.3,0-2.3,1-2.3,2.4
			C373.8,330.4,374.7,331.4,376,331.4z"/>
		<path id="XMLID_192_" d="M385.5,328.3v3.9h-0.9v-3.9c0-1-0.6-1.6-1.5-1.6c-1,0-1.6,0.7-1.6,1.7v3.8h-0.9v-6.2h0.9v0.9
			c0.3-0.6,1-1.1,1.9-1.1C384.8,325.8,385.5,326.8,385.5,328.3z"/>
		<path id="XMLID_194_" d="M389.1,328.2c0.8,0,1.4,0.3,1.6,0.6V328c0-0.9-0.6-1.4-1.5-1.4c-0.8,0-1.4,0.3-1.8,0.5l-0.4-0.7
			c0.4-0.3,1.2-0.7,2.3-0.7c1.7,0,2.4,0.9,2.4,2.3v4.1h-0.8l-0.1-0.5c-0.3,0.4-0.9,0.7-1.7,0.7c-1.4,0-2.4-0.9-2.4-2.1
			C386.7,329,387.7,328.2,389.1,328.2z M389.2,331.5c0.9,0,1.5-0.5,1.5-1.3c0-0.8-0.6-1.3-1.6-1.3c-0.9,0-1.6,0.6-1.6,1.3
			C387.6,330.9,388.3,331.5,389.2,331.5z"/>
		<path id="XMLID_197_" d="M393.2,323.5h0.9v8.7h-0.9V323.5z"/>
		<path id="XMLID_199_" d="M400.8,328.3v3.9h-0.9v-3.9c0-1-0.6-1.6-1.5-1.6c-1,0-1.6,0.7-1.6,1.7v3.8h-0.9v-6.2h0.9v0.9
			c0.3-0.6,1-1.1,1.9-1.1C400,325.8,400.8,326.8,400.8,328.3z"/>
		<path id="XMLID_201_" d="M405.2,325.8c1.9,0,3.3,1.4,3.3,3.3s-1.4,3.3-3.3,3.3c-1.9,0-3.3-1.4-3.3-3.3
			C401.9,327.2,403.3,325.8,405.2,325.8z M405.2,331.4c1.3,0,2.3-1,2.3-2.4c0-1.4-1-2.4-2.3-2.4c-1.3,0-2.3,1-2.3,2.4
			C402.9,330.4,403.9,331.4,405.2,331.4z"/>
		<path id="XMLID_204_" d="M409.9,330.5c0.3,0.5,0.7,1,1.6,1c0.6,0,1.2-0.4,1.2-1c0-1.4-3.1-0.9-3.1-3.1c0-1.1,0.9-1.7,2-1.7
			c1.2,0,1.8,0.7,1.9,1.2l-0.7,0.4c-0.2-0.3-0.5-0.8-1.3-0.8c-0.6,0-1,0.3-1,0.9c0,1.4,3.1,0.9,3.1,3c0,1.1-0.9,1.8-2.1,1.8
			c-1.3,0-1.9-0.7-2.2-1.3L409.9,330.5z M411.6,323.5h1l-1.1,1.7h-0.8L411.6,323.5z"/>
		<path id="XMLID_207_" d="M419.3,327.4c-0.3-0.3-0.9-0.8-1.8-0.8c-1.3,0-2.2,1-2.2,2.4c0,1.3,1,2.4,2.3,2.4c1,0,1.6-0.6,1.9-0.8
			l0.3,0.8c-0.3,0.3-1,0.9-2.2,0.9c-1.9,0-3.2-1.4-3.2-3.3s1.4-3.3,3.2-3.3c1.1,0,1.9,0.5,2.2,0.9L419.3,327.4z"/>
		<path id="XMLID_209_" d="M421.3,323.7c0.4,0,0.7,0.3,0.7,0.6c0,0.4-0.3,0.7-0.7,0.7c-0.4,0-0.6-0.3-0.6-0.7
			C420.6,324,420.9,323.7,421.3,323.7z M420.8,325.9h0.9v6.2h-0.9V325.9z"/>
		<path id="XMLID_212_" d="M139,338.2h4v0.9h-3v2.8h2.6v0.9h-2.6v3h3.1v0.9H139V338.2z"/>
		<path id="XMLID_214_" d="M144.6,338.2h1l4.6,6.9v-6.9h1v8.4h-1l-4.6-6.8v6.8h-1V338.2z"/>
		<path id="XMLID_216_" d="M153.1,338.2h2.3c1.5,0,2.5,0.9,2.5,2.4c0,1.5-1,2.5-2.5,2.5h-1.3v3.5h-1V338.2z M155.3,342.2
			c1,0,1.6-0.6,1.6-1.6c0-1-0.6-1.6-1.6-1.6h-1.2v3.2H155.3z"/>
		<path id="XMLID_219_" d="M159.2,338.2h2.3c1.5,0,2.5,0.9,2.5,2.4c0,1.5-1,2.5-2.5,2.5h-1.3v3.5h-1V338.2z M161.4,342.2
			c1,0,1.6-0.6,1.6-1.6c0-1-0.6-1.6-1.6-1.6h-1.2v3.2H161.4z"/>
		<path id="XMLID_222_" d="M167.9,342.5h3.1v0.9h-3.1V342.5z"/>
		<path id="XMLID_224_" d="M177.9,340.2c1.8,0,3,1.3,3,3.2c0,0,0,0.2,0,0.3h-5c0,1.4,0.9,2.2,2.2,2.2c1.1,0,1.6-0.6,1.9-1l0.6,0.5
			c-0.3,0.6-1.2,1.4-2.6,1.4c-1.9,0-3.2-1.3-3.2-3.3C174.9,341.5,176.3,340.2,177.9,340.2z M179.9,342.9c-0.1-1.3-1-2-2-2
			c-1,0-1.9,0.8-2,2H179.9z"/>
		<path id="XMLID_227_" d="M182.3,341.1h-0.7v-0.8h0.7V340c0-1.6,0.9-2.1,2-2.1c0.2,0,0.4,0,0.4,0v0.8c0,0-0.2,0-0.3,0
			c-0.7,0-1.1,0.4-1.1,1.2v0.3h1.3v0.8h-1.3v5.4h-1V341.1z"/>
		<path id="XMLID_229_" d="M188.1,340.2c1.8,0,3,1.3,3,3.2c0,0,0,0.2,0,0.3h-5c0,1.4,0.9,2.2,2.2,2.2c1.1,0,1.6-0.6,1.9-1l0.6,0.5
			c-0.3,0.6-1.2,1.4-2.6,1.4c-1.9,0-3.2-1.3-3.2-3.3C185.1,341.5,186.5,340.2,188.1,340.2z M190.1,342.9c-0.1-1.3-1-2-2-2
			c-1,0-1.9,0.8-2,2H190.1z"/>
		<path id="XMLID_232_" d="M192.3,337.9h0.9v5.1l2.5-2.7h1.2l-2.7,2.8l2.8,3.4h-1.2l-2.7-3.3v3.3h-0.9V337.9z"/>
		<path id="XMLID_234_" d="M198.3,339h0.9v1.3h1.4v0.8h-1.4v3.2c0,1.2,0.3,1.4,1.2,1.4c0.1,0,0.3,0,0.3,0v0.8c0,0-0.3,0-0.6,0
			c-1.2,0-1.8-0.8-1.8-2.2v-3.3h-0.7v-0.8h0.7V339z"/>
		<path id="XMLID_236_" d="M203.1,348.7l0.9-2.2l-2.5-6.2h1l2,5l1.9-5h1l-3.3,8.4H203.1z"/>
		<path id="XMLID_238_" d="M212.3,341.6l-1.7,5h-1l-2.1-6.2h1l1.6,5.1c0,0,0,0,1.7-5.1h0.9c1.7,5.1,1.7,5.1,1.7,5.1l1.6-5.1h1
			l-2.1,6.2h-1L212.3,341.6z"/>
		<path id="XMLID_240_" d="M223,342.7v3.9h-0.9v-3.9c0-1-0.6-1.6-1.5-1.6c-1,0-1.6,0.7-1.6,1.7v3.8H218v-6.2h0.9v0.9
			c0.3-0.6,1-1.1,1.9-1.1C222.3,340.2,223,341.2,223,342.7z"/>
		<path id="XMLID_242_" d="M226.6,342.6c0.8,0,1.4,0.3,1.6,0.6v-0.8c0-0.9-0.6-1.4-1.5-1.4c-0.8,0-1.4,0.3-1.8,0.5l-0.4-0.7
			c0.4-0.3,1.2-0.7,2.3-0.7c1.7,0,2.4,0.9,2.4,2.3v4.1h-0.8l-0.1-0.5c-0.3,0.4-0.9,0.7-1.7,0.7c-1.4,0-2.4-0.9-2.4-2.1
			C224.2,343.5,225.2,342.6,226.6,342.6z M226.7,345.9c0.9,0,1.5-0.5,1.5-1.3c0-0.8-0.6-1.3-1.6-1.3c-0.9,0-1.6,0.6-1.6,1.3
			C225.2,345.3,225.8,345.9,226.7,345.9z"/>
		<path id="XMLID_245_" d="M233.8,337.9h0.9v8.7h-0.9V337.9z"/>
		<path id="XMLID_247_" d="M236.8,338.1c0.4,0,0.7,0.3,0.7,0.6c0,0.4-0.3,0.7-0.7,0.7c-0.4,0-0.6-0.3-0.6-0.7
			C236.2,338.4,236.5,338.1,236.8,338.1z M236.4,340.3h0.9v6.2h-0.9V340.3z"/>
		<path id="XMLID_250_" d="M243.6,341.8c-0.3-0.3-0.9-0.8-1.8-0.8c-1.3,0-2.2,1-2.2,2.4c0,1.3,1,2.4,2.3,2.4c1,0,1.6-0.6,1.9-0.8
			l0.3,0.8c-0.3,0.3-1,0.9-2.2,0.9c-1.9,0-3.2-1.4-3.2-3.3s1.4-3.3,3.2-3.3c1.1,0,1.9,0.5,2.2,0.9L243.6,341.8z"/>
		<path id="XMLID_252_" d="M244.7,345.9l3.6-4.7h-3.5v-0.8h4.6v0.7l-3.6,4.7h3.6v0.8h-4.7V345.9z"/>
		<path id="XMLID_254_" d="M250.6,337.9h0.9v3.4c0.2-0.3,0.9-1.2,2.2-1.2c1.8,0,3,1.4,3,3.3c0,1.9-1.3,3.3-3,3.3
			c-1.4,0-2-0.9-2.2-1.1v1h-0.9V337.9z M253.7,345.9c1.2,0,2.1-0.9,2.1-2.4c0-1.4-0.9-2.4-2.1-2.4c-1.2,0-2.1,0.9-2.1,2.4
			C251.5,344.8,252.4,345.9,253.7,345.9z"/>
		<path id="XMLID_257_" d="M260,342.6c0.8,0,1.4,0.3,1.6,0.6v-0.8c0-0.9-0.6-1.4-1.5-1.4c-0.8,0-1.4,0.3-1.8,0.5l-0.4-0.7
			c0.4-0.3,1.2-0.7,2.3-0.7c1.7,0,2.4,0.9,2.4,2.3v4.1h-0.8l-0.1-0.5c-0.3,0.4-0.9,0.7-1.7,0.7c-1.4,0-2.4-0.9-2.4-2.1
			C257.6,343.5,258.6,342.6,260,342.6z M260.1,345.9c0.9,0,1.5-0.5,1.5-1.3c0-0.8-0.6-1.3-1.6-1.3c-0.9,0-1.6,0.6-1.6,1.3
			C258.5,345.3,259.1,345.9,260.1,345.9z"/>
		<path id="XMLID_260_" d="M267.1,340.3h0.9v1c0.2-0.2,0.8-1.1,2.2-1.1c1.8,0,3,1.4,3,3.3c0,1.9-1.2,3.3-3,3.3c-1.3,0-2-0.8-2.2-1.2
			v3.3h-0.9V340.3z M270.2,345.8c1.2,0,2.1-1,2.1-2.4c0-1.5-0.9-2.4-2.1-2.4c-1.3,0-2.1,1.1-2.1,2.4
			C268.1,345,269,345.8,270.2,345.8z"/>
		<path id="XMLID_263_" d="M276.5,342.6c0.8,0,1.4,0.3,1.6,0.6v-0.8c0-0.9-0.6-1.4-1.5-1.4c-0.8,0-1.4,0.3-1.8,0.5l-0.4-0.7
			c0.4-0.3,1.2-0.7,2.3-0.7c1.7,0,2.4,0.9,2.4,2.3v4.1h-0.8l-0.1-0.5c-0.3,0.4-0.9,0.7-1.7,0.7c-1.4,0-2.4-0.9-2.4-2.1
			C274.1,343.5,275.1,342.6,276.5,342.6z M276.6,345.9c0.9,0,1.5-0.5,1.5-1.3c0-0.8-0.6-1.3-1.6-1.3c-0.9,0-1.6,0.6-1.6,1.3
			C275.1,345.3,275.7,345.9,276.6,345.9z"/>
		<path id="XMLID_266_" d="M283.4,341.1c-1.4,0-1.8,1.1-1.8,2.5v3h-0.9v-6.2h0.9v1c0.2-0.6,0.9-1.2,1.9-1.2V341.1z"/>
		<path id="XMLID_268_" d="M284.9,339h0.9v1.3h1.4v0.8h-1.4v3.2c0,1.2,0.3,1.4,1.2,1.4c0.1,0,0.3,0,0.3,0v0.8c0,0-0.3,0-0.6,0
			c-1.2,0-1.8-0.8-1.8-2.2v-3.3h-0.7v-0.8h0.7V339z"/>
		<path id="XMLID_270_" d="M288.8,338.1c0.4,0,0.7,0.3,0.7,0.6c0,0.4-0.3,0.7-0.7,0.7c-0.4,0-0.6-0.3-0.6-0.7
			C288.2,338.4,288.5,338.1,288.8,338.1z M288.4,340.3h0.9v6.2h-0.9V340.3z"/>
		<path id="XMLID_273_" d="M291.4,338.1c0.4,0,0.7,0.3,0.7,0.6c0,0.4-0.3,0.7-0.7,0.7c-0.4,0-0.6-0.3-0.6-0.7
			C290.8,338.4,291.1,338.1,291.4,338.1z M291,340.3h0.9v6.2H291V340.3z"/>
		<path id="XMLID_276_" d="M296.6,340.3h0.9v1c0.2-0.2,0.8-1.1,2.2-1.1c1.8,0,3,1.4,3,3.3c0,1.9-1.2,3.3-3,3.3c-1.3,0-2-0.8-2.2-1.2
			v3.3h-0.9V340.3z M299.6,345.8c1.2,0,2.1-1,2.1-2.4c0-1.5-0.9-2.4-2.1-2.4c-1.3,0-2.1,1.1-2.1,2.4
			C297.5,345,298.4,345.8,299.6,345.8z"/>
		<path id="XMLID_279_" d="M305.9,342.6c0.8,0,1.4,0.3,1.6,0.6v-0.8c0-0.9-0.6-1.4-1.5-1.4c-0.8,0-1.4,0.3-1.8,0.5l-0.4-0.7
			c0.4-0.3,1.2-0.7,2.3-0.7c1.7,0,2.4,0.9,2.4,2.3v4.1h-0.8l-0.1-0.5c-0.3,0.4-0.9,0.7-1.7,0.7c-1.4,0-2.4-0.9-2.4-2.1
			C303.5,343.5,304.5,342.6,305.9,342.6z M306.1,345.9c0.9,0,1.5-0.5,1.5-1.3c0-0.8-0.6-1.3-1.6-1.3c-0.9,0-1.6,0.6-1.6,1.3
			C304.5,345.3,305.1,345.9,306.1,345.9z"/>
		<path id="XMLID_282_" d="M312.8,341.1c-1.4,0-1.8,1.1-1.8,2.5v3h-0.9v-6.2h0.9v1c0.2-0.6,0.9-1.2,1.9-1.2V341.1z"/>
		<path id="XMLID_284_" d="M313.9,337.9h0.9v8.7h-0.9V337.9z"/>
		<path id="XMLID_286_" d="M318.5,342.6c0.8,0,1.4,0.3,1.6,0.6v-0.8c0-0.9-0.6-1.4-1.5-1.4c-0.8,0-1.4,0.3-1.8,0.5l-0.4-0.7
			c0.4-0.3,1.2-0.7,2.3-0.7c1.7,0,2.4,0.9,2.4,2.3v4.1h-0.8l-0.1-0.5c-0.3,0.4-0.9,0.7-1.7,0.7c-1.4,0-2.4-0.9-2.4-2.1
			C316.1,343.5,317.1,342.6,318.5,342.6z M318.6,345.9c0.9,0,1.5-0.5,1.5-1.3c0-0.8-0.6-1.3-1.6-1.3c-0.9,0-1.6,0.6-1.6,1.3
			C317,345.3,317.6,345.9,318.6,345.9z"/>
		<path id="XMLID_289_" d="M331.3,346.6h-0.9v-3.8c0-1.2-0.5-1.8-1.4-1.8c-0.9,0-1.5,0.6-1.5,1.8v3.7h-0.9v-3.9c0-1-0.6-1.6-1.4-1.6
			c-0.8,0-1.5,0.7-1.5,1.8v3.8h-0.9v-6.2h0.9c0,0.6,0,0.9,0,0.9c0.2-0.5,0.9-1.1,1.8-1.1c0.9,0,1.6,0.5,1.9,1.1
			c0.4-0.7,1.1-1.1,2-1.1c1.4,0,2.1,1,2.1,2.4V346.6z"/>
		<path id="XMLID_291_" d="M335.5,340.2c1.8,0,3,1.3,3,3.2c0,0,0,0.2,0,0.3h-5c0,1.4,0.9,2.2,2.2,2.2c1.1,0,1.6-0.6,1.9-1l0.6,0.5
			c-0.3,0.6-1.2,1.4-2.6,1.4c-1.9,0-3.2-1.3-3.2-3.3C332.5,341.5,333.9,340.2,335.5,340.2z M337.5,342.9c-0.1-1.3-1-2-2-2
			c-1,0-1.9,0.8-2,2H337.5z"/>
		<path id="XMLID_294_" d="M344.7,342.7v3.9h-0.9v-3.9c0-1-0.6-1.6-1.5-1.6c-1,0-1.6,0.7-1.6,1.7v3.8h-0.9v-6.2h0.9v0.9
			c0.3-0.6,1-1.1,1.9-1.1C343.9,340.2,344.7,341.2,344.7,342.7z"/>
		<path id="XMLID_296_" d="M346.3,339h0.9v1.3h1.4v0.8h-1.4v3.2c0,1.2,0.3,1.4,1.2,1.4c0.1,0,0.3,0,0.3,0v0.8c0,0-0.3,0-0.6,0
			c-1.2,0-1.8-0.8-1.8-2.2v-3.3h-0.7v-0.8h0.7V339z"/>
		<path id="XMLID_298_" d="M351.8,342.6c0.8,0,1.4,0.3,1.6,0.6v-0.8c0-0.9-0.6-1.4-1.5-1.4c-0.8,0-1.4,0.3-1.8,0.5l-0.4-0.7
			c0.4-0.3,1.2-0.7,2.3-0.7c1.7,0,2.4,0.9,2.4,2.3v4.1h-0.8l-0.1-0.5c-0.3,0.4-0.9,0.7-1.7,0.7c-1.4,0-2.4-0.9-2.4-2.1
			C349.4,343.5,350.4,342.6,351.8,342.6z M351.9,345.9c0.9,0,1.5-0.5,1.5-1.3c0-0.8-0.6-1.3-1.6-1.3c-0.9,0-1.6,0.6-1.6,1.3
			C350.4,345.3,351,345.9,351.9,345.9z"/>
		<path id="XMLID_301_" d="M358.7,341.1c-1.4,0-1.8,1.1-1.8,2.5v3h-0.9v-6.2h0.9v1c0.2-0.6,0.9-1.2,1.9-1.2V341.1z"/>
		<path id="XMLID_303_" d="M364.8,342.7v3.9h-0.9v-3.9c0-1-0.6-1.6-1.5-1.6c-1,0-1.6,0.7-1.6,1.7v3.8h-0.9v-6.2h0.9v0.9
			c0.3-0.6,1-1.1,1.9-1.1C364,340.2,364.8,341.2,364.8,342.7z"/>
		<path id="XMLID_305_" d="M367.1,348.7l0.9-2.2l-2.5-6.2h1l2,5l1.9-5h1l-3.3,8.4H367.1z"/>
		<path id="XMLID_307_" d="M377,341.8c-0.3-0.3-0.9-0.8-1.8-0.8c-1.3,0-2.2,1-2.2,2.4c0,1.3,1,2.4,2.3,2.4c1,0,1.6-0.6,1.9-0.8
			l0.3,0.8c-0.3,0.3-1,0.9-2.2,0.9c-1.9,0-3.2-1.4-3.2-3.3s1.4-3.3,3.2-3.3c1.1,0,1.9,0.5,2.2,0.9L377,341.8z"/>
		<path id="XMLID_309_" d="M383.5,342.7v3.9h-0.9v-3.9c0-1-0.6-1.6-1.5-1.6c-1,0-1.6,0.7-1.6,1.7v3.8h-0.9v-8.7h0.9v3.3
			c0.3-0.6,1-1.1,1.8-1.1C382.7,340.2,383.5,341.2,383.5,342.7z"/>
	</g>
	<rect id="XMLID_14_" x="76.9" y="316" class="st1" width="368.5" height="39.7"/>
	<g id="XMLID_27_" class="st5">
		<rect id="XMLID_28_" y="201.8" class="st6" width="56.7" height="39.7"/>
		<g id="XMLID_29_" class="st7">
			<path id="XMLID_32_" d="M23.9,210.8l-0.7,0.6c-0.3-0.4-1-1-2.3-1c-2.2,0-3.9,1.8-3.9,4c0,1.7,1.1,2.9,2.7,2.9
				c1.4,0,2.3-0.6,2.6-0.9l0.3-1.8h-1.9l0.1-0.9h2.8l-0.5,3c-1.1,0.9-2.2,1.3-3.7,1.3c-2.1,0-3.6-1.5-3.6-3.7c0-2.8,2.3-5,5-5
				C22.6,209.5,23.5,210.3,23.9,210.8z"/>
			<path id="XMLID_43_" d="M26,209.7h1l-0.6,3.7h4.5l0.6-3.7h1l-1.4,8.4h-1l0.6-3.8h-4.5l-0.6,3.8h-1L26,209.7z"/>
			<path id="XMLID_45_" d="M34.3,209.7h1l-1.4,8.4h-1L34.3,209.7z"/>
			<path id="XMLID_47_" d="M36.3,216.9c0.3,0,0.6,0.2,0.6,0.6c0,0.8-0.6,1.5-1.3,2l-0.4-0.4c0.2-0.2,0.6-0.5,0.7-0.9
				c-0.3,0-0.5-0.3-0.5-0.6C35.5,217.2,35.9,216.9,36.3,216.9z M37.1,212.2c0.3,0,0.6,0.3,0.6,0.6c0,0.4-0.4,0.8-0.8,0.8
				c-0.3,0-0.6-0.3-0.6-0.6C36.3,212.6,36.7,212.2,37.1,212.2z"/>
			<path id="XMLID_52_" d="M17.2,224.1h4L21,225h-3l-0.5,2.8h2.6l-0.1,0.9h-2.6l-0.5,3H20l-0.1,0.9h-4.1L17.2,224.1z"/>
			<path id="XMLID_54_" d="M22.9,224.1h1l3.5,6.9l1.2-6.9h1l-1.4,8.4h-1l-3.5-6.8l-1.1,6.8h-1L22.9,224.1z"/>
			<path id="XMLID_75_" d="M31.3,224.1h2.3c1.3,0,2.1,0.7,2.1,2c0,1.7-1.3,2.9-3,2.9h-1.3l-0.6,3.5h-1L31.3,224.1z M32.9,228.1
				c1.2,0,1.9-0.8,1.9-1.9c0-0.8-0.5-1.3-1.4-1.3h-1.2l-0.5,3.2H32.9z"/>
			<path id="XMLID_78_" d="M37.4,224.1h2.3c1.3,0,2.1,0.7,2.1,2c0,1.7-1.3,2.9-3,2.9h-1.3l-0.6,3.5h-1L37.4,224.1z M39,228.1
				c1.2,0,1.9-0.8,1.9-1.9c0-0.8-0.5-1.3-1.4-1.3h-1.2l-0.5,3.2H39z"/>
		</g>
	</g>
	<line id="XMLID_30_" class="st8" x1="133.6" y1="221.6" x2="56.7" y2="221.6"/>
	<g id="XMLID_31_">
	</g>
</g>
<g id="Warstwa_3">
	<g id="XMLID_50_">
		<g id="XMLID_67_">
			<line id="XMLID_70_" class="st9" x1="65.7" y1="144.5" x2="65.7" y2="183.8"/>
			<g id="XMLID_68_">
				<polygon id="XMLID_69_" class="st3" points="60.7,182.4 65.7,191 70.7,182.4 				"/>
			</g>
		</g>
	</g>
	<rect id="XMLID_42_" x="23.4" y="201.8" class="st2" width="85" height="39.7"/>
	<line id="XMLID_41_" class="st9" x1="90.7" y1="195.6" x2="90.7" y2="172.9"/>
	<g id="XMLID_35_">
		<g id="XMLID_60_">
			<line id="XMLID_63_" class="st9" x1="90.9" y1="172.9" x2="234" y2="172.9"/>
			<g id="XMLID_61_">
				<polygon id="XMLID_62_" class="st3" points="232.5,177.9 241.1,172.9 232.5,167.9 				"/>
			</g>
		</g>
	</g>
	<g id="XMLID_33_">
		<rect id="XMLID_613_" x="23.4" y="201.8" class="st10" width="85" height="39.7"/>
		<path id="XMLID_546_" class="st3" d="M42.2,212.8h0.7v5.6h2.4v0.7h-3.1V212.8z"/>
		<path id="XMLID_548_" class="st3" d="M46.5,212.7c0.3,0,0.5,0.2,0.5,0.5c0,0.3-0.2,0.5-0.5,0.5c-0.3,0-0.5-0.2-0.5-0.5
			C46,212.9,46.2,212.7,46.5,212.7z M46.1,214.4h0.7v4.7h-0.7V214.4z"/>
		<path id="XMLID_551_" class="st3" d="M51.6,215.5c-0.2-0.2-0.7-0.6-1.4-0.6c-1,0-1.7,0.8-1.7,1.8c0,1,0.7,1.8,1.7,1.8
			c0.7,0,1.2-0.4,1.4-0.6l0.2,0.6c-0.2,0.2-0.8,0.7-1.6,0.7c-1.4,0-2.4-1.1-2.4-2.5c0-1.4,1-2.5,2.4-2.5c0.9,0,1.4,0.4,1.6,0.6
			L51.6,215.5z"/>
		<path id="XMLID_553_" class="st3" d="M52.4,218.6L55,215h-2.6v-0.6h3.4v0.5l-2.7,3.6h2.7v0.6h-3.6V218.6z"/>
		<path id="XMLID_555_" class="st3" d="M56.8,212.6h0.7v2.6c0.1-0.2,0.7-0.9,1.7-0.9c1.3,0,2.2,1,2.2,2.5c0,1.4-1,2.4-2.3,2.4
			c-1,0-1.5-0.7-1.6-0.9v0.7h-0.7V212.6z M59.1,218.5c0.9,0,1.6-0.7,1.6-1.8c0-1.1-0.7-1.8-1.6-1.8c-0.9,0-1.6,0.7-1.6,1.8
			C57.5,217.7,58.1,218.5,59.1,218.5z"/>
		<path id="XMLID_558_" class="st3" d="M63.8,216.1c0.6,0,1,0.2,1.2,0.4v-0.6c0-0.7-0.4-1-1.1-1c-0.6,0-1,0.2-1.4,0.4l-0.3-0.5
			c0.3-0.2,0.9-0.5,1.7-0.5c1.3,0,1.8,0.7,1.8,1.7v3.1h-0.6l-0.1-0.4c-0.2,0.3-0.6,0.5-1.3,0.5c-1,0-1.8-0.6-1.8-1.6
			C62,216.7,62.8,216.1,63.8,216.1z M63.9,218.6c0.7,0,1.2-0.4,1.2-1c0-0.6-0.5-1-1.2-1c-0.7,0-1.2,0.4-1.2,1
			C62.8,218.2,63.2,218.6,63.9,218.6z"/>
		<path id="XMLID_561_" class="st3" d="M69.2,214.4h0.7v0.7c0.1-0.2,0.6-0.9,1.6-0.9c1.3,0,2.3,1,2.3,2.4c0,1.4-0.9,2.5-2.2,2.5
			c-1,0-1.5-0.6-1.7-0.9v2.4h-0.7V214.4z M71.5,218.5c0.9,0,1.6-0.7,1.6-1.8c0-1.1-0.7-1.8-1.6-1.8c-1,0-1.6,0.8-1.6,1.8
			C69.9,217.9,70.6,218.5,71.5,218.5z"/>
		<path id="XMLID_564_" class="st3" d="M76.2,216.1c0.6,0,1,0.2,1.2,0.4v-0.6c0-0.7-0.4-1-1.1-1c-0.6,0-1,0.2-1.4,0.4l-0.3-0.5
			c0.3-0.2,0.9-0.5,1.7-0.5c1.3,0,1.8,0.7,1.8,1.7v3.1h-0.6l-0.1-0.4c-0.2,0.3-0.6,0.5-1.3,0.5c-1,0-1.8-0.6-1.8-1.6
			C74.4,216.7,75.2,216.1,76.2,216.1z M76.3,218.6c0.7,0,1.2-0.4,1.2-1c0-0.6-0.5-1-1.2-1c-0.7,0-1.2,0.4-1.2,1
			C75.2,218.2,75.6,218.6,76.3,218.6z"/>
		<path id="XMLID_567_" class="st3" d="M81.4,215c-1.1,0-1.4,0.8-1.4,1.8v2.2h-0.7v-4.7H80v0.8c0.2-0.5,0.7-0.9,1.4-0.9V215z"/>
		<path id="XMLID_569_" class="st3" d="M82.5,213.4h0.7v1h1v0.6h-1v2.4c0,0.9,0.3,1.1,0.9,1.1c0.1,0,0.2,0,0.2,0v0.6
			c0,0-0.2,0-0.4,0c-0.9,0-1.3-0.6-1.3-1.7V215H82v-0.6h0.5V213.4z"/>
		<path id="XMLID_571_" class="st3" d="M85.5,212.7c0.3,0,0.5,0.2,0.5,0.5c0,0.3-0.2,0.5-0.5,0.5c-0.3,0-0.5-0.2-0.5-0.5
			C85,212.9,85.2,212.7,85.5,212.7z M85.1,214.4h0.7v4.7h-0.7V214.4z"/>
		<path id="XMLID_574_" class="st3" d="M87.4,212.7c0.3,0,0.5,0.2,0.5,0.5c0,0.3-0.2,0.5-0.5,0.5c-0.3,0-0.5-0.2-0.5-0.5
			C86.9,212.9,87.2,212.7,87.4,212.7z M87.1,214.4h0.7v4.7h-0.7V214.4z"/>
		<path id="XMLID_577_" class="st3" d="M89.3,218.2c0.3,0,0.5,0.2,0.5,0.5c0,0.6-0.3,1.1-0.7,1.4l-0.3-0.3c0.2-0.1,0.4-0.4,0.4-0.7
			c-0.3,0-0.4-0.3-0.4-0.5C88.8,218.4,89.1,218.2,89.3,218.2z"/>
		<path id="XMLID_579_" class="st3" d="M35,223.8h1.6c1.3,0,2,0.6,2,1.7c0,0.7-0.4,1.4-1.1,1.7l1.6,2.9h-0.8l-1.4-2.7h-1.1v2.7H35
			V223.8z M36.6,226.7c0.7,0,1.2-0.3,1.2-1.2c0-0.7-0.4-1.1-1.2-1.1h-0.8v2.3H36.6z"/>
		<path id="XMLID_582_" class="st3" d="M41.9,225.3c1.4,0,2.4,1.1,2.4,2.5c0,1.4-1,2.5-2.4,2.5s-2.4-1-2.4-2.5
			C39.5,226.3,40.5,225.3,41.9,225.3z M41.9,229.5c1,0,1.7-0.8,1.7-1.8c0-1-0.7-1.8-1.7-1.8s-1.7,0.8-1.7,1.8
			C40.2,228.8,40.9,229.5,41.9,229.5z"/>
		<path id="XMLID_585_" class="st3" d="M44.9,229.6l2.7-3.6H45v-0.6h3.4v0.5l-2.7,3.6h2.7v0.6h-3.6V229.6z"/>
		<path id="XMLID_587_" class="st3" d="M49.4,223.6h0.7v3.8l1.9-2h0.9l-2,2.1l2.1,2.6h-0.9l-2-2.5v2.5h-0.7V223.6z"/>
		<path id="XMLID_589_" class="st3" d="M53.3,226.8l0.6-0.4v-2.9h0.7v2.5l0.6-0.4v0.7l-0.6,0.4v3.3h-0.7v-2.9l-0.6,0.4V226.8z"/>
		<path id="XMLID_591_" class="st3" d="M57.5,227.1c0.6,0,1,0.2,1.2,0.4v-0.6c0-0.7-0.4-1-1.1-1c-0.6,0-1,0.2-1.4,0.4l-0.3-0.5
			c0.3-0.2,0.9-0.5,1.7-0.5c1.3,0,1.8,0.7,1.8,1.7v3.1h-0.6l-0.1-0.4c-0.2,0.3-0.6,0.5-1.3,0.5c-1,0-1.8-0.6-1.8-1.6
			C55.7,227.7,56.4,227.1,57.5,227.1z M57.6,229.6c0.7,0,1.2-0.4,1.2-1c0-0.6-0.5-1-1.2-1c-0.7,0-1.2,0.4-1.2,1
			C56.4,229.2,56.9,229.6,57.6,229.6z"/>
		<path id="XMLID_594_" class="st3" d="M64.9,230.1h-0.7v-0.7c-0.1,0.2-0.6,0.9-1.6,0.9c-1.3,0-2.3-1-2.3-2.4c0-1.4,0.9-2.5,2.2-2.5
			c1,0,1.5,0.6,1.6,0.9v-2.6h0.7V230.1z M62.6,225.9c-0.9,0-1.6,0.8-1.6,1.8c0,1.1,0.7,1.8,1.6,1.8c1,0,1.6-0.8,1.6-1.8
			C64.2,226.6,63.4,225.9,62.6,225.9z"/>
		<path id="XMLID_597_" class="st3" d="M68.9,230.8c0.2,0.1,0.7,0.4,1.4,0.4c0.9,0,1.6-0.4,1.6-1.4v-0.4c-0.1,0.2-0.6,0.9-1.6,0.9
			c-1.3,0-2.3-1-2.3-2.4c0-1.4,0.9-2.5,2.3-2.5c1,0,1.5,0.6,1.7,0.9v-0.8h0.7v4c0,1.8-1,2.4-2.4,2.4c-0.6,0-1.3-0.2-1.7-0.5
			L68.9,230.8z M70.4,225.9c-0.9,0-1.6,0.7-1.6,1.8c0,1.1,0.7,1.8,1.6,1.8c1,0,1.6-0.8,1.6-1.8C72,226.6,71.3,225.9,70.4,225.9z"/>
		<path id="XMLID_600_" class="st3" d="M73.4,226.8l0.6-0.4v-2.9h0.7v2.5l0.6-0.4v0.7l-0.6,0.4v3.3H74v-2.9l-0.6,0.4V226.8z"/>
		<path id="XMLID_602_" class="st3" d="M78.2,225.3c1.4,0,2.4,1.1,2.4,2.5c0,1.4-1,2.5-2.4,2.5s-2.4-1-2.4-2.5
			C75.8,226.3,76.8,225.3,78.2,225.3z M78.2,229.5c1,0,1.7-0.8,1.7-1.8c0-1-0.7-1.8-1.7-1.8s-1.7,0.8-1.7,1.8
			C76.5,228.8,77.2,229.5,78.2,229.5z"/>
		<path id="XMLID_605_" class="st3" d="M81.7,228.9c0.2,0.4,0.5,0.7,1.2,0.7c0.5,0,0.9-0.3,0.9-0.7c0-1.1-2.4-0.7-2.4-2.3
			c0-0.8,0.7-1.3,1.5-1.3c0.9,0,1.3,0.5,1.4,0.9l-0.5,0.3c-0.1-0.3-0.4-0.6-1-0.6c-0.4,0-0.8,0.2-0.8,0.6c0,1.1,2.4,0.7,2.4,2.3
			c0,0.8-0.7,1.4-1.6,1.4c-1,0-1.4-0.6-1.6-1L81.7,228.9z"/>
		<path id="XMLID_607_" class="st3" d="M87.5,225.3c1.4,0,2.4,1.1,2.4,2.5c0,1.4-1,2.5-2.4,2.5s-2.4-1-2.4-2.5
			C85,226.3,86.1,225.3,87.5,225.3z M87.5,229.5c1,0,1.7-0.8,1.7-1.8c0-1-0.7-1.8-1.7-1.8s-1.7,0.8-1.7,1.8
			C85.8,228.8,86.5,229.5,87.5,229.5z M87.7,223.5h0.8l-0.8,1.3H87L87.7,223.5z"/>
		<path id="XMLID_611_" class="st3" d="M93.9,226.3l-1.3,3.7h-0.8l-1.6-4.7H91l1.2,3.9c0,0,0,0,1.3-3.9h0.7c1.2,3.8,1.3,3.9,1.3,3.9
			l1.2-3.9h0.8l-1.6,4.7h-0.8L93.9,226.3z"/>
	</g>
	<g id="XMLID_7_">
	</g>
	<g id="XMLID_51_">
	</g>
	<g id="XMLID_614_">
	</g>
	<g id="XMLID_615_">
	</g>
	<g id="XMLID_616_">
	</g>
	<g id="XMLID_617_">
	</g>
	<g id="XMLID_618_">
	</g>
</g>
</svg>
