<?xml version="1.0" encoding="utf-8"?>
<!-- Generator: Adobe Illustrator 19.0.0, SVG Export Plug-In . SVG Version: 6.00 Build 0)  -->
<svg version="1.1" xmlns="http://www.w3.org/2000/svg" xmlns:xlink="http://www.w3.org/1999/xlink" x="0px" y="0px"
	 viewBox="0 0 388.7 356.2" style="enable-background:new 0 0 388.7 356.2;" xml:space="preserve">
<style type="text/css">
	.st0{fill:#FFFFFF;stroke:#000000;stroke-miterlimit:10;}
	.st1{fill:none;stroke:#000000;stroke-miterlimit:10;}
	.st2{fill:#FFFFFF;stroke:#706F6F;stroke-miterlimit:10;}
	.st3{fill:#575756;}
	.st4{fill:none;stroke:#000000;stroke-miterlimit:10;stroke-dasharray:3.6302,3.6302;}
	.st5{fill:#EDEDED;stroke:#000000;stroke-miterlimit:10;}
	.st6{display:none;}
	.st7{display:inline;fill:#EDEDED;stroke:#000000;stroke-miterlimit:10;}
	.st8{display:inline;}
	.st9{display:none;fill:none;stroke:#000000;stroke-miterlimit:10;}
	.st10{fill:none;stroke:#706F6F;stroke-miterlimit:10;}
	.st11{fill:#706F6F;}
	.st12{fill:none;}
</style>
<g id="Warstwa_1">
</g>
<g id="Warstwa_2">
	<rect id="XMLID_1_" x="98.2" y="0.5" class="st0" width="130.4" height="34"/>
	<g id="XMLID_2_">
		<path id="XMLID_530_" d="M117.6,18.8c0.2,0.6,0.7,1.2,1.6,1.2c0.8,0,1.3-0.4,1.3-1.1c0-1.8-3.8-1.4-3.8-4.1c0-1.3,1-2.3,2.5-2.3
			c1.6,0,2.3,1.1,2.5,1.7l-1.1,0.5c-0.2-0.4-0.6-1-1.4-1c-0.7,0-1.2,0.5-1.2,1c0,1.7,3.8,1.4,3.8,4c0,1.4-1,2.5-2.7,2.5
			c-1.7,0-2.5-1.2-2.7-1.9L117.6,18.8z"/>
		<path id="XMLID_532_" d="M124,23.2l0.9-2.3l-2.5-6.2h1.4l1.7,4.6l1.7-4.6h1.4l-3.3,8.4H124z"/>
		<path id="XMLID_534_" d="M129.7,19.3c0.3,0.4,0.7,0.8,1.5,0.8c0.6,0,1-0.3,1-0.8c0-1.2-3-0.8-3-2.9c0-1.1,0.9-1.8,2.1-1.8
			c1.2,0,1.8,0.7,2,1.2l-0.9,0.6c-0.2-0.3-0.5-0.7-1.2-0.7c-0.5,0-0.8,0.3-0.8,0.7c0,1.2,3.1,0.7,3.1,2.9c0,1.2-1,1.9-2.3,1.9
			c-1.3,0-1.9-0.7-2.3-1.2L129.7,19.3z"/>
		<path id="XMLID_536_" d="M134.6,13.5h1.3v1.3h1.3v1.1h-1.3v2.9c0,1,0.4,1.2,1.1,1.2c0.1,0,0.3,0,0.3,0v1.1c0,0-0.2,0-0.6,0
			c-1.5,0-2-1-2-2.6v-2.7h-0.7v-1.1h0.7V13.5z"/>
		<path id="XMLID_538_" d="M140.9,14.6c1.9,0,3,1.3,3,3.3c0,0.1,0,0.2,0,0.3h-4.7c0,1.1,0.8,1.8,1.9,1.8c0.9,0,1.5-0.5,1.7-0.9
			l0.9,0.6c-0.3,0.5-1.1,1.4-2.6,1.4c-2,0-3.3-1.4-3.3-3.3C137.9,16,139.2,14.6,140.9,14.6z M142.6,17.3c0-1-0.8-1.6-1.7-1.6
			s-1.6,0.6-1.7,1.6H142.6z"/>
		<path id="XMLID_541_" d="M153.8,21h-1.3v-3.8c0-1-0.4-1.5-1.2-1.5c-0.7,0-1.3,0.5-1.3,1.5V21h-1.3v-3.9c0-0.9-0.5-1.4-1.2-1.4
			c-0.7,0-1.3,0.6-1.3,1.5V21H145v-6.3h1.3c0,0.5,0,0.8,0,0.8c0.2-0.5,0.8-1,1.7-1c0.9,0,1.5,0.4,1.8,1c0.4-0.7,1.1-1,1.9-1
			c1.4,0,2.1,1,2.1,2.3V21z"/>
		<path id="XMLID_543_" d="M162.4,16.5L161,21h-1.4l-2-6.3h1.4l1.4,4.8c0,0,0,0,1.4-4.8h1.2c1.4,4.8,1.4,4.8,1.4,4.8l1.4-4.8h1.4
			l-2,6.3h-1.5L162.4,16.5z"/>
		<path id="XMLID_545_" d="M169.4,23.2l0.9-2.3l-2.5-6.2h1.4l1.7,4.6l1.7-4.6h1.4l-3.3,8.4H169.4z"/>
		<path id="XMLID_547_" d="M174.8,12.4h1.3v3.3c0.2-0.3,0.8-1,2-1c1.8,0,3,1.4,3,3.3c0,1.9-1.3,3.3-3.1,3.3c-1.2,0-1.8-0.8-2-1V21
			h-1.2V12.4z M177.9,20c1.1,0,1.9-0.8,1.9-2.1c0-1.3-0.8-2.1-1.9-2.1c-1,0-1.9,0.8-1.9,2.1C176,19.1,176.7,20,177.9,20z"/>
		<path id="XMLID_550_" d="M185.1,14.6c1.9,0,3.3,1.4,3.3,3.3c0,1.9-1.4,3.3-3.3,3.3c-1.9,0-3.3-1.4-3.3-3.3S183.2,14.6,185.1,14.6z
			 M185.1,20c1.2,0,2-0.9,2-2.1c0-1.2-0.9-2.1-2-2.1c-1.2,0-2,0.9-2,2.1C183.1,19.1,183.9,20,185.1,20z"/>
		<path id="XMLID_553_" d="M192.5,15.9c-1.4,0-1.8,1-1.8,2.4V21h-1.3v-6.3h1.3v1c0.2-0.6,0.9-1.1,1.8-1.1V15.9z"/>
		<path id="XMLID_555_" d="M198.1,16.5c-0.3-0.3-0.9-0.7-1.7-0.7c-1.2,0-2,0.9-2,2.1c0,1.2,0.9,2.1,2,2.1c0.8,0,1.4-0.5,1.6-0.7
			l0.4,1.1c-0.3,0.3-1,0.8-2.1,0.8c-1.9,0-3.3-1.4-3.3-3.3c0-1.9,1.4-3.3,3.3-3.3c1,0,1.7,0.5,2.1,0.8L198.1,16.5z"/>
		<path id="XMLID_557_" d="M199.2,20.2l3.2-4.3h-3.1v-1.1h4.7v0.9l-3.2,4.3h3.2V21h-4.8V20.2z"/>
		<path id="XMLID_559_" d="M206,23.2l0.9-2.3l-2.5-6.2h1.4l1.7,4.6l1.7-4.6h1.4l-3.3,8.4H206z"/>
	</g>
	<g id="XMLID_6_">
		<g id="XMLID_4_">
			<g id="XMLID_17_">
				<line id="XMLID_20_" class="st1" x1="163.4" y1="45.3" x2="191.8" y2="85.9"/>
				<g id="XMLID_18_">
					<polygon id="XMLID_19_" points="186.9,87.5 195.9,91.8 195.1,81.8 					"/>
				</g>
			</g>
		</g>
		<g id="XMLID_5_">
			<g id="XMLID_22_">
				<line id="XMLID_25_" class="st1" x1="163.4" y1="45.3" x2="135" y2="85.9"/>
				<g id="XMLID_23_">
					<polygon id="XMLID_24_" points="131.8,81.8 130.9,91.8 139.9,87.5 					"/>
				</g>
			</g>
		</g>
	</g>
	<rect id="XMLID_3_" x="0.5" y="99" class="st2" width="130.4" height="34"/>
	<g id="XMLID_8_">
		<path id="XMLID_486_" class="st3" d="M10.7,111.1h4v0.9h-3v2.8h2.6v0.9h-2.6v3h3.1v0.9h-4.1V111.1z"/>
		<path id="XMLID_488_" class="st3" d="M16.5,114.1h-0.7v-0.8h0.7V113c0-1.6,0.9-2.1,2-2.1c0.2,0,0.4,0,0.4,0v0.8c0,0-0.2,0-0.3,0
			c-0.7,0-1.1,0.4-1.1,1.2v0.3h1.3v0.8h-1.3v5.4h-1V114.1z"/>
		<path id="XMLID_490_" class="st3" d="M22.3,113.1c1.8,0,3,1.3,3,3.2c0,0,0,0.2,0,0.3h-5c0,1.4,0.9,2.2,2.2,2.2
			c1.1,0,1.6-0.6,1.9-1l0.6,0.5c-0.3,0.6-1.2,1.4-2.6,1.4c-1.9,0-3.2-1.3-3.2-3.3C19.3,114.4,20.6,113.1,22.3,113.1z M24.3,115.9
			c-0.1-1.3-1-2-2-2c-1,0-1.9,0.8-2,2H24.3z"/>
		<path id="XMLID_493_" class="st3" d="M26.5,110.9h0.9v5.1l2.5-2.7h1.2l-2.7,2.8l2.8,3.4h-1.2l-2.7-3.3v3.3h-0.9V110.9z"/>
		<path id="XMLID_495_" class="st3" d="M32.5,112h0.9v1.3h1.4v0.8h-1.4v3.2c0,1.2,0.3,1.4,1.2,1.4c0.1,0,0.3,0,0.3,0v0.8
			c0,0-0.3,0-0.6,0c-1.2,0-1.8-0.8-1.8-2.2v-3.3h-0.7v-0.8h0.7V112z"/>
		<path id="XMLID_497_" class="st3" d="M40.1,113.3H41l-0.2,1c0.2-0.2,1-1.1,2.4-1.1c1.6,0,2.6,1.1,2.6,2.7c0,2.2-1.6,3.8-3.6,3.8
			c-1.3,0-1.9-0.8-2-1.2l-0.5,3.3h-0.9L40.1,113.3z M42.2,118.8c1.4,0,2.6-1.2,2.6-2.9c0-1.2-0.7-2-1.8-2c-1.5,0-2.6,1.3-2.6,2.8
			C40.4,118.1,41.1,118.8,42.2,118.8z"/>
		<path id="XMLID_500_" class="st3" d="M46.8,117.9c0.2,0.5,0.6,0.9,1.4,0.9c0.7,0,1.3-0.4,1.3-1.1c0-1.2-2.7-1.1-2.7-2.8
			c0-1.1,1-1.8,2.3-1.8c1.2,0,1.7,0.7,1.8,1.2l-0.8,0.4c-0.1-0.3-0.4-0.8-1.2-0.8c-0.6,0-1.2,0.3-1.2,1c0,1.2,2.7,1.2,2.7,2.9
			c0,1.2-0.9,1.9-2.4,1.9c-1.3,0-1.8-0.8-2-1.3L46.8,117.9z"/>
		<path id="XMLID_502_" class="st3" d="M51.9,121.7l1.3-2.2l-1.5-6.2h1l1.1,5l2.8-5h1l-4.7,8.4H51.9z"/>
		<path id="XMLID_504_" class="st3" d="M62.9,114.8c-0.2-0.3-0.8-0.8-1.7-0.8c-1.5,0-2.7,1.2-2.7,2.8c0,1.2,0.8,2,1.9,2
			c1,0,1.7-0.6,2-0.8l0.2,0.9c-0.3,0.3-1.1,0.8-2.3,0.8c-1.7,0-2.7-1.2-2.7-2.8c0-2.1,1.7-3.7,3.7-3.7c1.1,0,1.8,0.5,2.1,0.9
			L62.9,114.8z"/>
		<path id="XMLID_506_" class="st3" d="M69.3,115.6l-0.6,3.9h-0.9l0.7-3.9c0.2-1-0.4-1.6-1.2-1.6c-1,0-1.8,0.7-1.9,1.7l-0.6,3.8
			h-0.9l1.5-8.7H66l-0.6,3.3c0.4-0.6,1.2-1.1,2-1.1C68.9,113.1,69.5,114.2,69.3,115.6z"/>
		<path id="XMLID_508_" class="st3" d="M74.1,113.1c1.7,0,2.8,1.2,2.8,2.8c0,2.1-1.8,3.8-3.9,3.8c-1.7,0-2.8-1.2-2.8-2.8
			C70.2,114.8,72,113.1,74.1,113.1z M73.1,118.8c1.5,0,2.7-1.2,2.7-2.8c0-1.2-0.8-2-1.9-2c-1.5,0-2.7,1.2-2.7,2.8
			C71.2,118,72,118.8,73.1,118.8z"/>
		<path id="XMLID_511_" class="st3" d="M78.9,110.9h0.9l-1.5,8.7h-0.9L78.9,110.9z"/>
		<path id="XMLID_513_" class="st3" d="M84,113.1c1.7,0,2.8,1.2,2.8,2.8c0,2.1-1.8,3.8-3.9,3.8c-1.7,0-2.8-1.2-2.8-2.8
			C80.1,114.8,81.9,113.1,84,113.1z M83,118.8c1.5,0,2.7-1.2,2.7-2.8c0-1.2-0.8-2-1.9-2c-1.5,0-2.7,1.2-2.7,2.8
			C81.1,118,81.9,118.8,83,118.8z"/>
		<path id="XMLID_516_" class="st3" d="M87.9,120.5c0.2,0.1,0.9,0.5,1.8,0.5c1.2,0,2.3-0.5,2.5-1.9l0.1-0.6c-0.2,0.2-1,1.1-2.4,1.1
			c-1.6,0-2.5-1.1-2.5-2.7c0-2.2,1.6-3.9,3.6-3.9c1.3,0,1.9,0.8,2.1,1.2l0.2-1h0.9l-0.9,5.6c-0.4,2.2-1.8,3-3.6,3
			c-0.8,0-1.7-0.3-2.2-0.6L87.9,120.5z M91,114c-1.4,0-2.6,1.2-2.6,2.8c0,1.2,0.7,2,1.8,2c1.5,0,2.6-1.3,2.6-2.8
			C92.7,114.7,92,114,91,114z"/>
		<path id="XMLID_519_" class="st3" d="M95.7,113.3h0.9l-1,6.2h-0.9L95.7,113.3z M96.6,111c0.3,0,0.6,0.2,0.6,0.6
			c0,0.4-0.4,0.7-0.8,0.7c-0.3,0-0.5-0.2-0.5-0.6C95.8,111.4,96.2,111,96.6,111z"/>
		<path id="XMLID_522_" class="st3" d="M102.7,114.8c-0.2-0.3-0.8-0.8-1.7-0.8c-1.5,0-2.7,1.2-2.7,2.8c0,1.2,0.8,2,1.9,2
			c1,0,1.7-0.6,2-0.8l0.2,0.9c-0.3,0.3-1.1,0.8-2.3,0.8c-1.7,0-2.7-1.2-2.7-2.8c0-2.1,1.7-3.7,3.7-3.7c1.1,0,1.8,0.5,2.1,0.9
			L102.7,114.8z"/>
		<path id="XMLID_524_" class="st3" d="M103.1,118.9l4.3-4.7H104l0.1-0.8h4.6l-0.1,0.7l-4.3,4.7h3.6l-0.1,0.8H103L103.1,118.9z"/>
		<path id="XMLID_526_" class="st3" d="M114.6,115.6l-0.6,3.9H113l0.7-3.9c0.2-1-0.4-1.6-1.2-1.6c-1,0-1.7,0.7-1.9,1.7l-0.6,3.8
			h-0.9l1-6.2h0.9l-0.2,0.9c0.4-0.6,1.2-1.1,2-1.1C114.3,113.1,114.8,114.2,114.6,115.6z"/>
		<path id="XMLID_528_" class="st3" d="M115.9,121.7l1.3-2.2l-1.5-6.2h1l1.1,5l2.8-5h1l-4.7,8.4H115.9z"/>
	</g>
	<rect id="XMLID_9_" x="195.9" y="99" class="st0" width="130.4" height="34"/>
	<g id="XMLID_10_">
		<path id="XMLID_450_" d="M212.7,111.1h4v0.9h-3v2.8h2.6v0.9h-2.6v3h3.1v0.9h-4.1V111.1z"/>
		<path id="XMLID_452_" d="M218.5,114.1h-0.7v-0.8h0.7V113c0-1.6,0.9-2.1,2-2.1c0.2,0,0.4,0,0.4,0v0.8c0,0-0.2,0-0.3,0
			c-0.7,0-1.1,0.4-1.1,1.2v0.3h1.3v0.8h-1.3v5.4h-1V114.1z"/>
		<path id="XMLID_454_" d="M224.3,113.1c1.8,0,3,1.3,3,3.2c0,0,0,0.2,0,0.3h-5c0,1.4,0.9,2.2,2.2,2.2c1.1,0,1.6-0.6,1.9-1l0.6,0.5
			c-0.3,0.6-1.2,1.4-2.6,1.4c-1.9,0-3.2-1.3-3.2-3.3C221.3,114.4,222.6,113.1,224.3,113.1z M226.3,115.9c-0.1-1.3-1-2-2-2
			c-1,0-1.9,0.8-2,2H226.3z"/>
		<path id="XMLID_457_" d="M228.5,110.9h0.9v5.1l2.5-2.7h1.2l-2.7,2.8l2.8,3.4h-1.2l-2.7-3.3v3.3h-0.9V110.9z"/>
		<path id="XMLID_459_" d="M234.5,112h0.9v1.3h1.4v0.8h-1.4v3.2c0,1.2,0.3,1.4,1.2,1.4c0.1,0,0.3,0,0.3,0v0.8c0,0-0.3,0-0.6,0
			c-1.2,0-1.8-0.8-1.8-2.2v-3.3h-0.7v-0.8h0.7V112z"/>
		<path id="XMLID_461_" d="M249.7,119.5h-0.9l0.6-3.8c0.2-1.2-0.2-1.8-1.1-1.8c-0.9,0-1.6,0.6-1.8,1.8l-0.6,3.7h-0.9l0.7-3.9
			c0.2-1-0.3-1.6-1.2-1.6c-0.8,0-1.6,0.7-1.8,1.8l-0.6,3.8H241l1-6.2h0.9c-0.1,0.6-0.2,0.9-0.2,0.9c0.3-0.5,1.1-1.1,1.9-1.1
			c0.9,0,1.5,0.5,1.7,1.1c0.5-0.7,1.3-1.1,2.2-1.1c1.4,0,2,1,1.7,2.4L249.7,119.5z"/>
		<path id="XMLID_463_" d="M254.9,113.1c1.7,0,2.6,1,2.6,2.6c0,0.4-0.1,0.8-0.1,0.9h-5c-0.2,1.4,0.6,2.2,1.9,2.2
			c1.1,0,1.7-0.6,2.1-1l0.6,0.5c-0.4,0.6-1.4,1.3-2.8,1.3c-1.7,0-2.7-1.1-2.7-2.7C251.4,114.8,253,113.1,254.9,113.1z M256.5,115.9
			c0.2-1.3-0.6-2-1.7-2c-1.1,0-2.1,0.8-2.4,2H256.5z"/>
		<path id="XMLID_466_" d="M263.5,114.8c-0.2-0.3-0.8-0.8-1.7-0.8c-1.5,0-2.7,1.2-2.7,2.8c0,1.2,0.8,2,1.9,2c1,0,1.7-0.6,2-0.8
			l0.2,0.9c-0.3,0.3-1.1,0.8-2.3,0.8c-1.7,0-2.7-1.2-2.7-2.8c0-2.1,1.7-3.7,3.7-3.7c1.1,0,1.8,0.5,2.1,0.9L263.5,114.8z"/>
		<path id="XMLID_468_" d="M269.9,115.6l-0.6,3.9h-0.9l0.7-3.9c0.2-1-0.4-1.6-1.2-1.6c-1,0-1.8,0.7-1.9,1.7l-0.6,3.8h-0.9l1.5-8.7
			h0.9l-0.6,3.3c0.4-0.6,1.2-1.1,2-1.1C269.6,113.1,270.1,114.2,269.9,115.6z"/>
		<path id="XMLID_470_" d="M273.5,115.6c0.8,0,1.3,0.3,1.5,0.6l0.1-0.8c0.1-0.9-0.4-1.4-1.3-1.4c-0.7,0-1.4,0.3-1.9,0.6l-0.3-0.7
			c0.5-0.3,1.3-0.7,2.4-0.7c1.6,0,2.3,0.9,2,2.3l-0.7,4.1h-0.8l0-0.5c-0.4,0.4-1,0.7-1.8,0.7c-1.2,0-2.1-0.7-2.1-1.8
			C270.7,116.6,271.9,115.6,273.5,115.6z M273.1,118.9c1,0,1.8-0.6,1.8-1.5c0-0.7-0.5-1.1-1.4-1.1c-1,0-1.8,0.6-1.8,1.5
			C271.7,118.4,272.2,118.9,273.1,118.9z"/>
		<path id="XMLID_473_" d="M282.6,115.6l-0.6,3.9H281l0.7-3.9c0.2-1-0.4-1.6-1.2-1.6c-1,0-1.7,0.7-1.9,1.7l-0.6,3.8h-0.9l1-6.2h0.9
			l-0.2,0.9c0.4-0.6,1.2-1.1,2-1.1C282.3,113.1,282.8,114.2,282.6,115.6z"/>
		<path id="XMLID_475_" d="M284.6,113.3h0.9l-1,6.2h-0.9L284.6,113.3z M285.4,111c0.3,0,0.6,0.2,0.6,0.6c0,0.4-0.4,0.7-0.8,0.7
			c-0.3,0-0.5-0.2-0.5-0.6C284.7,111.4,285,111,285.4,111z"/>
		<path id="XMLID_478_" d="M291.5,114.8c-0.2-0.3-0.8-0.8-1.7-0.8c-1.5,0-2.7,1.2-2.7,2.8c0,1.2,0.8,2,1.9,2c1,0,1.7-0.6,2-0.8
			l0.2,0.9c-0.3,0.3-1.1,0.8-2.3,0.8c-1.7,0-2.7-1.2-2.7-2.8c0-2.1,1.7-3.7,3.7-3.7c1.1,0,1.8,0.5,2.1,0.9L291.5,114.8z"/>
		<path id="XMLID_480_" d="M291.9,118.9l4.3-4.7h-3.4l0.1-0.8h4.6l-0.1,0.7l-4.3,4.7h3.6l-0.1,0.8h-4.8L291.9,118.9z"/>
		<path id="XMLID_482_" d="M303.4,115.6l-0.6,3.9h-0.9l0.7-3.9c0.2-1-0.4-1.6-1.2-1.6c-1,0-1.7,0.7-1.9,1.7l-0.6,3.8h-0.9l1-6.2h0.9
			l-0.2,0.9c0.4-0.6,1.2-1.1,2-1.1C303.1,113.1,303.7,114.2,303.4,115.6z"/>
		<path id="XMLID_484_" d="M304.8,121.7l1.3-2.2l-1.5-6.2h1l1.1,5l2.8-5h1l-4.7,8.4H304.8z"/>
	</g>
	<g id="XMLID_11_">
		<g id="XMLID_37_">
			<line id="XMLID_40_" class="st1" x1="261.1" y1="142.2" x2="261.1" y2="186.1"/>
			<g id="XMLID_38_">
				<polygon id="XMLID_39_" points="256.1,184.6 261.1,193.3 266.1,184.6 				"/>
			</g>
		</g>
	</g>
	<g id="XMLID_12_">
		<path id="XMLID_326_" d="M175.8,209.5h2c2.8,0,4.5,1.6,4.5,4.2c0,2.7-1.7,4.2-4.5,4.2h-2V209.5z M177.9,216.8c1.8,0,3-1,3-3
			c0-1.9-1.2-3-3-3h-0.8v6.1H177.9z"/>
		<path id="XMLID_329_" d="M184.6,220.1l0.9-2.3l-2.5-6.2h1.4l1.7,4.6l1.7-4.6h1.4l-3.3,8.4H184.6z"/>
		<path id="XMLID_331_" d="M190.3,216.2c0.3,0.4,0.7,0.8,1.5,0.8c0.6,0,1-0.3,1-0.8c0-1.2-3-0.8-3-2.9c0-1.1,0.9-1.8,2.1-1.8
			c1.2,0,1.8,0.7,2,1.2l-0.9,0.6c-0.2-0.3-0.5-0.7-1.2-0.7c-0.5,0-0.8,0.3-0.8,0.7c0,1.2,3.1,0.7,3.1,2.9c0,1.2-1,1.9-2.3,1.9
			c-1.3,0-1.9-0.7-2.3-1.2L190.3,216.2z"/>
		<path id="XMLID_333_" d="M195.1,211.7h1.2v0.8c0.2-0.2,0.8-1,2-1c1.8,0,3.1,1.4,3.1,3.3c0,1.9-1.2,3.3-3,3.3c-1.2,0-1.9-0.7-2-1
			v3.1h-1.3V211.7z M198.2,216.9c1.1,0,1.9-0.9,1.9-2.1c0-1.3-0.8-2.1-1.9-2.1c-1.2,0-1.9,1-1.9,2.1
			C196.3,216.1,197.2,216.9,198.2,216.9z"/>
		<path id="XMLID_336_" d="M205.6,212.8c-1.4,0-1.8,1-1.8,2.4v2.7h-1.3v-6.3h1.3v1c0.2-0.6,0.9-1.1,1.8-1.1V212.8z"/>
		<path id="XMLID_338_" d="M209.3,211.5c1.9,0,3.3,1.4,3.3,3.3c0,1.9-1.4,3.3-3.3,3.3c-1.9,0-3.3-1.4-3.3-3.3
			S207.5,211.5,209.3,211.5z M209.3,216.9c1.2,0,2-0.9,2-2.1c0-1.2-0.9-2.1-2-2.1c-1.2,0-2,0.9-2,2.1
			C207.3,216,208.2,216.9,209.3,216.9z"/>
		<path id="XMLID_341_" d="M213.7,211.7h1.2v0.8c0.2-0.2,0.8-1,2-1c1.8,0,3.1,1.4,3.1,3.3c0,1.9-1.2,3.3-3,3.3c-1.2,0-1.9-0.7-2-1
			v3.1h-1.3V211.7z M216.9,216.9c1.1,0,1.9-0.9,1.9-2.1c0-1.3-0.8-2.1-1.9-2.1c-1.2,0-1.9,1-1.9,2.1
			C215,216.1,215.8,216.9,216.9,216.9z"/>
		<path id="XMLID_344_" d="M224.1,211.5c1.9,0,3.3,1.4,3.3,3.3c0,1.9-1.4,3.3-3.3,3.3c-1.9,0-3.3-1.4-3.3-3.3
			S222.2,211.5,224.1,211.5z M224.1,216.9c1.2,0,2-0.9,2-2.1c0-1.2-0.9-2.1-2-2.1c-1.2,0-2,0.9-2,2.1
			C222.1,216,222.9,216.9,224.1,216.9z"/>
		<path id="XMLID_347_" d="M231.6,212.8c-1.4,0-1.8,1-1.8,2.4v2.7h-1.3v-6.3h1.3v1c0.2-0.6,0.9-1.1,1.8-1.1V212.8z"/>
		<path id="XMLID_349_" d="M237.1,213.4c-0.3-0.3-0.9-0.7-1.7-0.7c-1.2,0-2,0.9-2,2.1c0,1.2,0.9,2.1,2,2.1c0.8,0,1.4-0.5,1.6-0.7
			l0.4,1.1c-0.3,0.3-1,0.8-2.1,0.8c-1.9,0-3.3-1.4-3.3-3.3c0-1.9,1.4-3.3,3.3-3.3c1,0,1.7,0.5,2.1,0.8L237.1,213.4z"/>
		<path id="XMLID_351_" d="M238.5,211.7h1.3v6.4c0,1.6-1,2.1-2.2,2.1c-0.2,0-0.4,0-0.4,0v-1.1c0,0,0.2,0,0.3,0c0.6,0,1-0.3,1-1.1
			V211.7z M239.2,209.3c0.5,0,0.8,0.4,0.8,0.8c0,0.5-0.4,0.8-0.8,0.8c-0.5,0-0.8-0.4-0.8-0.8C238.4,209.7,238.7,209.3,239.2,209.3z"
			/>
		<path id="XMLID_354_" d="M244.2,211.5c1.9,0,3.3,1.4,3.3,3.3c0,1.9-1.4,3.3-3.3,3.3c-1.9,0-3.3-1.4-3.3-3.3
			S242.4,211.5,244.2,211.5z M244.2,216.9c1.2,0,2-0.9,2-2.1c0-1.2-0.9-2.1-2-2.1c-1.2,0-2,0.9-2,2.1
			C242.2,216,243.1,216.9,244.2,216.9z"/>
		<path id="XMLID_357_" d="M253.9,214.2v3.8h-1.3v-3.9c0-0.9-0.5-1.4-1.3-1.4c-0.8,0-1.4,0.6-1.4,1.5v3.8h-1.3v-6.3h1.3v0.8
			c0.3-0.5,0.9-1,1.8-1C253.3,211.5,253.9,212.8,253.9,214.2z"/>
		<path id="XMLID_359_" d="M257.3,213.9c0.7,0,1.3,0.2,1.5,0.5v-0.6c0-0.7-0.5-1.2-1.3-1.2c-0.7,0-1.3,0.2-1.8,0.5l-0.5-0.9
			c0.5-0.3,1.3-0.7,2.4-0.7c1.9,0,2.5,1,2.5,2.4v4H259l-0.1-0.5c-0.3,0.4-0.8,0.6-1.6,0.6c-1.3,0-2.4-0.8-2.4-2.1
			C254.9,214.8,255.9,213.9,257.3,213.9z M257.5,217c0.8,0,1.3-0.4,1.3-1.1c0-0.7-0.5-1.1-1.3-1.1c-0.8,0-1.3,0.5-1.3,1.1
			C256.2,216.6,256.8,217,257.5,217z"/>
		<path id="XMLID_362_" d="M261.5,209.3h1.3v8.7h-1.3V209.3z"/>
		<path id="XMLID_364_" d="M269.5,214.2v3.8h-1.3v-3.9c0-0.9-0.5-1.4-1.3-1.4c-0.8,0-1.4,0.6-1.4,1.5v3.8h-1.3v-6.3h1.3v0.8
			c0.3-0.5,0.9-1,1.8-1C268.9,211.5,269.5,212.8,269.5,214.2z"/>
		<path id="XMLID_366_" d="M273.8,211.5c1.9,0,3.3,1.4,3.3,3.3c0,1.9-1.4,3.3-3.3,3.3c-1.9,0-3.3-1.4-3.3-3.3S272,211.5,273.8,211.5
			z M273.8,216.9c1.2,0,2-0.9,2-2.1c0-1.2-0.9-2.1-2-2.1c-1.2,0-2,0.9-2,2.1C271.9,216,272.7,216.9,273.8,216.9z"/>
		<path id="XMLID_369_" d="M278.6,216.2c0.3,0.4,0.7,0.8,1.5,0.8c0.6,0,1-0.3,1-0.8c0-1.2-3-0.8-3-2.9c0-1.1,0.9-1.8,2.1-1.8
			c1.2,0,1.8,0.7,2,1.2l-0.9,0.6c-0.2-0.3-0.5-0.7-1.2-0.7c-0.5,0-0.8,0.3-0.8,0.7c0,1.2,3.1,0.7,3.1,2.9c0,1.2-1,1.9-2.3,1.9
			c-1.3,0-1.9-0.7-2.3-1.2L278.6,216.2z M280.2,209.2h1.4l-1.1,1.7h-1.1L280.2,209.2z"/>
		<path id="XMLID_372_" d="M287.9,213.4c-0.3-0.3-0.9-0.7-1.7-0.7c-1.2,0-2,0.9-2,2.1c0,1.2,0.9,2.1,2,2.1c0.8,0,1.4-0.5,1.6-0.7
			l0.4,1.1c-0.3,0.3-1,0.8-2.1,0.8c-1.9,0-3.3-1.4-3.3-3.3c0-1.9,1.4-3.3,3.3-3.3c1,0,1.7,0.5,2.1,0.8L287.9,213.4z M286.2,209.2
			h1.4l-1.1,1.7h-1.1L286.2,209.2z"/>
		<path id="XMLID_375_" d="M296.6,213.4l-1.4,4.5h-1.4l-2-6.3h1.4l1.4,4.8c0,0,0,0,1.4-4.8h1.2c1.4,4.8,1.4,4.8,1.4,4.8l1.4-4.8h1.4
			l-2,6.3H298L296.6,213.4z"/>
		<path id="XMLID_377_" d="M303.5,220.1l0.9-2.3l-2.5-6.2h1.4l1.7,4.6l1.7-4.6h1.4l-3.3,8.4H303.5z"/>
		<path id="XMLID_379_" d="M308.9,209.3h1.3v3.3c0.2-0.3,0.8-1,2-1c1.8,0,3,1.4,3,3.3c0,1.9-1.3,3.3-3.1,3.3c-1.2,0-1.8-0.8-2-1v0.8
			h-1.2V209.3z M312,216.9c1.1,0,1.9-0.8,1.9-2.1c0-1.3-0.8-2.1-1.9-2.1c-1,0-1.9,0.8-1.9,2.1C310.2,216,310.9,216.9,312,216.9z"/>
		<path id="XMLID_382_" d="M319.2,211.5c1.9,0,3.3,1.4,3.3,3.3c0,1.9-1.4,3.3-3.3,3.3c-1.9,0-3.3-1.4-3.3-3.3
			S317.3,211.5,319.2,211.5z M319.2,216.9c1.2,0,2-0.9,2-2.1c0-1.2-0.9-2.1-2-2.1c-1.2,0-2,0.9-2,2.1
			C317.2,216,318.1,216.9,319.2,216.9z"/>
		<path id="XMLID_385_" d="M326.7,212.8c-1.4,0-1.8,1-1.8,2.4v2.7h-1.3v-6.3h1.3v1c0.2-0.6,0.9-1.1,1.8-1.1V212.8z"/>
		<path id="XMLID_387_" d="M332.2,213.4c-0.3-0.3-0.9-0.7-1.7-0.7c-1.2,0-2,0.9-2,2.1c0,1.2,0.9,2.1,2,2.1c0.8,0,1.4-0.5,1.6-0.7
			l0.4,1.1c-0.3,0.3-1,0.8-2.1,0.8c-1.9,0-3.3-1.4-3.3-3.3c0-1.9,1.4-3.3,3.3-3.3c1,0,1.7,0.5,2.1,0.8L332.2,213.4z"/>
		<path id="XMLID_389_" d="M333.3,217.1l3.2-4.3h-3.1v-1.1h4.7v0.9l-3.2,4.3h3.2v1.1h-4.8V217.1z"/>
		<path id="XMLID_391_" d="M341.3,213.9c0.7,0,1.3,0.2,1.5,0.5v-0.6c0-0.7-0.5-1.2-1.3-1.2c-0.7,0-1.3,0.2-1.8,0.5l-0.5-0.9
			c0.5-0.3,1.3-0.7,2.4-0.7c1.9,0,2.5,1,2.5,2.4v4H343l-0.1-0.5c-0.3,0.4-0.8,0.6-1.6,0.6c-1.3,0-2.4-0.8-2.4-2.1
			C338.9,214.8,339.9,213.9,341.3,213.9z M341.5,217c0.8,0,1.3-0.4,1.3-1.1c0-0.7-0.5-1.1-1.3-1.1c-0.8,0-1.3,0.5-1.3,1.1
			C340.2,216.6,340.7,217,341.5,217z"/>
		<path id="XMLID_394_" d="M346,216.7c0.4,0,0.7,0.3,0.7,0.7c0,0.9-0.4,1.5-0.9,1.9l-0.4-0.4c0.2-0.2,0.5-0.5,0.6-0.9
			c-0.4,0-0.6-0.3-0.6-0.7C345.3,217,345.6,216.7,346,216.7z"/>
		<path id="XMLID_396_" d="M194.3,223.9h4.1v1.2h-2.8v2.4h2.5v1.2h-2.5v3.6h-1.3V223.9z"/>
		<path id="XMLID_398_" d="M202.7,227.2c-1.4,0-1.8,1-1.8,2.4v2.7h-1.3v-6.3h1.3v1c0.2-0.6,0.9-1.1,1.8-1.1V227.2z"/>
		<path id="XMLID_400_" d="M205.7,228.3c0.7,0,1.3,0.2,1.5,0.5v-0.6c0-0.7-0.5-1.2-1.3-1.2c-0.7,0-1.3,0.2-1.8,0.5l-0.5-0.9
			c0.5-0.3,1.3-0.7,2.4-0.7c1.9,0,2.5,1,2.5,2.4v4h-1.1l-0.1-0.5c-0.3,0.4-0.8,0.6-1.6,0.6c-1.3,0-2.4-0.8-2.4-2.1
			C203.3,229.2,204.3,228.3,205.7,228.3z M206,231.4c0.8,0,1.3-0.4,1.3-1.1c0-0.7-0.5-1.1-1.3-1.1c-0.8,0-1.3,0.5-1.3,1.1
			C204.6,231,205.2,231.4,206,231.4z"/>
		<path id="XMLID_403_" d="M210.7,233c0.2,0.1,1,0.5,1.8,0.5c1,0,2-0.4,2-1.6v-0.4c-0.1,0.2-0.8,1-2,1c-1.8,0-3-1.4-3-3.3
			c0-1.9,1.2-3.3,3-3.3c1.2,0,1.8,0.7,2,1v-0.8h1.2v5.4c0,2.4-1.4,3.1-3.3,3.1c-0.8,0-1.7-0.3-2.3-0.6L210.7,233z M212.7,227.1
			c-1.1,0-1.9,0.9-1.9,2.1c0,1.3,0.8,2.1,1.9,2.1c1.1,0,1.9-0.9,1.9-2.1C214.6,227.9,213.8,227.1,212.7,227.1z"/>
		<path id="XMLID_406_" d="M226.1,232.3h-1.3v-3.8c0-1-0.4-1.5-1.2-1.5c-0.7,0-1.3,0.5-1.3,1.5v3.7H221v-3.9c0-0.9-0.5-1.4-1.2-1.4
			c-0.7,0-1.3,0.6-1.3,1.5v3.8h-1.3v-6.3h1.3c0,0.5,0,0.8,0,0.8c0.2-0.5,0.8-1,1.7-1c0.9,0,1.5,0.4,1.8,1c0.4-0.7,1.1-1,1.9-1
			c1.4,0,2.1,1,2.1,2.3V232.3z"/>
		<path id="XMLID_408_" d="M230.2,225.9c1.9,0,3,1.3,3,3.3c0,0.1,0,0.2,0,0.3h-4.7c0,1.1,0.8,1.8,1.9,1.8c0.9,0,1.5-0.5,1.7-0.9
			l0.9,0.6c-0.3,0.5-1.1,1.4-2.6,1.4c-2,0-3.3-1.4-3.3-3.3C227.1,227.3,228.5,225.9,230.2,225.9z M231.9,228.6c0-1-0.8-1.6-1.7-1.6
			s-1.6,0.6-1.7,1.6H231.9z"/>
		<path id="XMLID_411_" d="M239.5,228.6v3.8h-1.3v-3.9c0-0.9-0.5-1.4-1.3-1.4c-0.8,0-1.4,0.6-1.4,1.5v3.8h-1.3v-6.3h1.3v0.8
			c0.3-0.5,0.9-1,1.8-1C238.9,225.9,239.5,227.2,239.5,228.6z"/>
		<path id="XMLID_413_" d="M241,224.8h1.3v1.3h1.3v1.1h-1.3v2.9c0,1,0.4,1.2,1.1,1.2c0.1,0,0.3,0,0.3,0v1.1c0,0-0.2,0-0.6,0
			c-1.5,0-2-1-2-2.6v-2.7h-0.7v-1.1h0.7V224.8z"/>
		<path id="XMLID_415_" d="M246.7,228.3c0.7,0,1.3,0.2,1.5,0.5v-0.6c0-0.7-0.5-1.2-1.3-1.2c-0.7,0-1.3,0.2-1.8,0.5l-0.5-0.9
			c0.5-0.3,1.3-0.7,2.4-0.7c1.9,0,2.5,1,2.5,2.4v4h-1.1l-0.1-0.5c-0.3,0.4-0.8,0.6-1.6,0.6c-1.3,0-2.4-0.8-2.4-2.1
			C244.3,229.2,245.3,228.3,246.7,228.3z M246.9,231.4c0.8,0,1.3-0.4,1.3-1.1c0-0.7-0.5-1.1-1.3-1.1c-0.8,0-1.3,0.5-1.3,1.1
			C245.6,231,246.1,231.4,246.9,231.4z"/>
		<path id="XMLID_418_" d="M255.5,227.8c-0.3-0.3-0.9-0.7-1.7-0.7c-1.2,0-2,0.9-2,2.1c0,1.2,0.9,2.1,2,2.1c0.8,0,1.4-0.5,1.6-0.7
			l0.4,1.1c-0.3,0.3-1,0.8-2.1,0.8c-1.9,0-3.3-1.4-3.3-3.3c0-1.9,1.4-3.3,3.3-3.3c1,0,1.7,0.5,2.1,0.8L255.5,227.8z"/>
		<path id="XMLID_420_" d="M256.9,226.1h1.3v6.4c0,1.6-1,2.1-2.2,2.1c-0.2,0-0.4,0-0.4,0v-1.1c0,0,0.2,0,0.3,0c0.6,0,1-0.3,1-1.1
			V226.1z M257.5,223.7c0.5,0,0.8,0.4,0.8,0.8c0,0.5-0.4,0.8-0.8,0.8c-0.5,0-0.8-0.4-0.8-0.8C256.7,224.1,257.1,223.7,257.5,223.7z"
			/>
		<path id="XMLID_423_" d="M261.7,228.3c0.7,0,1.3,0.2,1.5,0.5v-0.6c0-0.7-0.5-1.2-1.3-1.2c-0.7,0-1.3,0.2-1.8,0.5l-0.5-0.9
			c0.5-0.3,1.3-0.7,2.4-0.7c1.9,0,2.5,1,2.5,2.4v4h-1.1l-0.1-0.5c-0.3,0.4-0.8,0.6-1.6,0.6c-1.3,0-2.4-0.8-2.4-2.1
			C259.3,229.2,260.3,228.3,261.7,228.3z M261.9,231.4c0.8,0,1.3-0.4,1.3-1.1c0-0.7-0.5-1.1-1.3-1.1c-0.8,0-1.3,0.5-1.3,1.1
			C260.6,231,261.1,231.4,261.9,231.4z"/>
		<path id="XMLID_426_" d="M268.9,226.1h1.2v0.8c0.2-0.2,0.8-1,2-1c1.8,0,3.1,1.4,3.1,3.3c0,1.9-1.2,3.3-3,3.3c-1.2,0-1.9-0.7-2-1
			v3.1h-1.3V226.1z M272,231.3c1.1,0,1.9-0.9,1.9-2.1c0-1.3-0.8-2.1-1.9-2.1c-1.2,0-1.9,1-1.9,2.1C270.2,230.5,271,231.3,272,231.3z
			"/>
		<path id="XMLID_429_" d="M278.3,228.3c0.7,0,1.3,0.2,1.5,0.5v-0.6c0-0.7-0.5-1.2-1.3-1.2c-0.7,0-1.3,0.2-1.8,0.5l-0.5-0.9
			c0.5-0.3,1.3-0.7,2.4-0.7c1.9,0,2.5,1,2.5,2.4v4H280l-0.1-0.5c-0.3,0.4-0.8,0.6-1.6,0.6c-1.3,0-2.4-0.8-2.4-2.1
			C275.9,229.2,276.9,228.3,278.3,228.3z M278.6,231.4c0.8,0,1.3-0.4,1.3-1.1c0-0.7-0.5-1.1-1.3-1.1c-0.8,0-1.3,0.5-1.3,1.1
			C277.2,231,277.8,231.4,278.6,231.4z"/>
		<path id="XMLID_432_" d="M285.6,227.2c-1.4,0-1.8,1-1.8,2.4v2.7h-1.3v-6.3h1.3v1c0.2-0.6,0.9-1.1,1.8-1.1V227.2z"/>
		<path id="XMLID_434_" d="M286.6,223.7h1.3v8.7h-1.3V223.7z"/>
		<path id="XMLID_436_" d="M291.4,228.3c0.7,0,1.3,0.2,1.5,0.5v-0.6c0-0.7-0.5-1.2-1.3-1.2c-0.7,0-1.3,0.2-1.8,0.5l-0.5-0.9
			c0.5-0.3,1.3-0.7,2.4-0.7c1.9,0,2.5,1,2.5,2.4v4H293l-0.1-0.5c-0.3,0.4-0.8,0.6-1.6,0.6c-1.3,0-2.4-0.8-2.4-2.1
			C288.9,229.2,289.9,228.3,291.4,228.3z M291.6,231.4c0.8,0,1.3-0.4,1.3-1.1c0-0.7-0.5-1.1-1.3-1.1c-0.8,0-1.3,0.5-1.3,1.1
			C290.3,231,290.8,231.4,291.6,231.4z"/>
		<path id="XMLID_439_" d="M304.4,232.3h-1.3v-3.8c0-1-0.4-1.5-1.2-1.5c-0.7,0-1.3,0.5-1.3,1.5v3.7h-1.3v-3.9c0-0.9-0.5-1.4-1.2-1.4
			c-0.7,0-1.3,0.6-1.3,1.5v3.8h-1.3v-6.3h1.3c0,0.5,0,0.8,0,0.8c0.2-0.5,0.8-1,1.7-1c0.9,0,1.5,0.4,1.8,1c0.4-0.7,1.1-1,1.9-1
			c1.4,0,2.1,1,2.1,2.3V232.3z"/>
		<path id="XMLID_441_" d="M308.5,225.9c1.9,0,3,1.3,3,3.3c0,0.1,0,0.2,0,0.3h-4.7c0,1.1,0.8,1.8,1.9,1.8c0.9,0,1.5-0.5,1.7-0.9
			l0.9,0.6c-0.3,0.5-1.1,1.4-2.6,1.4c-2,0-3.3-1.4-3.3-3.3C305.4,227.3,306.8,225.9,308.5,225.9z M310.2,228.6c0-1-0.8-1.6-1.7-1.6
			s-1.6,0.6-1.7,1.6H310.2z"/>
		<path id="XMLID_444_" d="M317.8,228.6v3.8h-1.3v-3.9c0-0.9-0.5-1.4-1.3-1.4c-0.8,0-1.4,0.6-1.4,1.5v3.8h-1.3v-6.3h1.3v0.8
			c0.3-0.5,0.9-1,1.8-1C317.2,225.9,317.8,227.2,317.8,228.6z"/>
		<path id="XMLID_446_" d="M319.3,224.8h1.3v1.3h1.3v1.1h-1.3v2.9c0,1,0.4,1.2,1.1,1.2c0.1,0,0.3,0,0.3,0v1.1c0,0-0.2,0-0.6,0
			c-1.5,0-2-1-2-2.6v-2.7h-0.7v-1.1h0.7V224.8z"/>
		<path id="XMLID_448_" d="M322.9,229.8v-3.8h1.3v3.9c0,0.9,0.5,1.4,1.3,1.4c0.8,0,1.4-0.6,1.4-1.5v-3.8h1.3v6.3h-1.3v-0.8
			c-0.3,0.5-0.9,1-1.8,1C323.5,232.5,322.9,231.2,322.9,229.8z"/>
	</g>
	<rect id="XMLID_13_" x="133.6" y="201.8" class="st1" width="255.1" height="39.7"/>
	<g id="XMLID_26_">
		<g id="XMLID_56_">
			<line id="XMLID_73_" class="st1" x1="261.1" y1="258.1" x2="261.1" y2="260.1"/>
			<line id="XMLID_72_" class="st4" x1="261.1" y1="263.8" x2="261.1" y2="291"/>
			<line id="XMLID_71_" class="st1" x1="261.1" y1="292.8" x2="261.1" y2="294.8"/>
			<g id="XMLID_64_">
				<polygon id="XMLID_65_" points="256.1,259.6 261.1,251 266.1,259.6 				"/>
			</g>
			<g id="XMLID_57_">
				<polygon id="XMLID_58_" points="256.1,293.3 261.1,302 266.1,293.3 				"/>
			</g>
		</g>
	</g>
	<rect id="XMLID_14_" x="133.6" y="316" class="st5" width="255.1" height="39.7"/>
	<g id="XMLID_27_" class="st6">
		<rect id="XMLID_28_" y="201.8" class="st7" width="56.7" height="39.7"/>
		<g id="XMLID_29_" class="st8">
			<path id="XMLID_307_" d="M23.9,210.8l-0.7,0.6c-0.3-0.4-1-1-2.3-1c-2.2,0-3.9,1.8-3.9,4c0,1.7,1.1,2.9,2.7,2.9
				c1.4,0,2.3-0.6,2.6-0.9l0.3-1.8h-1.9l0.1-0.9h2.8l-0.5,3c-1.1,0.9-2.2,1.3-3.7,1.3c-2.1,0-3.6-1.5-3.6-3.7c0-2.8,2.3-5,5-5
				C22.6,209.5,23.5,210.3,23.9,210.8z"/>
			<path id="XMLID_309_" d="M26,209.7h1l-0.6,3.7h4.5l0.6-3.7h1l-1.4,8.4h-1l0.6-3.8h-4.5l-0.6,3.8h-1L26,209.7z"/>
			<path id="XMLID_311_" d="M34.3,209.7h1l-1.4,8.4h-1L34.3,209.7z"/>
			<path id="XMLID_313_" d="M36.3,216.9c0.3,0,0.6,0.2,0.6,0.6c0,0.8-0.6,1.5-1.3,2l-0.4-0.4c0.2-0.2,0.6-0.5,0.7-0.9
				c-0.3,0-0.5-0.3-0.5-0.6C35.5,217.2,35.9,216.9,36.3,216.9z M37.1,212.2c0.3,0,0.6,0.3,0.6,0.6c0,0.4-0.4,0.8-0.8,0.8
				c-0.3,0-0.6-0.3-0.6-0.6C36.3,212.6,36.7,212.2,37.1,212.2z"/>
			<path id="XMLID_316_" d="M17.2,224.1h4L21,225h-3l-0.5,2.8h2.6l-0.1,0.9h-2.6l-0.5,3H20l-0.1,0.9h-4.1L17.2,224.1z"/>
			<path id="XMLID_318_" d="M22.9,224.1h1l3.5,6.9l1.2-6.9h1l-1.4,8.4h-1l-3.5-6.8l-1.1,6.8h-1L22.9,224.1z"/>
			<path id="XMLID_320_" d="M31.3,224.1h2.3c1.3,0,2.1,0.7,2.1,2c0,1.7-1.3,2.9-3,2.9h-1.3l-0.6,3.5h-1L31.3,224.1z M32.9,228.1
				c1.2,0,1.9-0.8,1.9-1.9c0-0.8-0.5-1.3-1.4-1.3h-1.2l-0.5,3.2H32.9z"/>
			<path id="XMLID_323_" d="M37.4,224.1h2.3c1.3,0,2.1,0.7,2.1,2c0,1.7-1.3,2.9-3,2.9h-1.3l-0.6,3.5h-1L37.4,224.1z M39,228.1
				c1.2,0,1.9-0.8,1.9-1.9c0-0.8-0.5-1.3-1.4-1.3h-1.2l-0.5,3.2H39z"/>
		</g>
	</g>
	<line id="XMLID_30_" class="st9" x1="133.6" y1="221.6" x2="56.7" y2="221.6"/>
	<g id="XMLID_31_">
	</g>
	<g id="XMLID_15_">
		<path id="XMLID_77_" d="M145.8,327.6l-0.6,0.7c-0.2-0.2-0.8-0.7-1.7-0.7c-1.3,0-2.2,1-2.2,2.3c0,1.4,0.9,2.3,2.2,2.3
			c1,0,1.5-0.4,1.7-0.6v-1.1h-1.3v-0.9h2.2v2.4c-0.7,0.6-1.5,1-2.7,1c-1.8,0-3.2-1.3-3.2-3.3c0-1.8,1.3-3.3,3.2-3.3
			C144.8,326.7,145.5,327.3,145.8,327.6z"/>
		<path id="XMLID_79_" d="M147.2,326.8h1v2.7h3v-2.7h1v6.3h-1v-2.7h-3v2.7h-1V326.8z"/>
		<path id="XMLID_81_" d="M153.5,326.8h1v6.3h-1V326.8z"/>
		<path id="XMLID_83_" d="M156.1,332.2c0.3,0,0.5,0.2,0.5,0.5c0,0.6-0.3,1.1-0.7,1.4l-0.3-0.3c0.2-0.1,0.4-0.4,0.4-0.7
			c-0.3,0-0.4-0.3-0.4-0.5C155.6,332.4,155.8,332.2,156.1,332.2z"/>
		<path id="XMLID_85_" d="M160.3,331.9c0.2,0.4,0.4,0.7,1.1,0.7c0.5,0,1-0.3,1-0.8c0-0.9-2-0.8-2-2.1c0-0.8,0.8-1.3,1.7-1.3
			c0.9,0,1.3,0.6,1.3,0.9l-0.6,0.3c-0.1-0.3-0.3-0.6-0.9-0.6c-0.5,0-0.9,0.3-0.9,0.7c0,0.9,2,0.9,2,2.2c0,0.9-0.7,1.5-1.8,1.5
			c-0.9,0-1.4-0.6-1.5-1L160.3,331.9z"/>
		<path id="XMLID_87_" d="M166.5,328.3c1.3,0,1.9,0.8,1.9,1.9c0,0.3-0.1,0.6-0.1,0.7h-3.7c-0.2,1,0.4,1.7,1.4,1.7
			c0.8,0,1.3-0.4,1.6-0.7l0.4,0.4c-0.3,0.4-1.1,1-2.1,1c-1.3,0-2-0.8-2-2C163.8,329.6,165,328.3,166.5,328.3z M167.7,330.4
			c0.1-1-0.5-1.5-1.3-1.5c-0.8,0-1.6,0.6-1.8,1.5H167.7z"/>
		<path id="XMLID_90_" d="M170.8,330.1c0.6,0,1,0.2,1.2,0.4l0.1-0.6c0.1-0.7-0.3-1-1-1c-0.5,0-1.1,0.2-1.4,0.4l-0.2-0.5
			c0.3-0.2,1-0.5,1.8-0.5c1.2,0,1.7,0.7,1.5,1.7l-0.5,3.1h-0.6l0-0.4c-0.3,0.3-0.7,0.5-1.4,0.5c-0.9,0-1.5-0.6-1.5-1.3
			C168.7,330.8,169.7,330.1,170.8,330.1z M170.5,332.6c0.8,0,1.3-0.5,1.3-1.1c0-0.5-0.4-0.8-1-0.8c-0.8,0-1.3,0.5-1.3,1.1
			C169.5,332.2,169.9,332.6,170.5,332.6z"/>
		<path id="XMLID_93_" d="M174.4,327.4h0.7l-0.2,1h1l-0.1,0.6h-1l-0.4,2.4c-0.1,0.9,0.1,1.1,0.6,1.1c0.1,0,0.2,0,0.2,0l-0.1,0.6
			c0,0-0.2,0-0.4,0c-0.9,0-1.2-0.5-1.1-1.6l0.4-2.6h-0.5l0.1-0.6h0.6L174.4,327.4z"/>
		<path id="XMLID_95_" d="M181.1,328.3c1.3,0,1.9,0.8,1.9,1.9c0,0.3-0.1,0.6-0.1,0.7h-3.7c-0.2,1,0.4,1.7,1.4,1.7
			c0.8,0,1.3-0.4,1.6-0.7l0.4,0.4c-0.3,0.4-1.1,1-2.1,1c-1.3,0-2-0.8-2-2C178.4,329.6,179.6,328.3,181.1,328.3z M182.3,330.4
			c0.1-1-0.5-1.5-1.3-1.5c-0.8,0-1.6,0.6-1.8,1.5H182.3z"/>
		<path id="XMLID_98_" d="M185.2,331.2l-1.6,1.9h-0.9l2.2-2.5l-1.2-2.2h0.8l0.9,1.7l1.4-1.7h0.8l-2,2.3l1.3,2.3h-0.8L185.2,331.2z"
			/>
		<path id="XMLID_100_" d="M191.9,329.5c-0.2-0.2-0.6-0.6-1.3-0.6c-1.1,0-2,0.9-2,2.1c0,0.9,0.6,1.5,1.4,1.5c0.7,0,1.3-0.4,1.5-0.6
			l0.1,0.6c-0.2,0.2-0.8,0.6-1.8,0.6c-1.2,0-2-0.9-2-2.1c0-1.6,1.3-2.8,2.8-2.8c0.9,0,1.4,0.4,1.6,0.6L191.9,329.5z"/>
		<path id="XMLID_102_" d="M195.1,328.3c1.3,0,1.9,0.8,1.9,1.9c0,0.3-0.1,0.6-0.1,0.7h-3.7c-0.2,1,0.4,1.7,1.4,1.7
			c0.8,0,1.3-0.4,1.6-0.7l0.4,0.4c-0.3,0.4-1.1,1-2.1,1c-1.3,0-2-0.8-2-2C192.5,329.6,193.6,328.3,195.1,328.3z M196.3,330.4
			c0.1-1-0.5-1.5-1.3-1.5c-0.8,0-1.6,0.6-1.8,1.5H196.3z"/>
		<path id="XMLID_105_" d="M197.8,331.9c0.2,0.4,0.4,0.7,1.1,0.7c0.5,0,1-0.3,1-0.8c0-0.9-2-0.8-2-2.1c0-0.8,0.8-1.3,1.7-1.3
			c0.9,0,1.3,0.6,1.3,0.9l-0.6,0.3c-0.1-0.3-0.3-0.6-0.9-0.6c-0.5,0-0.9,0.3-0.9,0.7c0,0.9,2,0.9,2,2.2c0,0.9-0.7,1.5-1.8,1.5
			c-0.9,0-1.4-0.6-1.5-1L197.8,331.9z"/>
		<path id="XMLID_107_" d="M201.6,331.9c0.2,0.4,0.4,0.7,1.1,0.7c0.5,0,1-0.3,1-0.8c0-0.9-2-0.8-2-2.1c0-0.8,0.8-1.3,1.7-1.3
			c0.9,0,1.3,0.6,1.3,0.9l-0.6,0.3c-0.1-0.3-0.3-0.6-0.9-0.6c-0.5,0-0.9,0.3-0.9,0.7c0,0.9,2,0.9,2,2.2c0,0.9-0.7,1.5-1.8,1.5
			c-0.9,0-1.4-0.6-1.5-1L201.6,331.9z"/>
		<path id="XMLID_109_" d="M207,330h2.3v0.7H207V330z"/>
		<path id="XMLID_111_" d="M215.7,329.4l-1.3,3.7h-0.8l-1.6-4.7h0.8l1.2,3.9c0,0,0,0,1.3-3.9h0.7c1.2,3.8,1.3,3.9,1.3,3.9l1.2-3.9
			h0.8l-1.6,4.7h-0.8L215.7,329.4z"/>
		<path id="XMLID_113_" d="M220.1,331.9c0.2,0.4,0.5,0.7,1.2,0.7c0.5,0,0.9-0.3,0.9-0.7c0-1.1-2.3-0.7-2.3-2.3
			c0-0.8,0.7-1.3,1.5-1.3c0.9,0,1.3,0.5,1.4,0.9l-0.5,0.3c-0.1-0.3-0.4-0.6-1-0.6c-0.4,0-0.8,0.2-0.8,0.6c0,1.1,2.4,0.7,2.4,2.3
			c0,0.8-0.7,1.4-1.6,1.4c-1,0-1.4-0.6-1.6-1L220.1,331.9z"/>
		<path id="XMLID_115_" d="M223.7,326.6h0.7v3.8l1.9-2h0.9l-2,2.1l2.1,2.6h-0.9l-2-2.5v2.5h-0.7V326.6z"/>
		<path id="XMLID_117_" d="M229.5,330.1c0.6,0,1,0.2,1.2,0.4v-0.6c0-0.7-0.4-1-1.1-1c-0.6,0-1,0.2-1.4,0.4l-0.3-0.5
			c0.3-0.2,0.9-0.5,1.7-0.5c1.3,0,1.8,0.7,1.8,1.7v3.1h-0.6l-0.1-0.4c-0.2,0.3-0.6,0.5-1.3,0.5c-1,0-1.8-0.6-1.8-1.6
			C227.7,330.7,228.5,330.1,229.5,330.1z M229.6,332.6c0.7,0,1.2-0.4,1.2-1c0-0.6-0.5-1-1.2-1c-0.7,0-1.2,0.4-1.2,1
			C228.4,332.2,228.9,332.6,229.6,332.6z"/>
		<path id="XMLID_120_" d="M232.3,332.6l2.7-3.6h-2.6v-0.6h3.4v0.5l-2.7,3.6h2.7v0.6h-3.6V332.6z M234.2,326.5h0.8l-0.8,1.3h-0.6
			L234.2,326.5z"/>
		<path id="XMLID_123_" d="M240.5,330.1v2.9h-0.7v-3c0-0.7-0.5-1.2-1.1-1.2c-0.7,0-1.2,0.5-1.2,1.3v2.8h-0.7v-4.7h0.7v0.7
			c0.2-0.4,0.7-0.8,1.4-0.8C239.9,328.3,240.5,329.1,240.5,330.1z"/>
		<path id="XMLID_125_" d="M242,326.7c0.3,0,0.5,0.2,0.5,0.5c0,0.3-0.2,0.5-0.5,0.5c-0.3,0-0.5-0.2-0.5-0.5
			C241.6,326.9,241.8,326.7,242,326.7z M241.7,328.4h0.7v4.7h-0.7V328.4z"/>
		<path id="XMLID_128_" d="M243.6,326.6h0.7v3.8l1.9-2h0.9l-2,2.1l2.1,2.6h-0.9l-2-2.5v2.5h-0.7V326.6z"/>
		<path id="XMLID_130_" d="M248.3,326.7c0.3,0,0.5,0.2,0.5,0.5c0,0.3-0.2,0.5-0.5,0.5c-0.3,0-0.5-0.2-0.5-0.5
			C247.8,326.9,248,326.7,248.3,326.7z M247.9,328.4h0.7v4.7h-0.7V328.4z"/>
		<path id="XMLID_133_" d="M254.3,328.3c1.4,0,2.4,1.1,2.4,2.5s-1,2.5-2.4,2.5c-1.4,0-2.4-1-2.4-2.5
			C251.8,329.3,252.9,328.3,254.3,328.3z M254.3,332.5c1,0,1.7-0.8,1.7-1.8c0-1-0.7-1.8-1.7-1.8c-1,0-1.7,0.8-1.7,1.8
			C252.6,331.8,253.3,332.5,254.3,332.5z"/>
		<path id="XMLID_136_" d="M261.9,333.1h-0.7v-0.7c-0.1,0.2-0.6,0.9-1.6,0.9c-1.3,0-2.3-1-2.3-2.4c0-1.4,0.9-2.5,2.2-2.5
			c1,0,1.5,0.6,1.6,0.9v-2.6h0.7V333.1z M259.6,328.9c-0.9,0-1.6,0.8-1.6,1.8c0,1.1,0.7,1.8,1.6,1.8c1,0,1.6-0.8,1.6-1.8
			C261.2,329.6,260.5,328.9,259.6,328.9z"/>
		<path id="XMLID_139_" d="M266.6,329.5c-0.2-0.2-0.7-0.6-1.4-0.6c-1,0-1.7,0.8-1.7,1.8c0,1,0.7,1.8,1.7,1.8c0.7,0,1.2-0.4,1.4-0.6
			l0.2,0.6c-0.2,0.2-0.8,0.7-1.6,0.7c-1.4,0-2.4-1.1-2.4-2.5c0-1.4,1-2.5,2.4-2.5c0.9,0,1.4,0.4,1.6,0.6L266.6,329.5z"/>
		<path id="XMLID_141_" d="M271.5,330.1v2.9h-0.7v-3c0-0.7-0.5-1.2-1.1-1.2c-0.7,0-1.2,0.5-1.2,1.3v2.8h-0.7v-6.5h0.7v2.5
			c0.2-0.4,0.7-0.8,1.4-0.8C270.9,328.3,271.5,329.1,271.5,330.1z"/>
		<path id="XMLID_143_" d="M273.2,334.7l0.7-1.7l-1.9-4.6h0.8l1.5,3.8l1.4-3.8h0.8l-2.5,6.3H273.2z"/>
		<path id="XMLID_145_" d="M277.1,326.6h0.7v6.5h-0.7V326.6z"/>
		<path id="XMLID_147_" d="M281,328.3c1.4,0,2.2,1,2.2,2.4c0,0,0,0.1,0,0.2h-3.8c0,1,0.7,1.7,1.7,1.7c0.8,0,1.2-0.4,1.5-0.7l0.5,0.3
			c-0.3,0.4-0.9,1-1.9,1c-1.4,0-2.4-1-2.4-2.4C278.7,329.3,279.7,328.3,281,328.3z M282.5,330.4c0-1-0.7-1.5-1.5-1.5
			c-0.8,0-1.5,0.6-1.5,1.5H282.5z"/>
		<path id="XMLID_150_" d="M287.8,330.1v2.9h-0.7v-3c0-0.7-0.5-1.2-1.1-1.2c-0.7,0-1.2,0.5-1.2,1.3v2.8h-0.7v-4.7h0.7v0.7
			c0.2-0.4,0.7-0.8,1.4-0.8C287.3,328.3,287.8,329.1,287.8,330.1z"/>
		<path id="XMLID_152_" d="M289.4,326.7c0.3,0,0.5,0.2,0.5,0.5c0,0.3-0.2,0.5-0.5,0.5c-0.3,0-0.5-0.2-0.5-0.5
			C288.9,326.9,289.1,326.7,289.4,326.7z M289,328.4h0.7v4.7H289V328.4z"/>
		<path id="XMLID_155_" d="M292.5,330.1c0.6,0,1,0.2,1.2,0.4v-0.6c0-0.7-0.4-1-1.1-1c-0.6,0-1,0.2-1.4,0.4l-0.3-0.5
			c0.3-0.2,0.9-0.5,1.7-0.5c1.3,0,1.8,0.7,1.8,1.7v3.1h-0.6l-0.1-0.4c-0.2,0.3-0.6,0.5-1.3,0.5c-1,0-1.8-0.6-1.8-1.6
			C290.6,330.7,291.4,330.1,292.5,330.1z M292.6,332.6c0.7,0,1.2-0.4,1.2-1c0-0.6-0.5-1-1.2-1c-0.7,0-1.2,0.4-1.2,1
			C291.4,332.2,291.8,332.6,292.6,332.6z"/>
		<path id="XMLID_158_" d="M300,328.3c1.4,0,2.4,1.1,2.4,2.5s-1,2.5-2.4,2.5c-1.4,0-2.4-1-2.4-2.5
			C297.5,329.3,298.6,328.3,300,328.3z M300,332.5c1,0,1.7-0.8,1.7-1.8c0-1-0.7-1.8-1.7-1.8c-1,0-1.7,0.8-1.7,1.8
			C298.2,331.8,299,332.5,300,332.5z"/>
		<path id="XMLID_161_" d="M307.6,333.1h-0.7v-0.7c-0.1,0.2-0.6,0.9-1.6,0.9c-1.3,0-2.3-1-2.3-2.4c0-1.4,0.9-2.5,2.2-2.5
			c1,0,1.5,0.6,1.6,0.9v-2.6h0.7V333.1z M305.3,328.9c-0.9,0-1.6,0.8-1.6,1.8c0,1.1,0.7,1.8,1.6,1.8c1,0,1.6-0.8,1.6-1.8
			C306.9,329.6,306.2,328.9,305.3,328.9z"/>
		<path id="XMLID_164_" d="M311.1,328.4h0.7v0.7c0.1-0.2,0.6-0.9,1.6-0.9c1.3,0,2.3,1,2.3,2.4c0,1.4-0.9,2.5-2.2,2.5
			c-1,0-1.5-0.6-1.7-0.9v2.4h-0.7V328.4z M313.4,332.5c0.9,0,1.6-0.7,1.6-1.8c0-1.1-0.7-1.8-1.6-1.8c-1,0-1.6,0.8-1.6,1.8
			C311.8,331.9,312.5,332.5,313.4,332.5z"/>
		<path id="XMLID_167_" d="M318.7,329c-1.1,0-1.4,0.8-1.4,1.8v2.2h-0.7v-4.7h0.7v0.8c0.2-0.5,0.7-0.9,1.4-0.9V329z"/>
		<path id="XMLID_169_" d="M321.6,328.3c1.4,0,2.4,1.1,2.4,2.5s-1,2.5-2.4,2.5c-1.4,0-2.4-1-2.4-2.5
			C319.1,329.3,320.2,328.3,321.6,328.3z M321.5,332.5c1,0,1.7-0.8,1.7-1.8c0-1-0.7-1.8-1.7-1.8c-1,0-1.7,0.8-1.7,1.8
			C319.8,331.8,320.5,332.5,321.5,332.5z"/>
		<path id="XMLID_172_" d="M324.9,328.4h0.7v0.7c0.1-0.2,0.6-0.9,1.6-0.9c1.3,0,2.3,1,2.3,2.4c0,1.4-0.9,2.5-2.2,2.5
			c-1,0-1.5-0.6-1.7-0.9v2.4h-0.7V328.4z M327.2,332.5c0.9,0,1.6-0.7,1.6-1.8c0-1.1-0.7-1.8-1.6-1.8c-1,0-1.6,0.8-1.6,1.8
			C325.6,331.9,326.3,332.5,327.2,332.5z"/>
		<path id="XMLID_175_" d="M332.6,328.3c1.4,0,2.4,1.1,2.4,2.5s-1,2.5-2.4,2.5c-1.4,0-2.4-1-2.4-2.5
			C330.1,329.3,331.2,328.3,332.6,328.3z M332.5,332.5c1,0,1.7-0.8,1.7-1.8c0-1-0.7-1.8-1.7-1.8c-1,0-1.7,0.8-1.7,1.8
			C330.8,331.8,331.5,332.5,332.5,332.5z"/>
		<path id="XMLID_178_" d="M338,329c-1.1,0-1.4,0.8-1.4,1.8v2.2h-0.7v-4.7h0.7v0.8c0.2-0.5,0.7-0.9,1.4-0.9V329z"/>
		<path id="XMLID_180_" d="M342.3,329.5c-0.2-0.2-0.7-0.6-1.4-0.6c-1,0-1.7,0.8-1.7,1.8c0,1,0.7,1.8,1.7,1.8c0.7,0,1.2-0.4,1.4-0.6
			l0.2,0.6c-0.2,0.2-0.8,0.7-1.6,0.7c-1.4,0-2.4-1.1-2.4-2.5c0-1.4,1-2.5,2.4-2.5c0.9,0,1.4,0.4,1.6,0.6L342.3,329.5z"/>
		<path id="XMLID_182_" d="M343.4,328.4h0.7v4.8c0,1.2-0.7,1.6-1.5,1.6c-0.1,0-0.2,0-0.2,0v-0.6c0,0,0.1,0,0.2,0
			c0.5,0,0.8-0.3,0.8-1V328.4z M343.7,326.7c0.3,0,0.5,0.2,0.5,0.5c0,0.3-0.2,0.5-0.5,0.5c-0.3,0-0.5-0.2-0.5-0.5
			C343.3,326.9,343.5,326.7,343.7,326.7z"/>
		<path id="XMLID_185_" d="M347.5,328.3c1.4,0,2.4,1.1,2.4,2.5s-1,2.5-2.4,2.5c-1.4,0-2.4-1-2.4-2.5
			C345,329.3,346.1,328.3,347.5,328.3z M347.5,332.5c1,0,1.7-0.8,1.7-1.8c0-1-0.7-1.8-1.7-1.8c-1,0-1.7,0.8-1.7,1.8
			C345.7,331.8,346.5,332.5,347.5,332.5z"/>
		<path id="XMLID_188_" d="M354.6,330.1v2.9h-0.7v-3c0-0.7-0.5-1.2-1.1-1.2c-0.7,0-1.2,0.5-1.2,1.3v2.8h-0.7v-4.7h0.7v0.7
			c0.2-0.4,0.7-0.8,1.4-0.8C354,328.3,354.6,329.1,354.6,330.1z"/>
		<path id="XMLID_190_" d="M357.2,330.1c0.6,0,1,0.2,1.2,0.4v-0.6c0-0.7-0.4-1-1.1-1c-0.6,0-1,0.2-1.4,0.4l-0.3-0.5
			c0.3-0.2,0.9-0.5,1.7-0.5c1.3,0,1.8,0.7,1.8,1.7v3.1h-0.6l-0.1-0.4c-0.2,0.3-0.6,0.5-1.3,0.5c-1,0-1.8-0.6-1.8-1.6
			C355.4,330.7,356.2,330.1,357.2,330.1z M357.3,332.6c0.7,0,1.2-0.4,1.2-1c0-0.6-0.5-1-1.2-1c-0.7,0-1.2,0.4-1.2,1
			C356.2,332.2,356.6,332.6,357.3,332.6z"/>
		<path id="XMLID_193_" d="M360.3,326.6h0.7v6.5h-0.7V326.6z"/>
		<path id="XMLID_195_" d="M366,330.1v2.9h-0.7v-3c0-0.7-0.5-1.2-1.1-1.2c-0.7,0-1.2,0.5-1.2,1.3v2.8h-0.7v-4.7h0.7v0.7
			c0.2-0.4,0.7-0.8,1.4-0.8C365.5,328.3,366,329.1,366,330.1z"/>
		<path id="XMLID_197_" d="M369.3,328.3c1.4,0,2.4,1.1,2.4,2.5s-1,2.5-2.4,2.5c-1.4,0-2.4-1-2.4-2.5
			C366.9,329.3,367.9,328.3,369.3,328.3z M369.3,332.5c1,0,1.7-0.8,1.7-1.8c0-1-0.7-1.8-1.7-1.8c-1,0-1.7,0.8-1.7,1.8
			C367.6,331.8,368.3,332.5,369.3,332.5z"/>
		<path id="XMLID_200_" d="M372.8,331.9c0.2,0.4,0.5,0.7,1.2,0.7c0.5,0,0.9-0.3,0.9-0.7c0-1.1-2.3-0.7-2.3-2.3
			c0-0.8,0.7-1.3,1.5-1.3c0.9,0,1.3,0.5,1.4,0.9l-0.5,0.3c-0.1-0.3-0.4-0.6-1-0.6c-0.4,0-0.8,0.2-0.8,0.6c0,1.1,2.4,0.7,2.4,2.3
			c0,0.8-0.7,1.4-1.6,1.4c-1,0-1.4-0.6-1.6-1L372.8,331.9z M374.2,326.5h0.8l-0.8,1.3h-0.6L374.2,326.5z"/>
		<path id="XMLID_203_" d="M379.9,329.5c-0.2-0.2-0.7-0.6-1.4-0.6c-1,0-1.7,0.8-1.7,1.8c0,1,0.7,1.8,1.7,1.8c0.7,0,1.2-0.4,1.4-0.6
			l0.2,0.6c-0.2,0.2-0.8,0.7-1.6,0.7c-1.4,0-2.4-1.1-2.4-2.5c0-1.4,1-2.5,2.4-2.5c0.9,0,1.4,0.4,1.6,0.6L379.9,329.5z"/>
		<path id="XMLID_205_" d="M381.4,326.7c0.3,0,0.5,0.2,0.5,0.5c0,0.3-0.2,0.5-0.5,0.5c-0.3,0-0.5-0.2-0.5-0.5
			C380.9,326.9,381.1,326.7,381.4,326.7z M381,328.4h0.7v4.7H381V328.4z"/>
		<path id="XMLID_208_" d="M169.3,337.6h3.1v0.9h-2.1v1.8h1.8v0.9h-1.8v1.9h2.2v0.9h-3.2V337.6z"/>
		<path id="XMLID_210_" d="M173.5,337.6h1l3.1,4.7v-4.7h1v6.3h-1l-3.1-4.7v4.7h-1V337.6z"/>
		<path id="XMLID_212_" d="M179.9,337.6h1.8c1.2,0,2,0.8,2,1.9c0,1.1-0.9,1.9-2,1.9h-0.8v2.5h-1V337.6z M181.6,340.5
			c0.7,0,1.1-0.4,1.1-1c0-0.6-0.5-1-1.1-1h-0.7v2.1H181.6z"/>
		<path id="XMLID_215_" d="M184.7,337.6h1.8c1.2,0,2,0.8,2,1.9c0,1.1-0.9,1.9-2,1.9h-0.8v2.5h-1V337.6z M186.4,340.5
			c0.7,0,1.1-0.4,1.1-1c0-0.6-0.5-1-1.1-1h-0.7v2.1H186.4z"/>
		<path id="XMLID_218_" d="M191.4,340.8h2.3v0.7h-2.3V340.8z"/>
		<path id="XMLID_220_" d="M198.9,339.1c1.4,0,2.2,1,2.2,2.4c0,0,0,0.1,0,0.2h-3.8c0,1,0.7,1.7,1.7,1.7c0.8,0,1.2-0.4,1.5-0.7
			l0.5,0.3c-0.3,0.4-0.9,1-1.9,1c-1.4,0-2.4-1-2.4-2.4C196.7,340.1,197.7,339.1,198.9,339.1z M200.4,341.2c0-1-0.7-1.5-1.5-1.5
			c-0.8,0-1.5,0.6-1.5,1.5H200.4z"/>
		<path id="XMLID_223_" d="M202.2,339.8h-0.5v-0.6h0.5v-0.2c0-1.2,0.7-1.6,1.5-1.6c0.2,0,0.3,0,0.3,0v0.6c0,0-0.1,0-0.2,0
			c-0.5,0-0.8,0.3-0.8,0.9v0.2h1v0.6h-1v4.1h-0.7V339.8z"/>
		<path id="XMLID_225_" d="M206.6,339.1c1.4,0,2.2,1,2.2,2.4c0,0,0,0.1,0,0.2H205c0,1,0.7,1.7,1.7,1.7c0.8,0,1.2-0.4,1.5-0.7
			l0.5,0.3c-0.3,0.4-0.9,1-1.9,1c-1.4,0-2.4-1-2.4-2.4C204.3,340.1,205.3,339.1,206.6,339.1z M208.1,341.2c0-1-0.7-1.5-1.5-1.5
			c-0.8,0-1.5,0.6-1.5,1.5H208.1z"/>
		<path id="XMLID_228_" d="M209.7,337.4h0.7v3.8l1.9-2h0.9l-2,2.1l2.1,2.6h-0.9l-2-2.5v2.5h-0.7V337.4z"/>
		<path id="XMLID_230_" d="M214.2,338.2h0.7v1h1v0.6h-1v2.4c0,0.9,0.3,1.1,0.9,1.1c0.1,0,0.2,0,0.2,0v0.6c0,0-0.2,0-0.4,0
			c-0.9,0-1.3-0.6-1.3-1.7v-2.5h-0.5v-0.6h0.5V338.2z"/>
		<path id="XMLID_232_" d="M217.8,345.5l0.7-1.7l-1.9-4.6h0.8l1.5,3.8l1.4-3.8h0.8l-2.5,6.3H217.8z"/>
		<path id="XMLID_234_" d="M224.7,340.2l-1.3,3.7h-0.8l-1.6-4.7h0.8l1.2,3.9c0,0,0,0,1.3-3.9h0.7c1.2,3.8,1.3,3.9,1.3,3.9l1.2-3.9
			h0.8l-1.6,4.7H226L224.7,340.2z"/>
		<path id="XMLID_236_" d="M232.8,340.9v2.9H232v-3c0-0.7-0.5-1.2-1.1-1.2c-0.7,0-1.2,0.5-1.2,1.3v2.8H229v-4.7h0.7v0.7
			c0.2-0.4,0.7-0.8,1.4-0.8C232.2,339.1,232.8,339.9,232.8,340.9z"/>
		<path id="XMLID_238_" d="M235.4,340.9c0.6,0,1,0.2,1.2,0.4v-0.6c0-0.7-0.4-1-1.1-1c-0.6,0-1,0.2-1.4,0.4l-0.3-0.5
			c0.3-0.2,0.9-0.5,1.7-0.5c1.3,0,1.8,0.7,1.8,1.7v3.1h-0.6l-0.1-0.4c-0.2,0.3-0.6,0.5-1.3,0.5c-1,0-1.8-0.6-1.8-1.6
			C233.6,341.5,234.4,340.9,235.4,340.9z M235.5,343.4c0.7,0,1.2-0.4,1.2-1c0-0.6-0.5-1-1.2-1c-0.7,0-1.2,0.4-1.2,1
			C234.4,343,234.8,343.4,235.5,343.4z"/>
		<path id="XMLID_241_" d="M240.8,337.4h0.7v6.5h-0.7V337.4z"/>
		<path id="XMLID_243_" d="M243.1,337.5c0.3,0,0.5,0.2,0.5,0.5c0,0.3-0.2,0.5-0.5,0.5c-0.3,0-0.5-0.2-0.5-0.5
			C242.6,337.7,242.8,337.5,243.1,337.5z M242.7,339.2h0.7v4.7h-0.7V339.2z"/>
		<path id="XMLID_246_" d="M248.2,340.3c-0.2-0.2-0.7-0.6-1.4-0.6c-1,0-1.7,0.8-1.7,1.8c0,1,0.7,1.8,1.7,1.8c0.7,0,1.2-0.4,1.4-0.6
			l0.2,0.6c-0.2,0.2-0.8,0.7-1.6,0.7c-1.4,0-2.4-1.1-2.4-2.5s1-2.5,2.4-2.5c0.9,0,1.4,0.4,1.6,0.6L248.2,340.3z"/>
		<path id="XMLID_248_" d="M249,343.4l2.7-3.6H249v-0.6h3.4v0.5l-2.7,3.6h2.7v0.6H249V343.4z"/>
		<path id="XMLID_250_" d="M253.4,337.4h0.7v2.6c0.1-0.2,0.7-0.9,1.7-0.9c1.3,0,2.2,1,2.2,2.5c0,1.4-1,2.4-2.3,2.4
			c-1,0-1.5-0.7-1.6-0.9v0.7h-0.7V337.4z M255.7,343.3c0.9,0,1.6-0.7,1.6-1.8c0-1.1-0.7-1.8-1.6-1.8c-0.9,0-1.6,0.7-1.6,1.8
			C254.1,342.5,254.7,343.3,255.7,343.3z"/>
		<path id="XMLID_253_" d="M260.5,340.9c0.6,0,1,0.2,1.2,0.4v-0.6c0-0.7-0.4-1-1.1-1c-0.6,0-1,0.2-1.4,0.4l-0.3-0.5
			c0.3-0.2,0.9-0.5,1.7-0.5c1.3,0,1.8,0.7,1.8,1.7v3.1h-0.6l-0.1-0.4c-0.2,0.3-0.6,0.5-1.3,0.5c-1,0-1.8-0.6-1.8-1.6
			C258.7,341.5,259.4,340.9,260.5,340.9z M260.6,343.4c0.7,0,1.2-0.4,1.2-1c0-0.6-0.5-1-1.2-1c-0.7,0-1.2,0.4-1.2,1
			C259.4,343,259.8,343.4,260.6,343.4z"/>
		<path id="XMLID_256_" d="M265.8,339.2h0.7v0.7c0.1-0.2,0.6-0.9,1.6-0.9c1.3,0,2.3,1,2.3,2.4c0,1.4-0.9,2.5-2.2,2.5
			c-1,0-1.5-0.6-1.7-0.9v2.4h-0.7V339.2z M268.1,343.3c0.9,0,1.6-0.7,1.6-1.8c0-1.1-0.7-1.8-1.6-1.8c-1,0-1.6,0.8-1.6,1.8
			C266.5,342.7,267.2,343.3,268.1,343.3z"/>
		<path id="XMLID_259_" d="M272.8,340.9c0.6,0,1,0.2,1.2,0.4v-0.6c0-0.7-0.4-1-1.1-1c-0.6,0-1,0.2-1.4,0.4l-0.3-0.5
			c0.3-0.2,0.9-0.5,1.7-0.5c1.3,0,1.8,0.7,1.8,1.7v3.1h-0.6l-0.1-0.4c-0.2,0.3-0.6,0.5-1.3,0.5c-1,0-1.8-0.6-1.8-1.6
			C271,341.5,271.8,340.9,272.8,340.9z M272.9,343.4c0.7,0,1.2-0.4,1.2-1c0-0.6-0.5-1-1.2-1c-0.7,0-1.2,0.4-1.2,1
			C271.8,343,272.2,343.4,272.9,343.4z"/>
		<path id="XMLID_262_" d="M278,339.8c-1.1,0-1.4,0.8-1.4,1.8v2.2h-0.7v-4.7h0.7v0.8c0.2-0.5,0.7-0.9,1.4-0.9V339.8z"/>
		<path id="XMLID_264_" d="M279.2,338.2h0.7v1h1v0.6h-1v2.4c0,0.9,0.3,1.1,0.9,1.1c0.1,0,0.2,0,0.2,0v0.6c0,0-0.2,0-0.4,0
			c-0.9,0-1.3-0.6-1.3-1.7v-2.5h-0.5v-0.6h0.5V338.2z"/>
		<path id="XMLID_266_" d="M282.1,337.5c0.3,0,0.5,0.2,0.5,0.5c0,0.3-0.2,0.5-0.5,0.5c-0.3,0-0.5-0.2-0.5-0.5
			C281.6,337.7,281.8,337.5,282.1,337.5z M281.8,339.2h0.7v4.7h-0.7V339.2z"/>
		<path id="XMLID_269_" d="M284,337.5c0.3,0,0.5,0.2,0.5,0.5c0,0.3-0.2,0.5-0.5,0.5c-0.3,0-0.5-0.2-0.5-0.5
			C283.6,337.7,283.8,337.5,284,337.5z M283.7,339.2h0.7v4.7h-0.7V339.2z"/>
		<path id="XMLID_272_" d="M287.9,339.2h0.7v0.7c0.1-0.2,0.6-0.9,1.6-0.9c1.3,0,2.3,1,2.3,2.4c0,1.4-0.9,2.5-2.2,2.5
			c-1,0-1.5-0.6-1.7-0.9v2.4h-0.7V339.2z M290.2,343.3c0.9,0,1.6-0.7,1.6-1.8c0-1.1-0.7-1.8-1.6-1.8c-1,0-1.6,0.8-1.6,1.8
			C288.6,342.7,289.3,343.3,290.2,343.3z"/>
		<path id="XMLID_275_" d="M294.9,340.9c0.6,0,1,0.2,1.2,0.4v-0.6c0-0.7-0.4-1-1.1-1c-0.6,0-1,0.2-1.4,0.4l-0.3-0.5
			c0.3-0.2,0.9-0.5,1.7-0.5c1.3,0,1.8,0.7,1.8,1.7v3.1h-0.6l-0.1-0.4c-0.2,0.3-0.6,0.5-1.3,0.5c-1,0-1.8-0.6-1.8-1.6
			C293.1,341.5,293.9,340.9,294.9,340.9z M295,343.4c0.7,0,1.2-0.4,1.2-1c0-0.6-0.5-1-1.2-1c-0.7,0-1.2,0.4-1.2,1
			C293.8,343,294.3,343.4,295,343.4z"/>
		<path id="XMLID_278_" d="M300.1,339.8c-1.1,0-1.4,0.8-1.4,1.8v2.2H298v-4.7h0.7v0.8c0.2-0.5,0.7-0.9,1.4-0.9V339.8z"/>
		<path id="XMLID_280_" d="M300.9,337.4h0.7v6.5h-0.7V337.4z"/>
		<path id="XMLID_282_" d="M304.3,340.9c0.6,0,1,0.2,1.2,0.4v-0.6c0-0.7-0.4-1-1.1-1c-0.6,0-1,0.2-1.4,0.4l-0.3-0.5
			c0.3-0.2,0.9-0.5,1.7-0.5c1.3,0,1.8,0.7,1.8,1.7v3.1h-0.6l-0.1-0.4c-0.2,0.3-0.6,0.5-1.3,0.5c-1,0-1.8-0.6-1.8-1.6
			C302.5,341.5,303.3,340.9,304.3,340.9z M304.4,343.4c0.7,0,1.2-0.4,1.2-1c0-0.6-0.5-1-1.2-1c-0.7,0-1.2,0.4-1.2,1
			C303.3,343,303.7,343.4,304.4,343.4z"/>
		<path id="XMLID_285_" d="M314,343.9h-0.7v-2.8c0-0.9-0.4-1.3-1.1-1.3c-0.7,0-1.2,0.5-1.2,1.3v2.8h-0.7v-3c0-0.7-0.4-1.2-1.1-1.2
			c-0.6,0-1.1,0.5-1.1,1.3v2.8h-0.7v-4.7h0.7c0,0.4,0,0.7,0,0.7c0.2-0.4,0.7-0.8,1.3-0.8c0.7,0,1.2,0.3,1.4,0.9
			c0.3-0.6,0.8-0.9,1.5-0.9c1,0,1.6,0.7,1.6,1.8V343.9z"/>
		<path id="XMLID_287_" d="M317.1,339.1c1.4,0,2.2,1,2.2,2.4c0,0,0,0.1,0,0.2h-3.8c0,1,0.7,1.7,1.7,1.7c0.8,0,1.2-0.4,1.5-0.7
			l0.5,0.3c-0.3,0.4-0.9,1-1.9,1c-1.4,0-2.4-1-2.4-2.4C314.9,340.1,315.9,339.1,317.1,339.1z M318.6,341.2c0-1-0.7-1.5-1.5-1.5
			c-0.8,0-1.5,0.6-1.5,1.5H318.6z"/>
		<path id="XMLID_290_" d="M324,340.9v2.9h-0.7v-3c0-0.7-0.5-1.2-1.1-1.2c-0.7,0-1.2,0.5-1.2,1.3v2.8h-0.7v-4.7h0.7v0.7
			c0.2-0.4,0.7-0.8,1.4-0.8C323.4,339.1,324,339.9,324,340.9z"/>
		<path id="XMLID_292_" d="M325.2,338.2h0.7v1h1v0.6h-1v2.4c0,0.9,0.3,1.1,0.9,1.1c0.1,0,0.2,0,0.2,0v0.6c0,0-0.2,0-0.4,0
			c-0.9,0-1.3-0.6-1.3-1.7v-2.5h-0.5v-0.6h0.5V338.2z"/>
		<path id="XMLID_294_" d="M329.3,340.9c0.6,0,1,0.2,1.2,0.4v-0.6c0-0.7-0.4-1-1.1-1c-0.6,0-1,0.2-1.4,0.4l-0.3-0.5
			c0.3-0.2,0.9-0.5,1.7-0.5c1.3,0,1.8,0.7,1.8,1.7v3.1h-0.6l-0.1-0.4c-0.2,0.3-0.6,0.5-1.3,0.5c-1,0-1.8-0.6-1.8-1.6
			C327.5,341.5,328.3,340.9,329.3,340.9z M329.4,343.4c0.7,0,1.2-0.4,1.2-1c0-0.6-0.5-1-1.2-1c-0.7,0-1.2,0.4-1.2,1
			C328.2,343,328.7,343.4,329.4,343.4z"/>
		<path id="XMLID_297_" d="M334.5,339.8c-1.1,0-1.4,0.8-1.4,1.8v2.2h-0.7v-4.7h0.7v0.8c0.2-0.5,0.7-0.9,1.4-0.9V339.8z"/>
		<path id="XMLID_299_" d="M339.1,340.9v2.9h-0.7v-3c0-0.7-0.5-1.2-1.1-1.2c-0.7,0-1.2,0.5-1.2,1.3v2.8h-0.7v-4.7h0.7v0.7
			c0.2-0.4,0.7-0.8,1.4-0.8C338.5,339.1,339.1,339.9,339.1,340.9z"/>
		<path id="XMLID_301_" d="M340.8,345.5l0.7-1.7l-1.9-4.6h0.8l1.5,3.8l1.4-3.8h0.8l-2.5,6.3H340.8z"/>
		<path id="XMLID_303_" d="M348.2,340.3c-0.2-0.2-0.7-0.6-1.4-0.6c-1,0-1.7,0.8-1.7,1.8c0,1,0.7,1.8,1.7,1.8c0.7,0,1.2-0.4,1.4-0.6
			l0.2,0.6c-0.2,0.2-0.8,0.7-1.6,0.7c-1.4,0-2.4-1.1-2.4-2.5s1-2.5,2.4-2.5c0.9,0,1.4,0.4,1.6,0.6L348.2,340.3z"/>
		<path id="XMLID_305_" d="M353.1,340.9v2.9h-0.7v-3c0-0.7-0.5-1.2-1.1-1.2c-0.7,0-1.2,0.5-1.2,1.3v2.8h-0.7v-6.5h0.7v2.5
			c0.2-0.4,0.7-0.8,1.4-0.8C352.5,339.1,353.1,339.9,353.1,340.9z"/>
	</g>
</g>
<g id="Warstwa_3">
	<g id="XMLID_50_">
		<g id="XMLID_63_">
			<line id="XMLID_68_" class="st10" x1="65.7" y1="144.5" x2="65.7" y2="183.8"/>
			<g id="XMLID_66_">
				<polygon id="XMLID_67_" class="st11" points="60.7,182.4 65.7,191 70.7,182.4 				"/>
			</g>
		</g>
	</g>
	<rect id="XMLID_42_" x="23.4" y="201.8" class="st2" width="85" height="39.7"/>
	<line id="XMLID_41_" class="st10" x1="90.7" y1="195.6" x2="90.7" y2="172.9"/>
	<g id="XMLID_35_">
		<g id="XMLID_52_">
			<line id="XMLID_59_" class="st10" x1="90.9" y1="172.9" x2="234" y2="172.9"/>
			<g id="XMLID_53_">
				<polygon id="XMLID_54_" class="st11" points="232.5,177.9 241.1,172.9 232.5,167.9 				"/>
			</g>
		</g>
	</g>
	<g id="XMLID_33_">
		<rect id="XMLID_624_" x="23.4" y="201.8" class="st12" width="85" height="39.7"/>
		<path id="XMLID_561_" class="st11" d="M42.1,213.5h0.9v4.8h2v0.8h-2.8V213.5z"/>
		<path id="XMLID_563_" class="st11" d="M45.7,213.5h0.9v5.6h-0.9V213.5z"/>
		<path id="XMLID_565_" class="st11" d="M52.1,218.6c-0.3,0.2-0.9,0.6-1.8,0.6c-1.7,0-2.9-1.3-2.9-2.9c0-1.6,1.2-2.9,2.9-2.9
			c0.8,0,1.4,0.3,1.7,0.5l-0.3,0.8c-0.2-0.2-0.8-0.5-1.4-0.5c-1.2,0-2,0.9-2,2.1c0,1.2,0.8,2.1,2,2.1c0.7,0,1.2-0.4,1.5-0.5
			L52.1,218.6z"/>
		<path id="XMLID_567_" class="st11" d="M52.6,218.5l3-4.2h-2.9v-0.8h4.1v0.6l-3,4.2h3.1v0.8h-4.2V218.5z"/>
		<path id="XMLID_569_" class="st11" d="M57.7,213.5h1.6c1.1,0,1.8,0.6,1.8,1.5c0,0.5-0.3,1-0.7,1.2c0.6,0.2,0.9,0.7,0.9,1.3
			c0,1-0.8,1.6-1.8,1.6h-1.8V213.5z M59.4,215.8c0.5,0,0.8-0.3,0.8-0.8c0-0.5-0.3-0.8-0.8-0.8h-0.8v1.6H59.4z M59.4,218.3
			c0.6,0,1-0.3,1-0.9c0-0.6-0.4-0.9-1-0.9h-0.8v1.8H59.4z"/>
		<path id="XMLID_573_" class="st11" d="M63.1,217.4l-0.6,1.6h-0.9l2-5.6h0.9l2,5.6h-0.9l-0.6-1.6H63.1z M64.2,214.4l-0.8,2.3h1.6
			L64.2,214.4z"/>
		<path id="XMLID_576_" class="st11" d="M69.3,213.5H71c1.1,0,1.8,0.7,1.8,1.7c0,1-0.8,1.7-1.8,1.7h-0.7v2.2h-0.9V213.5z
			 M70.9,216.1c0.6,0,1-0.4,1-0.9c0-0.6-0.4-0.9-1-0.9h-0.6v1.8H70.9z"/>
		<path id="XMLID_579_" class="st11" d="M74.1,217.4l-0.6,1.6h-0.9l2-5.6h0.9l2,5.6h-0.9l-0.6-1.6H74.1z M75.1,214.4l-0.8,2.3h1.6
			L75.1,214.4z"/>
		<path id="XMLID_582_" class="st11" d="M78.3,213.5h1.5c1.2,0,1.9,0.7,1.9,1.6c0,0.6-0.3,1.2-0.9,1.4l1.4,2.5h-1l-1.2-2.3h-0.8v2.3
			h-0.9V213.5z M79.8,216c0.6,0,1-0.3,1-0.9c0-0.5-0.3-0.9-1-0.9h-0.6v1.8H79.8z"/>
		<path id="XMLID_585_" class="st11" d="M83.7,214.3h-1.4v-0.8H86v0.8h-1.4v4.8h-0.9V214.3z"/>
		<path id="XMLID_587_" class="st11" d="M86.8,213.5h0.9v5.6h-0.9V213.5z"/>
		<path id="XMLID_589_" class="st11" d="M88.8,213.5h0.9v5.6h-0.9V213.5z"/>
		<path id="XMLID_591_" class="st11" d="M31.3,224.5h1.5c1.2,0,1.9,0.7,1.9,1.6c0,0.6-0.3,1.2-0.9,1.4l1.4,2.5h-1l-1.2-2.3h-0.8v2.3
			h-0.9V224.5z M32.8,227c0.6,0,1-0.3,1-0.9c0-0.5-0.3-0.9-1-0.9h-0.6v1.8H32.8z"/>
		<path id="XMLID_594_" class="st11" d="M38.4,224.4c1.7,0,2.9,1.3,2.9,2.9c0,1.6-1.2,2.9-2.9,2.9c-1.7,0-2.9-1.2-2.9-2.9
			C35.5,225.6,36.8,224.4,38.4,224.4z M38.4,229.3c1.1,0,2-0.9,2-2.1c0-1.2-0.8-2.1-2-2.1c-1.1,0-2,0.9-2,2.1
			C36.5,228.5,37.3,229.3,38.4,229.3z"/>
		<path id="XMLID_597_" class="st11" d="M41.9,229.5l3-4.2H42v-0.8h4.1v0.6l-3,4.2h3.1v0.8h-4.2V229.5z"/>
		<path id="XMLID_599_" class="st11" d="M47,224.5h0.9v2.6l2.1-2.6h1l-2.2,2.7l2.3,2.9h-1l-2.1-2.8v2.8H47V224.5z"/>
		<path id="XMLID_601_" class="st11" d="M51.2,227.5l0.5-0.3v-2.8h0.9v2.3l0.9-0.6v0.9l-0.9,0.5v1.7h2v0.8h-2.8v-2l-0.5,0.3V227.5z"
			/>
		<path id="XMLID_603_" class="st11" d="M56.3,228.4l-0.6,1.6h-0.9l2-5.6h0.9l2,5.6h-0.9l-0.6-1.6H56.3z M57.3,225.4l-0.8,2.3h1.6
			L57.3,225.4z"/>
		<path id="XMLID_606_" class="st11" d="M60.5,224.5h1.3c1.9,0,3,1,3,2.8c0,1.8-1.1,2.8-3,2.8h-1.3V224.5z M61.9,229.3
			c1.2,0,2-0.7,2-2c0-1.3-0.8-2-2-2h-0.5v4H61.9z"/>
		<path id="XMLID_609_" class="st11" d="M72.3,225.2l-0.6,0.6c-0.2-0.2-0.7-0.6-1.5-0.6c-1.2,0-2,0.9-2,2.1c0,1.2,0.8,2.1,2,2.1
			c0.9,0,1.3-0.4,1.5-0.5v-0.9h-1.2v-0.8h2v2.1c-0.6,0.6-1.3,0.9-2.4,0.9c-1.6,0-2.8-1.2-2.8-2.9c0-1.6,1.2-2.9,2.9-2.9
			C71.4,224.4,72.1,224.9,72.3,225.2z"/>
		<path id="XMLID_611_" class="st11" d="M73.1,227.5l0.5-0.3v-2.8h0.9v2.3l0.9-0.6v0.9l-0.9,0.5v1.7h2v0.8h-2.8v-2l-0.5,0.3V227.5z"
			/>
		<path id="XMLID_613_" class="st11" d="M79.8,224.4c1.7,0,2.9,1.3,2.9,2.9c0,1.6-1.2,2.9-2.9,2.9c-1.7,0-2.9-1.2-2.9-2.9
			C76.9,225.6,78.1,224.4,79.8,224.4z M79.8,229.3c1.1,0,2-0.9,2-2.1c0-1.2-0.8-2.1-2-2.1c-1.1,0-2,0.9-2,2.1
			C77.8,228.5,78.6,229.3,79.8,229.3z"/>
		<path id="XMLID_616_" class="st11" d="M83.9,228.6c0.2,0.4,0.5,0.8,1.1,0.8c0.5,0,0.8-0.3,0.8-0.8c0-1.2-2.5-0.9-2.5-2.7
			c0-0.9,0.6-1.5,1.7-1.5c1.1,0,1.5,0.8,1.7,1.1l-0.7,0.3c-0.1-0.3-0.4-0.7-0.9-0.7c-0.5,0-0.8,0.3-0.8,0.7c0,1.1,2.5,0.9,2.5,2.7
			c0,0.9-0.7,1.6-1.8,1.6c-1.1,0-1.6-0.8-1.8-1.3L83.9,228.6z"/>
		<path id="XMLID_618_" class="st11" d="M90.2,224.4c1.7,0,2.9,1.3,2.9,2.9c0,1.6-1.2,2.9-2.9,2.9c-1.7,0-2.9-1.2-2.9-2.9
			C87.3,225.6,88.5,224.4,90.2,224.4z M90.2,229.3c1.1,0,2-0.9,2-2.1c0-1.2-0.8-2.1-2-2.1c-1.1,0-2,0.9-2,2.1
			C88.2,228.5,89.1,229.3,90.2,229.3z M90.3,223h0.9l-0.7,1.1h-0.7L90.3,223z"/>
		<path id="XMLID_622_" class="st11" d="M97.2,225.8l-1.2,4.3h-1l-1.6-5.6h1l1.1,4.5l1.2-4.5h0.8l1.2,4.5l1.1-4.5h0.9l-1.5,5.6h-1
			L97.2,225.8z"/>
	</g>
	<g id="XMLID_51_">
	</g>
	<g id="XMLID_76_">
	</g>
	<g id="XMLID_625_">
	</g>
	<g id="XMLID_626_">
	</g>
	<g id="XMLID_627_">
	</g>
	<g id="XMLID_628_">
	</g>
	<g id="XMLID_629_">
	</g>
</g>
</svg>
